<svg width="265" height="225" viewBox="0 0 265 225" fill="none" xmlns="http://www.w3.org/2000/svg">
<g filter="url(#filter0_d_39_234)">
<path d="M140.55 214.026V126.704L248.95 69.5312L260.318 81.1999L258.893 88.3099L259.688 92.2759C260.056 94.1131 258.933 95.8734 257.834 97.3915C256.735 98.9107 256.428 101.142 258.893 103.952C262.712 108.305 259.876 118.21 257.751 123.21C257.571 123.634 257.239 123.966 256.841 124.198C254.926 125.312 252.367 127.506 253.902 129.548C256.041 132.392 256.041 140.924 253.902 144.479C252.573 146.688 252.879 149.9 253.416 152.112C253.646 153.057 253.29 154.081 252.451 154.574L149.12 215.315C147.337 216.363 145.139 216.419 143.305 215.462L140.55 214.026Z" fill="white"/>
<path d="M8.25076 91.6931C10.14 89.5692 14.9103 84.7552 18.8777 82.4897L145.692 121.427C147.109 128.506 143.992 143.232 145.692 145.497C147.393 147.763 147.346 154.465 147.109 157.532C145.929 158.476 143.567 161.214 143.567 164.612C143.567 168.01 145.929 174.995 147.109 178.063L143.567 182.311C144.748 183.962 147.109 188.116 147.109 191.514C147.109 195.762 144.276 205.673 143.567 208.505C143.278 209.659 143.548 211.32 144.069 212.921C144.399 213.934 143.03 215.322 142.086 214.828L8.17448 144.847C6.61038 144.03 6.73454 141.544 8.2065 140.571C8.22126 140.561 8.23602 140.551 8.25076 140.542C10.3761 139.126 4 133.462 4 129.214C4 124.967 10.3762 122.135 8.25076 121.427C6.55044 120.861 7.54229 115.999 8.25076 113.639C9.19538 111.28 10.5178 106.418 8.25076 105.852C5.98368 105.286 7.30614 96.1767 8.25076 91.6931Z" fill="white"/>
<path d="M80.6393 26.4022C93.4615 15.6986 118.394 3.66895e-05 137.627 0C156.86 -3.66893e-05 188.916 22.8342 196.039 28.5429C203.163 34.2515 220.259 39.9601 233.081 53.5179C236.942 57.5994 252.483 72.8749 260.318 81.1999C256.044 83.3407 247.898 80.9191 244.479 87.7694C240.205 96.3323 223.109 95.6187 223.109 99.1866C223.109 102.041 209.574 106.322 206.012 111.317L193.19 116.312C189.628 116.312 184.499 117.169 181.08 123.448C176.806 131.297 146.887 143.428 144.038 143.428C141.189 143.428 125.126 133.9 122.276 133.9C119.997 133.9 110.396 130.389 109.209 130.389C107.072 128.724 103.447 123.87 101.168 123.87C98.3184 123.87 90.6135 117.35 87.0954 118.353C83.6707 119.33 75.1601 118.121 73.0231 113.84C70.886 109.558 56.9404 113.338 45.8835 102.807C34.9043 92.3494 23.3108 93.3358 19.7491 89.7679C16.8997 86.9136 10.2611 91.1916 8.25076 91.6931C8.96311 90.5038 11.5416 83.2025 14.391 79.2065C17.9528 74.2115 43.5972 56.3722 47.8713 55.6586C52.1454 54.9451 67.817 37.1058 80.6393 26.4022Z" fill="white"/>
<path d="M157.098 204.833C155.387 205.975 148.778 204.357 145.687 203.405C144.974 205.071 144.261 208.117 144.261 209.831C144.261 211.544 146.049 214.334 147 216L253.179 153.721C252.942 152.769 252.668 149.854 252.668 148.426C252.668 147.149 253.381 144.856 254.095 143.428L248.389 145.57C245.061 147.95 237.976 152.996 236.264 154.138C234.553 155.281 229.37 156.518 226.993 156.994C225.804 156.994 223.284 157.851 222.713 161.278C222 165.562 217.008 164.134 214.868 166.276C213.156 167.99 204.646 170.322 200.604 171.274C199.891 172.702 197.751 176.272 194.898 179.128C191.332 182.698 179.208 185.554 177.068 186.268C175.357 186.84 173.502 190.791 172.789 192.695L166.37 196.265C163.993 198.645 158.81 203.69 157.098 204.833Z" fill="white"/>
<path d="M143.598 209.096C143.24 210.514 144.075 214.095 145.029 215.514L7.5 143C10.363 142.291 7.91599 140.688 8.32088 140.287C8.72577 139.885 9.03663 138.868 8.32088 138.158L9.03663 136.74C10.9453 139.341 16.1941 144.401 21.9201 143.833C27.6461 143.266 30.5091 145.489 31.2249 146.671L36.2351 148.799L39.8139 153.765C44.347 154.71 53.4132 157.028 53.4132 158.73C53.4132 160.858 62.0022 162.986 66.2967 163.696C70.5912 164.405 75.6014 168.661 77.0329 172.208C78.4644 175.755 89.9164 177.174 89.2006 179.302C88.628 181.004 91.8251 181.903 93.4952 182.139L97.0739 180.011L102.8 185.686C105.09 187.956 113.298 189.943 117.115 190.652L119.262 194.199L124.272 194.908C124.988 195.854 127.708 198.313 132.861 200.583C138.015 202.853 142.643 202.948 145.029 202.711C144.552 203.893 144.17 206.826 143.598 209.096Z" fill="white"/>
<path d="M131.386 19.4734C129.049 18.5296 125.74 22.2259 124.377 24.192C123.014 24.7819 120.055 26.5514 119.12 28.9107C118.186 31.27 114.837 32.2531 113.28 32.4497L116.784 37.1683C115.227 37.7582 111.878 39.4097 110.944 41.2971C109.775 43.6565 122.041 46.0158 124.377 46.6056C126.713 47.1954 127.032 57.2226 134.89 57.2226C142.483 57.2226 147.155 46.6056 157.084 44.2463C163.234 42.785 160.005 32.4497 157.084 32.4497C154.748 32.4497 150.66 28.9107 148.908 27.1412C150.076 26.748 151.945 25.6076 150.076 24.192C148.207 22.7764 141.12 23.6022 137.81 24.192C136.642 23.0124 133.722 20.4171 131.386 19.4734Z" fill="white"/>
<path d="M119.636 31.9555C118.556 31.9555 118.287 33.4418 118.287 34.1849L125.033 36.4144L125.708 32.5128C124.134 32.327 120.715 31.9555 119.636 31.9555Z" fill="white"/>
<path d="M142.083 40.0554C142.011 39.1266 140.448 39.0137 139.675 39.0734L137.803 45.0574L141.905 45.3247C141.994 43.9553 142.154 40.9842 142.083 40.0554Z" fill="white"/>
<path d="M127.485 43.6846C128.37 43.3982 128.115 41.8492 127.877 41.1105L124.565 42.3877L121.629 40.6841L122.327 44.7413C123.678 44.5084 126.6 43.9709 127.485 43.6846Z" fill="white"/>
<path d="M133.763 47.5616C132.82 47.5616 131.996 50.8084 132.585 52.1071L133.763 54.7046C133.763 54.7046 137.887 55.3539 138.477 54.7046C139.066 54.0552 139.066 50.1591 139.066 50.1591C137.691 49.9426 134.706 47.5616 133.763 47.5616Z" fill="white"/>
<path d="M150.976 34.9281C150.534 34.9281 148.951 37.3267 148.215 38.526C148.031 40.3249 147.774 44.1627 148.215 45.1221C148.657 46.0815 152.08 43.523 153.736 42.1239L155.393 38.526C154.104 37.3267 151.417 34.9281 150.976 34.9281Z" fill="white"/>
<path d="M130.103 22.15C129.749 22.0344 127.927 23.3217 127.06 23.9798C126.917 26.7571 126.475 26.6127 126.06 27.8888C125.812 28.6497 129 28.5359 130.65 27.9768L130.844 25.2163C130.09 24.0284 130.456 22.2655 130.103 22.15Z" fill="white"/>
<path d="M134.613 29.9737C134.459 29.6434 133.964 28.9828 133.222 28.9828L130.903 30.9646L133.222 31.9554L134.613 29.9737Z" fill="white"/>
<path d="M131.221 36.4144L128.676 37.6884L131.221 40.8733L133.129 38.3254L131.221 36.4144Z" fill="white"/>
<path d="M143.391 33.1573L141.832 35.2412L145.213 36.8017L145.732 33.9372L143.391 33.1573Z" fill="white"/>
<path d="M147.661 26.3041L145.304 24.2953L143.045 28.1902L146.461 29.0232L147.661 26.3041Z" fill="white"/>
<path d="M117.123 41.5366L116.013 40.2302L112.99 41.2967L115.298 42.3622L117.123 41.5366Z" fill="white"/>
</g>
<path d="M142.027 206.379V125.778L242.697 72.6986L252.566 83.8386L251.25 90.3916L252.566 96.9445C250.592 97.8183 247.566 100.614 251.25 104.808C254.935 109.002 251.908 118.788 249.934 123.156C248.18 124.03 245.065 126.302 246.644 128.399C248.618 131.02 248.618 138.883 246.644 142.16C245.065 144.781 245.986 148.931 246.644 150.679L147.291 209L142.027 206.379Z" fill="#A9BD7E" stroke="white" stroke-width="2"/>
<path d="M19.9232 93.5097C21.6668 91.5523 26.0695 87.1154 29.7312 85.0274L146.773 120.914C148.081 127.439 145.204 141.011 146.773 143.099C148.343 145.187 148.299 151.364 148.081 154.191C146.991 155.061 144.812 157.584 144.812 160.716C144.812 163.848 146.991 170.286 148.081 173.113L144.812 177.028C145.902 178.551 148.081 182.379 148.081 185.51C148.081 189.425 145.466 198.56 144.812 201.17C144.289 203.258 146.773 207.26 148.081 209L16 140.489C16.6539 140.271 18.3539 139.575 19.9232 138.531C21.8848 137.226 16 132.006 16 128.092C16 124.177 21.8848 121.567 19.9232 120.914C18.3539 120.392 19.2693 115.912 19.9232 113.737C20.795 111.562 22.0156 107.081 19.9232 106.559C17.8308 106.037 19.0514 97.6422 19.9232 93.5097Z" fill="#A9BD7E" stroke="white" stroke-width="2"/>
<path d="M86.7333 33.3338C98.5675 23.4688 121.578 9.00003 139.33 9C157.081 8.99997 186.666 30.0454 193.241 35.3068C199.815 40.5682 215.594 45.8296 227.428 58.3253C230.991 62.087 247.809 74.9863 255.041 82.6591C251.096 84.6321 241.103 83.5798 237.947 89.8935C234.003 97.7855 218.224 97.1278 218.224 100.416C218.224 103.047 205.732 106.993 202.445 111.597L190.611 116.2C187.324 116.2 182.59 116.989 179.434 122.777C175.489 130.011 147.876 141.192 145.247 141.192C142.617 141.192 127.792 132.41 125.162 132.41C123.058 132.41 114.197 129.174 113.102 129.174C111.129 127.64 107.784 123.166 105.68 123.166C103.05 123.166 95.939 117.157 92.692 118.081C89.5312 118.981 81.6764 117.867 79.7041 113.921C77.7317 109.975 64.8607 113.459 54.6559 103.753C44.5228 94.1146 33.8227 95.0238 30.5355 91.7354C27.9057 89.1047 22.6499 89.8866 20.7945 90.3488C21.452 89.2527 22.9605 85.6844 25.5903 82.0014C28.8775 77.3977 52.5458 60.956 56.4905 60.2983C60.4353 59.6406 74.8992 43.1989 86.7333 33.3338Z" fill="#F1BC6D" stroke="white" stroke-width="2"/>
<path d="M157.3 197.786C155.721 198.839 149.621 197.347 146.769 196.47C146.11 198.005 145.452 200.813 145.452 202.392C145.452 203.972 147.207 206.78 148.085 208.315L246.164 151.063C245.944 150.185 245.505 147.114 245.505 145.798C245.505 144.621 246.164 142.508 246.822 141.192L241.556 143.166C238.484 145.36 231.946 150.01 230.366 151.063C228.786 152.116 224.003 153.256 221.809 153.695C220.711 153.695 218.386 154.485 217.859 157.644C217.201 161.592 212.593 160.276 210.618 162.25C209.039 163.829 201.184 165.979 197.453 166.857C196.795 168.173 194.82 171.463 192.187 174.095C188.896 177.386 177.706 180.018 175.731 180.676C174.152 181.203 172.44 184.844 171.782 186.599L165.858 189.889C163.663 192.083 158.88 196.733 157.3 197.786Z" fill="#F5C781" stroke="white"/>
<path d="M144.84 201.715C144.51 203.022 145.281 206.323 146.161 207.63L16.6849 140.258C19.3273 139.604 19.6142 138.666 19.9879 138.296C20.3616 137.927 20.6485 136.989 19.9879 136.335L20.6485 135.027C22.4101 137.425 27.2544 142.088 32.5392 141.565C37.8239 141.042 40.4663 143.091 41.1269 144.181L45.7511 146.142L49.054 150.719C53.2378 151.59 61.6053 153.726 61.6053 155.295C61.6053 157.257 69.5324 159.218 73.496 159.872C77.4596 160.526 82.0837 164.448 83.4049 167.717C84.7261 170.986 95.2956 172.294 94.635 174.255C94.1065 175.824 97.0571 176.653 98.5985 176.87L101.901 174.909L107.186 180.139C109.3 182.232 116.875 184.062 120.398 184.716L122.38 187.985L127.004 188.639C127.665 189.511 130.175 191.777 134.931 193.869C139.687 195.961 143.959 196.049 146.161 195.831C145.721 196.92 145.369 199.623 144.84 201.715Z" fill="#F5C781" stroke="white"/>
<path d="M152.986 185.027C156.656 185.027 163.254 181.131 166.094 179.183L177.235 175.287C179.638 172.69 185.23 167.105 188.376 165.547C191.522 163.988 196.677 162.3 198.862 161.651L200.828 159.703C202.576 159.053 206.857 157.365 210.003 155.807C213.149 154.248 221.8 147.365 225.732 144.118C229.664 142.82 238.053 139.962 240.15 138.924C242.247 137.885 243.645 135.893 244.082 135.027" stroke="white"/>
<path d="M150.932 156.26C154.629 156.26 161.276 152.311 164.137 150.336L175.362 146.387C177.783 143.754 183.418 138.093 186.587 136.513C189.757 134.933 194.951 133.222 197.152 132.563L199.133 130.589C200.894 129.93 205.208 128.219 208.377 126.639C211.546 125.059 220.262 118.082 224.224 114.791C228.186 113.474 236.638 110.578 238.751 109.525C240.864 108.472 242.272 106.453 242.712 105.575" stroke="white"/>
<path d="M152.986 175.438C156.656 175.438 161.943 172.192 164.783 170.244L176.579 163.75C178.982 161.153 186.541 158.815 189.687 157.257C192.833 155.698 196.677 152.711 198.862 152.062L202.139 148.166C203.886 147.516 210.79 145.179 213.935 143.62C217.081 142.062 224.421 135.828 230.319 134.529C234.252 134.529 238.053 130.373 240.15 129.334C242.247 128.295 243.645 126.304 244.082 125.438" stroke="white"/>
<path d="M150.932 146.671C154.629 146.671 159.956 143.38 162.817 141.405L174.702 134.823C177.123 132.19 184.739 129.82 187.908 128.24C191.077 126.661 194.951 123.633 197.152 122.974L200.454 119.025C202.214 118.367 209.169 115.997 212.339 114.417C215.508 112.837 222.904 106.518 228.846 105.202C232.808 105.202 236.638 100.989 238.751 99.9358C240.864 98.8826 242.272 96.864 242.712 95.9863" stroke="white"/>
<path d="M150.932 164.479C154.629 164.479 159.956 163.184 162.817 161.24L172.721 154.113C176.683 154.113 184.739 149.837 187.908 148.282C191.077 146.727 192.31 143.746 194.511 143.098L200.454 139.211C203.755 140.507 209.169 136.231 212.339 134.676C215.508 133.121 222.904 126.901 228.846 125.605C232.808 125.605 236.638 121.458 238.751 120.422C240.864 119.385 242.272 117.398 242.712 116.534" stroke="white"/>
<path d="M139.855 185.863C135.353 185.649 127.352 181.322 123.913 179.185L110.338 174.592C107.451 171.825 100.72 165.849 96.8976 164.089C93.0752 162.328 86.7909 160.319 84.1266 159.534L81.7599 157.449C79.6314 156.69 74.4188 154.731 70.5964 152.971C66.774 151.21 56.3221 143.742 51.5739 140.228C46.7811 138.685 36.5583 135.304 34.01 134.13C31.4618 132.956 29.7927 130.86 29.2767 129.959" stroke="white"/>
<path d="M139.56 156.409C135.054 156.35 126.907 152.303 123.397 150.287L109.671 146.167C106.689 143.501 99.7553 137.763 95.8742 136.136C91.9931 134.509 85.6429 132.718 82.953 132.026L80.5155 130.024C78.3619 129.339 73.0846 127.563 69.2035 125.936C65.3224 124.309 54.6179 117.208 49.7508 113.86C44.9073 112.484 34.5735 109.459 31.9861 108.375C29.3987 107.29 27.658 105.253 27.1111 104.37" stroke="white"/>
<path d="M139.811 176.98C135.311 176.74 128.922 173.11 125.496 170.954L111.218 163.615C108.346 160.831 99.1458 157.972 95.3335 156.19C91.5212 154.407 86.8927 151.135 84.2328 150.335L80.3268 146.181C78.2027 145.409 69.8057 142.593 65.9934 140.811C62.1811 139.029 53.3601 132.244 46.1655 130.544C41.3442 130.287 36.8028 125.835 34.2613 124.647C31.7197 123.459 30.0626 121.354 29.5517 120.45" stroke="white"/>
<path d="M139.973 147.173C135.467 147.15 128.91 143.833 125.384 141.845L110.768 135.205C107.765 132.563 98.4374 130.151 94.5434 128.556C90.6494 126.96 85.8682 123.915 83.1728 123.245L79.0705 119.284C76.9116 118.616 68.3883 116.209 64.4943 114.613C60.6003 113.018 51.4617 106.667 44.1933 105.317C39.3652 105.293 34.614 101.066 32.018 100.002C29.422 98.9383 27.6651 96.9154 27.1111 96.037" stroke="white"/>
<path d="M139.81 165.518C135.307 165.348 128.837 163.791 125.377 161.689L113.406 154.009C108.582 153.828 98.8258 149.123 94.9859 147.402C91.1459 145.68 89.6829 142.602 87.0108 141.844L79.8232 137.631C75.7861 138.793 69.2468 134.21 65.4069 132.488C61.5669 130.766 52.6401 124.121 45.4195 122.535C40.5948 122.354 35.9837 117.974 33.4238 116.827C30.8638 115.679 29.1737 113.6 28.6486 112.704" stroke="white"/>
<path d="M150.097 134.926C156.551 131.71 171.953 123.867 174.804 121.504C178.367 118.55 203.453 102.104 215.185 96.9705C224.57 92.8635 239.435 82.9086 245.695 78.4445" stroke="white"/>
<path d="M150.039 129.695C156.339 126.532 169.634 119.625 172.416 117.3C175.894 114.395 200.378 98.2174 211.829 93.1687C220.99 89.1298 235.499 79.3374 241.608 74.9461" stroke="white"/>
<path d="M149.09 123.815C154.882 120.811 168.702 113.485 171.259 111.276C174.455 108.514 196.96 93.1424 207.488 88.3493C215.91 84.5149 229.245 75.2101 234.861 71.037" stroke="white"/>
<path d="M148.407 117.333C154.042 114.498 165.933 108.307 168.421 106.223C171.531 103.619 193.429 89.1185 203.67 84.593C211.863 80.9727 224.839 72.1954 230.303 68.2593" stroke="white"/>
<path d="M148.31 111.778C153.658 109.05 164.944 103.093 167.305 101.088C170.257 98.5808 191.04 84.6265 200.761 80.2732C208.538 76.7905 220.853 68.3436 226.039 64.5555" stroke="white"/>
<path d="M145.63 134.562C137.883 131.947 119.377 125.531 115.849 123.403C111.439 120.743 80.8852 106.504 66.8839 102.484C55.6829 99.2683 37.5535 90.6143 29.8889 86.6893" stroke="white"/>
<path d="M145.107 129.157C137.543 126.58 121.553 120.9 118.108 118.804C113.802 116.184 83.9662 102.157 70.2956 98.1945C59.3592 95.0245 41.656 86.4995 34.1715 82.6333" stroke="white"/>
<path d="M145.531 122.985C138.566 120.516 121.928 114.462 118.754 112.46C114.787 109.958 87.3064 96.5465 74.7209 92.7472C64.6525 89.7078 48.3465 81.5581 41.452 77.8631" stroke="white"/>
<path d="M145.066 116.87C138.2 114.512 125.674 109.494 122.546 107.577C118.637 105.182 91.5536 92.3556 79.1454 88.73C69.2188 85.8295 53.1486 78.0344 46.3543 74.4994" stroke="white"/>
<path d="M145.069 110.476C138.643 108.244 125.059 103.327 122.131 101.514C118.472 99.2485 93.1214 87.1119 81.5086 83.6786C72.2183 80.9319 57.1762 73.5564 50.8164 70.212" stroke="white"/>
<path d="M133.569 26.9478C131.413 26.078 128.358 29.4847 127.101 31.2968C125.843 31.8405 123.112 33.4713 122.249 35.6458C121.387 37.8203 118.296 38.7264 116.859 38.9076L120.093 43.2565C118.655 43.8002 115.565 45.3223 114.702 47.0619C113.624 49.2364 124.944 51.4109 127.101 51.9545C129.257 52.4981 129.551 61.7397 136.804 61.7397C143.811 61.7397 148.124 51.9545 157.287 49.78C162.963 48.4332 159.983 38.9076 157.287 38.9076C155.131 38.9076 151.358 35.6458 149.741 34.015C150.819 33.6525 152.544 32.6015 150.819 31.2968C149.094 29.9921 142.553 30.7532 139.499 31.2968C138.421 30.2096 135.725 27.8176 133.569 26.9478Z" fill="#A9BD7E"/>
<path d="M122.725 38.452C121.729 38.452 121.479 39.8219 121.479 40.5068L127.706 42.5616L128.329 38.9657C126.876 38.7945 123.721 38.452 122.725 38.452Z" fill="#8DA55B"/>
<path d="M143.442 45.9174C143.376 45.0614 141.933 44.9573 141.219 45.0123L139.492 50.5276L143.278 50.7739C143.36 49.5118 143.508 46.7735 143.442 45.9174Z" fill="#8DA55B"/>
<path d="M129.969 49.2623C130.786 48.9984 130.551 47.5707 130.331 46.8898L127.274 48.067L124.565 46.4968L125.209 50.2362C126.455 50.0215 129.152 49.5262 129.969 49.2623Z" fill="#8DA55B"/>
<path d="M135.763 52.8356C134.893 52.8356 134.132 55.8281 134.676 57.025L135.763 59.419C135.763 59.419 139.57 60.0174 140.114 59.419C140.658 58.8205 140.658 55.2296 140.658 55.2296C139.389 55.0301 136.633 52.8356 135.763 52.8356Z" fill="#8DA55B"/>
<path d="M151.65 41.1918C151.242 41.1918 149.781 43.4025 149.102 44.5078C148.932 46.1658 148.694 49.7029 149.102 50.5872C149.509 51.4715 152.669 49.1134 154.197 47.8238L155.726 44.5078C154.537 43.4025 152.057 41.1918 151.65 41.1918Z" fill="#8DA55B"/>
<path d="M132.385 29.4147C132.058 29.3082 130.377 30.4946 129.577 31.1012C129.445 33.661 129.037 33.5278 128.653 34.7039C128.425 35.4052 131.368 35.3004 132.891 34.7851L133.07 32.2408C132.373 31.146 132.711 29.5212 132.385 29.4147Z" fill="#8DA55B"/>
<path d="M136.548 36.6255C136.405 36.3211 135.949 35.7123 135.264 35.7123L133.123 37.5388L135.264 38.452L136.548 36.6255Z" fill="#8DA55B"/>
<path d="M133.417 42.5616L131.068 43.7358L133.417 46.6712L135.178 44.3229L133.417 42.5616Z" fill="#8DA55B"/>
<path d="M144.649 39.5597L143.211 41.4804L146.331 42.9186L146.81 40.2785L144.649 39.5597Z" fill="#8DA55B"/>
<path d="M148.59 33.2434L146.415 31.392L144.33 34.9818L147.483 35.7495L148.59 33.2434Z" fill="#8DA55B"/>
<path d="M120.405 47.2826L119.382 46.0785L116.591 47.0615L118.721 48.0435L120.405 47.2826Z" fill="#8DA55B"/>
<path d="M134.493 56.9452C134.493 55.5754 134.6 52.8356 135.026 52.8356C135.452 52.8356 138.045 54.0098 139.288 54.5969" stroke="white" stroke-linejoin="round"/>
<path d="M129.699 47.1604L127.301 48.1389L124.904 46.6712L125.384 50.0959" stroke="white" stroke-linejoin="round"/>
<path d="M119.425 45.9863L116 47.0137L118.74 48.0411" stroke="white" stroke-linejoin="round"/>
<path d="M126.959 39.0005C125.835 38.6482 122.351 38.2011 121.901 38.6239C121.451 39.0467 121.667 39.9783 121.479 40.5068" stroke="white" stroke-linejoin="round"/>
<path d="M136.548 36.7397C136.263 36.3972 135.606 35.7123 135.264 35.7123C134.921 35.7123 133.694 37.0821 133.123 37.7671" stroke="white" stroke-linejoin="round"/>
<path d="M132.438 28.863L129.327 30.7124C129.522 31.1233 129.62 32.2799 129.151 33.2662C128.681 34.2525 128.329 34.8219 128.329 35.0274" stroke="white" stroke-linejoin="round"/>
<path d="M133.808 42.5616L131.068 43.7358L133.808 46.6712" stroke="white" stroke-linejoin="round"/>
<path d="M143.397 45.6702L141.495 45.3014L139.973 50.0959" stroke="white" stroke-linejoin="round"/>
<path d="M146.822 40.3698L144.539 39.8219L143.397 41.1918" stroke="white" stroke-linejoin="round"/>
<path d="M148.877 33.3151L146.262 31.6027L144.082 35.0274" stroke="white" stroke-linejoin="round"/>
<path d="M155.726 44.2359C154.633 43.2212 152.354 41.1918 151.979 41.1918C151.605 41.1918 149.882 43.2212 149.257 44.2359L148.877 48.0411" stroke="white" stroke-linejoin="round"/>
<defs>
<filter id="filter0_d_39_234" x="0" y="0" width="264.774" height="224.142" filterUnits="userSpaceOnUse" color-interpolation-filters="sRGB">
<feFlood flood-opacity="0" result="BackgroundImageFix"/>
<feColorMatrix in="SourceAlpha" type="matrix" values="0 0 0 0 0 0 0 0 0 0 0 0 0 0 0 0 0 0 127 0" result="hardAlpha"/>
<feOffset dy="4"/>
<feGaussianBlur stdDeviation="2"/>
<feComposite in2="hardAlpha" operator="out"/>
<feColorMatrix type="matrix" values="0 0 0 0 0 0 0 0 0 0 0 0 0 0 0 0 0 0 0.25 0"/>
<feBlend mode="normal" in2="BackgroundImageFix" result="effect1_dropShadow_39_234"/>
<feBlend mode="normal" in="SourceGraphic" in2="effect1_dropShadow_39_234" result="shape"/>
</filter>
</defs>
</svg>
