<svg width="180" height="228" viewBox="0 0 180 228" fill="none" xmlns="http://www.w3.org/2000/svg">
<g filter="url(#filter0_d_39_284)">
<mask id="path-1-inside-1_39_284" fill="white">
<path d="M10.3899 173.071V101.611H169.08V173.071C169.08 173.071 172.276 220 88.6704 220C5.06502 220 10.3899 173.071 10.3899 173.071Z"/>
<path d="M169.08 101.611C169.08 109.268 133.557 115.476 89.7354 115.476C45.9143 115.476 10.3899 109.268 10.3899 101.611C10.3899 93.9529 45.9143 87.7451 89.7354 87.7451C133.557 87.7451 169.08 93.9529 169.08 101.611Z"/>
<path d="M106.733 100.532C106.82 101.707 101.183 103.081 94.1441 103.601C87.1047 104.121 81.3281 103.589 81.2416 102.414C81.1551 101.24 86.7915 99.8658 93.8308 99.3461C100.87 98.8264 106.647 99.3575 106.733 100.532Z"/>
<path d="M78.5792 66.2491L104.071 64.3671L106.733 100.532L81.2416 102.414L78.5792 66.2491Z"/>
<path d="M10.3899 173.071L10.3901 62.1474H169.08L169.08 173.071C169.08 173.071 172.276 220 88.6704 220C5.06502 220 10.3899 173.071 10.3899 173.071Z"/>
<path d="M175.471 62.1474C175.471 70.3941 137.086 77.0794 89.7354 77.0794C42.3851 77.0794 4 70.3941 4 62.1474C4 53.9006 42.3851 47.2154 89.7354 47.2154C137.086 47.2154 175.471 53.9006 175.471 62.1474Z"/>
<path d="M103.836 61.176C103.923 62.351 98.2861 63.7247 91.2468 64.2444C84.2075 64.7641 76.7094 64.3295 76.623 63.1546C76.5365 61.9797 83.8942 60.5094 90.9336 59.9897C97.9729 59.47 103.75 60.0011 103.836 61.176Z"/>
<path d="M72.5883 4.14845L99.3176 2.13113L101.565 30.3292L103.836 61.176L76.623 63.1546L72.5883 4.14845Z"/>
<path d="M99.3176 2.13113C99.4041 3.30604 93.7444 2.03099 86.7051 2.55069C79.6657 3.07039 72.6748 5.32336 72.5883 4.14845C72.5018 2.97353 78.6615 0.633533 85.7008 0.11383C92.7402 -0.405872 99.2311 0.956213 99.3176 2.13113Z"/>
</mask>
<path d="M10.3899 173.071V101.611H169.08V173.071C169.08 173.071 172.276 220 88.6704 220C5.06502 220 10.3899 173.071 10.3899 173.071Z" fill="white"/>
<path d="M169.08 101.611C169.08 109.268 133.557 115.476 89.7354 115.476C45.9143 115.476 10.3899 109.268 10.3899 101.611C10.3899 93.9529 45.9143 87.7451 89.7354 87.7451C133.557 87.7451 169.08 93.9529 169.08 101.611Z" fill="white"/>
<path d="M106.733 100.532C106.82 101.707 101.183 103.081 94.1441 103.601C87.1047 104.121 81.3281 103.589 81.2416 102.414C81.1551 101.24 86.7915 99.8658 93.8308 99.3461C100.87 98.8264 106.647 99.3575 106.733 100.532Z" fill="white"/>
<path d="M78.5792 66.2491L104.071 64.3671L106.733 100.532L81.2416 102.414L78.5792 66.2491Z" fill="white"/>
<path d="M10.3899 173.071L10.3901 62.1474H169.08L169.08 173.071C169.08 173.071 172.276 220 88.6704 220C5.06502 220 10.3899 173.071 10.3899 173.071Z" fill="white"/>
<path d="M175.471 62.1474C175.471 70.3941 137.086 77.0794 89.7354 77.0794C42.3851 77.0794 4 70.3941 4 62.1474C4 53.9006 42.3851 47.2154 89.7354 47.2154C137.086 47.2154 175.471 53.9006 175.471 62.1474Z" fill="white"/>
<path d="M103.836 61.176C103.923 62.351 98.2861 63.7247 91.2468 64.2444C84.2075 64.7641 76.7094 64.3295 76.623 63.1546C76.5365 61.9797 83.8942 60.5094 90.9336 59.9897C97.9729 59.47 103.75 60.0011 103.836 61.176Z" fill="white"/>
<path d="M72.5883 4.14845L99.3176 2.13113L101.565 30.3292L103.836 61.176L76.623 63.1546L72.5883 4.14845Z" fill="white"/>
<path d="M99.3176 2.13113C99.4041 3.30604 93.7444 2.03099 86.7051 2.55069C79.6657 3.07039 72.6748 5.32336 72.5883 4.14845C72.5018 2.97353 78.6615 0.633533 85.7008 0.11383C92.7402 -0.405872 99.2311 0.956213 99.3176 2.13113Z" fill="white"/>
<path d="M10.3899 173.071C9.89313 173.014 9.89306 173.015 9.89298 173.016C9.89292 173.016 9.89281 173.017 9.8927 173.018C9.89248 173.02 9.89219 173.023 9.89182 173.026C9.8911 173.033 9.89009 173.043 9.88885 173.055C9.88638 173.08 9.88297 173.116 9.87901 173.163C9.87107 173.257 9.86086 173.394 9.85128 173.571C9.83213 173.925 9.81547 174.441 9.82448 175.094C9.8425 176.401 9.96319 178.263 10.3725 180.494C11.1911 184.956 13.1653 190.901 17.7834 196.842C27.0319 208.741 46.7796 220.5 88.6704 220.5V219.5C46.9558 219.5 27.5633 207.795 18.5729 196.229C14.0715 190.437 12.1516 184.65 11.3561 180.313C10.9582 178.145 10.8417 176.34 10.8244 175.08C10.8157 174.451 10.8318 173.958 10.8498 173.625C10.8588 173.458 10.8683 173.332 10.8754 173.248C10.879 173.206 10.8819 173.174 10.884 173.154C10.885 173.144 10.8857 173.137 10.8862 173.132C10.8864 173.13 10.8866 173.128 10.8867 173.128C10.8868 173.127 10.8868 173.127 10.8868 173.127C10.8868 173.127 10.8868 173.127 10.3899 173.071ZM88.6704 220.5C130.563 220.5 150.835 208.74 160.613 196.853C165.497 190.917 167.74 184.976 168.761 180.515C169.271 178.285 169.476 176.424 169.553 175.117C169.592 174.463 169.599 173.948 169.596 173.594C169.594 173.416 169.59 173.28 169.587 173.186C169.585 173.139 169.583 173.103 169.582 173.078C169.581 173.065 169.58 173.056 169.58 173.049C169.58 173.045 169.58 173.043 169.579 173.041C169.579 173.04 169.579 173.039 169.579 173.038C169.579 173.037 169.579 173.037 169.08 173.071C168.581 173.105 168.581 173.105 168.581 173.104C168.581 173.105 168.581 173.105 168.581 173.105C168.582 173.106 168.582 173.108 168.582 173.11C168.582 173.114 168.582 173.122 168.583 173.132C168.584 173.152 168.586 173.183 168.587 173.225C168.591 173.309 168.594 173.436 168.596 173.602C168.599 173.935 168.592 174.428 168.555 175.058C168.481 176.317 168.282 178.123 167.786 180.292C166.793 184.63 164.609 190.422 159.841 196.218C150.317 207.796 130.383 219.5 88.6704 219.5V220.5ZM9.38994 173.071C9.38994 173.623 9.83766 174.071 10.3899 174.071C10.9422 174.071 11.3899 173.623 11.3899 173.071H9.38994ZM168.08 173.071C168.08 173.623 168.528 174.071 169.08 174.071C169.633 174.071 170.08 173.623 170.08 173.071H168.08ZM106.733 100.532L107.731 100.459L107.731 100.459L106.733 100.532ZM78.5792 66.2491L78.5056 65.2518L77.5085 65.3254L77.5819 66.3225L78.5792 66.2491ZM104.071 64.3671L105.068 64.2937L104.995 63.2962L103.997 63.3698L104.071 64.3671ZM10.3901 62.1474V61.1474C9.83779 61.1474 9.39008 61.5951 9.39008 62.1474L10.3901 62.1474ZM169.08 62.1474L170.08 62.1474C170.08 61.8821 169.975 61.6278 169.788 61.4403C169.6 61.2527 169.346 61.1474 169.08 61.1474V62.1474ZM103.836 61.176L104.833 61.1026L104.833 61.1026L103.836 61.176ZM91.2468 64.2444L91.3204 65.2417L91.2468 64.2444ZM101.565 30.3292L102.563 30.2557L102.562 30.2497L101.565 30.3292ZM9.38994 101.611V173.071H11.3899V101.611H9.38994ZM170.08 173.071V101.611H168.08V173.071H170.08ZM169.08 100.611H10.3899V102.611H169.08V100.611ZM168.08 101.611C168.08 102.151 167.769 102.833 166.819 103.644C165.876 104.45 164.426 105.273 162.463 106.083C158.547 107.701 152.82 109.18 145.669 110.43C131.382 112.926 111.607 114.476 89.7354 114.476V116.476C111.685 116.476 131.582 114.922 146.013 112.4C153.22 111.14 159.113 109.632 163.227 107.932C165.279 107.084 166.947 106.165 168.118 105.165C169.281 104.172 170.08 102.985 170.08 101.611H168.08ZM89.7354 114.476C67.8643 114.476 48.0882 112.926 33.8019 110.43C26.6506 109.18 20.9234 107.701 17.0072 106.083C15.0447 105.273 13.5944 104.45 12.6514 103.644C11.7008 102.833 11.3899 102.151 11.3899 101.611H9.38994C9.38994 102.985 10.1892 104.172 11.3526 105.165C12.5234 106.165 14.1908 107.084 16.2435 107.932C20.3575 109.632 26.2502 111.14 33.4576 112.4C47.8887 114.922 67.7854 116.476 89.7354 116.476V114.476ZM11.3899 101.611C11.3899 101.07 11.7008 100.388 12.6514 99.5766C13.5944 98.7713 15.0447 97.9485 17.0072 97.1377C20.9234 95.5197 26.6506 94.0409 33.8019 92.7913C48.0882 90.2948 67.8643 88.7451 89.7354 88.7451V86.7451C67.7854 86.7451 47.8887 88.2993 33.4576 90.8211C26.2502 92.0806 20.3575 93.5895 16.2435 95.2892C14.1908 96.1373 12.5234 97.0558 11.3526 98.0557C10.1892 99.0492 9.38994 100.236 9.38994 101.611H11.3899ZM89.7354 88.7451C111.607 88.7451 131.382 90.2948 145.669 92.7913C152.82 94.0409 158.547 95.5197 162.463 97.1377C164.426 97.9485 165.876 98.7713 166.819 99.5766C167.769 100.388 168.08 101.07 168.08 101.611H170.08C170.08 100.236 169.281 99.0492 168.118 98.0557C166.947 97.0558 165.279 96.1373 163.227 95.2892C159.113 93.5895 153.22 92.0806 146.013 90.8211C131.582 88.2993 111.685 86.7451 89.7354 86.7451V88.7451ZM105.736 100.606C105.715 100.318 105.883 100.193 105.819 100.254C105.766 100.304 105.63 100.403 105.358 100.534C104.825 100.791 103.987 101.07 102.874 101.341C100.664 101.879 97.5526 102.346 94.0704 102.604L94.2177 104.598C97.7749 104.335 101.001 103.856 103.348 103.284C104.513 103 105.508 102.682 106.227 102.335C106.582 102.164 106.927 101.959 107.193 101.707C107.448 101.465 107.773 101.041 107.731 100.459L105.736 100.606ZM94.0704 102.604C90.5883 102.861 87.442 102.856 85.1771 102.647C84.0365 102.542 83.167 102.39 82.6018 102.214C82.3141 102.124 82.1646 102.046 82.1055 102.005C82.0334 101.954 82.2177 102.053 82.2389 102.341L80.2443 102.488C80.2871 103.07 80.6709 103.442 80.9588 103.643C81.2596 103.854 81.6306 104.006 82.0066 104.123C82.7688 104.361 83.7996 104.529 84.994 104.639C87.3988 104.86 90.6605 104.861 94.2177 104.598L94.0704 102.604ZM82.2389 102.341C82.2601 102.629 82.0923 102.754 82.1563 102.693C82.2088 102.643 82.3454 102.544 82.6168 102.413C83.1501 102.156 83.988 101.877 85.1008 101.606C87.3107 101.067 90.4223 100.6 93.9045 100.343L93.7572 98.3488C90.2 98.6114 86.9737 99.0911 84.6272 99.663C83.4619 99.947 82.4669 100.265 81.7477 100.612C81.393 100.783 81.0484 100.988 80.7817 101.24C80.5265 101.482 80.2015 101.906 80.2443 102.488L82.2389 102.341ZM93.9045 100.343C97.3866 100.086 100.533 100.091 102.798 100.3C103.938 100.404 104.808 100.557 105.373 100.733C105.661 100.823 105.81 100.901 105.869 100.942C105.942 100.993 105.757 100.894 105.736 100.606L107.731 100.459C107.688 99.8772 107.304 99.505 107.016 99.3035C106.715 99.093 106.344 98.9409 105.968 98.8236C105.206 98.586 104.175 98.4178 102.981 98.308C100.576 98.0869 97.3144 98.0862 93.7572 98.3488L93.9045 100.343ZM78.6528 67.2464L104.145 65.3644L103.997 63.3698L78.5056 65.2518L78.6528 67.2464ZM103.074 64.4405L105.736 100.606L107.731 100.459L105.068 64.2937L103.074 64.4405ZM106.66 99.5352L81.168 101.417L81.3152 103.412L106.807 101.53L106.66 99.5352ZM82.2389 102.341L79.5765 66.1757L77.5819 66.3225L80.2443 102.488L82.2389 102.341ZM9.39008 62.1474L9.38994 173.071L11.3899 173.071L11.3901 62.1474L9.39008 62.1474ZM170.08 173.071L170.08 62.1474L168.08 62.1474L168.08 173.071L170.08 173.071ZM169.08 61.1474H10.3901V63.1474H169.08V61.1474ZM174.471 62.1474C174.471 62.76 174.117 63.5134 173.081 64.3952C172.053 65.2702 170.477 66.1602 168.353 67.0349C164.113 68.7807 157.918 70.3745 150.188 71.7207C134.745 74.4103 113.371 76.0794 89.7354 76.0794V78.0794C113.45 78.0794 134.944 76.4058 150.531 73.6911C158.317 72.3351 164.677 70.7113 169.114 68.8842C171.328 67.9725 173.121 66.9872 174.377 65.9182C175.625 64.8558 176.471 63.5964 176.471 62.1474H174.471ZM89.7354 76.0794C66.0995 76.0794 44.7258 74.4103 29.2829 71.7207C21.5533 70.3745 15.358 68.7807 11.1183 67.0349C8.99397 66.1602 7.41812 65.2702 6.38998 64.3952C5.35403 63.5134 5 62.76 5 62.1474H3C3 63.5964 3.84551 64.8558 5.0937 65.9182C6.3497 66.9872 8.14261 67.9725 10.3568 68.8842C14.7939 70.7113 21.1543 72.3351 28.9397 73.6911C44.527 76.4058 66.021 78.0794 89.7354 78.0794V76.0794ZM5 62.1474C5 61.5347 5.35403 60.7813 6.38998 59.8996C7.41812 59.0245 8.99397 58.1345 11.1183 57.2598C15.358 55.514 21.5533 53.9202 29.2829 52.574C44.7258 49.8844 66.0995 48.2154 89.7354 48.2154V46.2154C66.021 46.2154 44.527 47.8889 28.9397 50.6037C21.1543 51.9596 14.7939 53.5834 10.3568 55.4105C8.14261 56.3222 6.3497 57.3075 5.0937 58.3765C3.84551 59.4389 3 60.6983 3 62.1474H5ZM89.7354 48.2154C113.371 48.2154 134.745 49.8844 150.188 52.574C157.918 53.9202 164.113 55.514 168.353 57.2598C170.477 58.1345 172.053 59.0245 173.081 59.8996C174.117 60.7813 174.471 61.5347 174.471 62.1474H176.471C176.471 60.6983 175.625 59.4389 174.377 58.3765C173.121 57.3075 171.328 56.3222 169.114 55.4105C164.677 53.5834 158.317 51.9596 150.531 50.6037C134.944 47.8889 113.45 46.2154 89.7354 46.2154V48.2154ZM102.839 61.2495C102.818 60.9614 102.985 60.837 102.921 60.8976C102.869 60.9472 102.732 61.0464 102.461 61.1774C101.928 61.4347 101.09 61.7131 99.9768 61.9844C97.7669 62.523 94.6553 62.9901 91.1732 63.2471L91.3204 65.2417C94.8776 64.9791 98.1039 64.4994 100.45 63.9275C101.616 63.6435 102.611 63.3257 103.33 62.9787C103.685 62.8075 104.029 62.6026 104.296 62.3502C104.551 62.1088 104.876 61.6844 104.833 61.1026L102.839 61.2495ZM91.1732 63.2471C87.6928 63.5041 84.1067 63.5241 81.3963 63.3374C80.0344 63.2435 78.9331 63.0999 78.1877 62.9212C77.8077 62.8301 77.5786 62.7432 77.4647 62.6813C77.2861 62.5843 77.5906 62.6785 77.6203 63.0812L75.6256 63.228C75.6769 63.9244 76.2346 64.2892 76.5102 64.4388C76.8504 64.6236 77.2762 64.7593 77.7213 64.8661C78.6261 65.083 79.8555 65.2359 81.2588 65.3326C84.0789 65.527 87.7614 65.5045 91.3204 65.2417L91.1732 63.2471ZM77.6203 63.0812C77.6501 63.4865 77.3595 63.6252 77.521 63.5051C77.6238 63.4286 77.8372 63.3109 78.2 63.1675C78.9116 62.8864 79.9806 62.5898 81.3153 62.3043C83.9711 61.7362 87.5241 61.2441 91.0072 60.987L90.86 58.9924C87.3037 59.2549 83.6582 59.7579 80.8969 60.3486C79.523 60.6425 78.3288 60.9662 77.4651 61.3075C77.0404 61.4753 76.6381 61.6693 76.3276 61.9001C76.0758 62.0874 75.5742 62.529 75.6256 63.228L77.6203 63.0812ZM91.0072 60.987C94.4894 60.7299 97.6357 60.7349 99.9006 60.9432C101.041 61.048 101.911 61.2004 102.476 61.3766C102.764 61.4663 102.913 61.5444 102.972 61.5857C103.044 61.6362 102.86 61.5376 102.839 61.2495L104.833 61.1026C104.791 60.5208 104.407 60.1486 104.119 59.9471C103.818 59.7366 103.447 59.5844 103.071 59.4672C102.309 59.2296 101.278 59.0614 100.084 58.9516C97.6788 58.7304 94.4171 58.7298 90.86 58.9924L91.0072 60.987ZM72.6636 5.14561L99.3929 3.12829L99.2424 1.13396L72.5131 3.15128L72.6636 5.14561ZM103.764 60.1787L76.5504 62.1572L76.6955 64.152L103.909 62.1734L103.764 60.1787ZM77.6206 63.0864L73.586 4.08023L71.5907 4.21666L75.6253 63.2228L77.6206 63.0864ZM98.3203 2.20454C98.3101 2.06514 98.3453 1.89861 98.4462 1.75337C98.5346 1.62611 98.631 1.57611 98.6489 1.56736C98.6629 1.56047 98.5765 1.59821 98.288 1.62291C97.7393 1.6699 96.8925 1.64212 95.7303 1.58771C93.46 1.48141 90.2224 1.28828 86.6314 1.5534L86.7787 3.54797C90.227 3.29339 93.3389 3.47794 95.6368 3.58552C96.7586 3.63804 97.7505 3.67625 98.4586 3.61562C98.7985 3.58652 99.1951 3.52706 99.5296 3.36298C99.7077 3.27563 99.9237 3.13204 100.089 2.89413C100.267 2.63823 100.336 2.34397 100.315 2.05771L98.3203 2.20454ZM86.6314 1.5534C83.0459 1.81812 79.4765 2.52392 76.8599 3.00129C75.5278 3.24431 74.4829 3.42043 73.7712 3.46996C73.402 3.49566 73.219 3.47879 73.1586 3.46468C73.1308 3.45817 73.2147 3.47079 73.3228 3.56064C73.4612 3.67564 73.5699 3.86122 73.5856 4.07503L71.591 4.22186C71.6176 4.58254 71.791 4.88821 72.0448 5.09903C72.2683 5.2847 72.5181 5.36888 72.7035 5.4122C73.0694 5.49773 73.5017 5.49355 73.9101 5.46513C74.7535 5.40644 75.9125 5.20713 77.2189 4.96881C79.8791 4.48349 83.3249 3.80296 86.7787 3.54797L86.6314 1.5534ZM73.5856 4.07503C73.6074 4.37054 73.4353 4.47856 73.5524 4.35901C73.6375 4.27217 73.8129 4.13471 74.1135 3.9599C74.706 3.61533 75.6163 3.2219 76.7864 2.83485C79.1168 2.06404 82.3357 1.36499 85.7744 1.11112L85.6272 -0.883455C82.0266 -0.617629 78.6461 0.11317 76.1584 0.936023C74.9195 1.3458 73.8661 1.79014 73.108 2.23101C72.7333 2.44892 72.3867 2.69109 72.124 2.95913C71.8934 3.19447 71.5477 3.63263 71.591 4.22186L73.5856 4.07503ZM85.7744 1.11112C89.2153 0.857086 92.5175 1.06421 94.9508 1.47317C96.1727 1.67853 97.1382 1.92864 97.7803 2.1789C98.1061 2.3059 98.3013 2.41496 98.3989 2.48766C98.534 2.58834 98.3425 2.50539 98.3203 2.20454L100.315 2.05771C100.271 1.46314 99.8579 1.08061 99.5939 0.883948C99.2925 0.659297 98.9114 0.473246 98.5066 0.315447C97.6873 -0.00388692 96.5738 -0.282109 95.2823 -0.499172C92.6887 -0.935064 89.2257 -1.14913 85.6272 -0.883455L85.7744 1.11112ZM98.3208 2.21058L100.568 30.4086L102.562 30.2497L100.314 2.05167L98.3208 2.21058ZM100.568 30.4026L102.839 61.2495L104.833 61.1026L102.562 30.2557L100.568 30.4026Z" fill="white" mask="url(#path-1-inside-1_39_284)"/>
<path d="M14.0862 167.55L14.0862 99.9704H164.375V167.55C164.375 167.55 167.402 211.931 88.2224 211.931C9.04322 211.931 14.0862 167.55 14.0862 167.55Z" fill="#C9A48E"/>
<path d="M163.876 99.9704C163.876 100.667 163.472 101.424 162.525 102.233C161.581 103.038 160.159 103.837 158.28 104.612C154.527 106.161 149.066 107.566 142.28 108.75C128.718 111.116 109.962 112.583 89.2311 112.583C68.5002 112.583 49.7442 111.116 36.1818 108.75C29.3966 107.566 23.9356 106.161 20.1825 104.612C18.3037 103.837 16.8817 103.038 15.9376 102.233C14.9898 101.424 14.5865 100.667 14.5865 99.9704C14.5865 99.2739 14.9898 98.5165 15.9376 97.7082C16.8817 96.9032 18.3037 96.1037 20.1825 95.3286C23.9356 93.7803 29.3966 92.375 36.1818 91.191C49.7442 88.8244 68.5002 87.3579 89.2311 87.3579C109.962 87.3579 128.718 88.8244 142.28 91.191C149.066 92.375 154.527 93.7803 158.28 95.3286C160.159 96.1037 161.581 96.9032 162.525 97.7082C163.472 98.5165 163.876 99.2739 163.876 99.9704Z" fill="#BE9883" stroke="white"/>
<circle cx="67.0408" cy="197.305" r="7.56489" fill="#503628"/>
<circle cx="107.387" cy="198.314" r="7.56489" fill="#503628"/>
<circle cx="41.8245" cy="191.253" r="7.56489" fill="#503628"/>
<circle cx="141.681" cy="188.227" r="7.56489" fill="#503628"/>
<circle cx="118.482" cy="177.132" r="7.56489" fill="#503628"/>
<circle cx="88.2224" cy="186.21" r="7.56489" fill="#503628"/>
<circle cx="57.9629" cy="173.098" r="7.56489" fill="#503628"/>
<circle cx="26.6947" cy="175.115" r="7.56489" fill="#503628"/>
<circle cx="152.776" cy="171.08" r="7.56489" fill="#503628"/>
<circle cx="95.283" cy="165.028" r="7.56489" fill="#503628"/>
<circle cx="38.7985" cy="157.968" r="7.56489" fill="#503628"/>
<circle cx="137.646" cy="158.977" r="7.56489" fill="#503628"/>
<path d="M104.837 98.9327C104.837 98.9327 104.837 98.9337 104.836 98.9357C104.836 98.9337 104.837 98.9327 104.837 98.9327ZM104.768 98.9733C104.776 98.9794 104.784 98.9852 104.791 98.9905C104.785 98.9968 104.778 99.0036 104.77 99.011C104.673 99.1032 104.497 99.2206 104.221 99.3534C103.675 99.6168 102.846 99.8889 101.78 100.148C99.6567 100.665 96.6842 101.11 93.3696 101.354C90.055 101.598 87.0494 101.595 84.8731 101.395C83.7809 101.294 82.9213 101.147 82.3419 100.966C82.0497 100.875 81.8585 100.785 81.7485 100.708C81.7397 100.702 81.7319 100.696 81.7249 100.691C81.731 100.685 81.7379 100.678 81.7457 100.671C81.8433 100.578 82.0191 100.461 82.2948 100.328C82.8415 100.065 83.6702 99.7926 84.7358 99.5332C86.8593 99.0164 89.8319 98.5719 93.1465 98.3276C96.4611 98.0832 99.4666 98.087 101.643 98.2868C102.735 98.3871 103.595 98.5347 104.174 98.7151C104.466 98.8061 104.658 98.8964 104.768 98.9733ZM81.671 100.641C81.671 100.64 81.6718 100.641 81.6728 100.643C81.6714 100.641 81.6709 100.641 81.671 100.641ZM81.679 100.749C81.6789 100.749 81.6792 100.748 81.6804 100.746C81.6796 100.748 81.679 100.749 81.679 100.749ZM104.843 99.0382C104.845 99.0401 104.845 99.041 104.845 99.041C104.845 99.041 104.844 99.0401 104.843 99.0382Z" fill="#C68494" stroke="white"/>
<mask id="path-18-inside-2_39_284" fill="white">
<path d="M78.6655 66.5292L102.808 64.7494L105.329 98.9508L81.1869 100.731L78.6655 66.5292Z"/>
</mask>
<path d="M78.6655 66.5292L102.808 64.7494L105.329 98.9508L81.1869 100.731L78.6655 66.5292Z" fill="#C68494"/>
<path d="M78.6655 66.5292L78.592 65.5319L77.5947 65.6055L77.6682 66.6028L78.6655 66.5292ZM102.808 64.7494L103.805 64.6759L103.731 63.6786L102.734 63.7521L102.808 64.7494ZM78.739 67.5265L102.881 65.7467L102.734 63.7521L78.592 65.5319L78.739 67.5265ZM101.81 64.823L104.332 99.0243L106.326 98.8773L103.805 64.6759L101.81 64.823ZM82.1842 100.657L79.6628 66.4557L77.6682 66.6028L80.1896 100.804L82.1842 100.657Z" fill="white" mask="url(#path-18-inside-2_39_284)"/>
<path d="M14.0864 167.55V62.6503H164.376V167.55C164.376 167.55 167.402 211.931 88.2224 211.931C9.04322 211.931 14.0864 167.55 14.0864 167.55Z" fill="#757575" fill-opacity="0.06" stroke="white" stroke-width="2" stroke-linejoin="round"/>
<path d="M169.428 62.6502C169.428 63.2063 169.106 63.905 168.13 64.7342C167.163 65.5566 165.676 66.3957 163.666 67.222C159.656 68.8708 153.793 70.3773 146.474 71.6502C131.853 74.1931 111.614 75.7714 89.2311 75.7714C66.8485 75.7714 46.6095 74.1931 31.9879 71.6502C24.6689 70.3773 18.8059 68.8708 14.7957 67.222C12.7862 66.3957 11.2995 65.5566 10.3318 64.7342C9.35622 63.905 9.03461 63.2063 9.03461 62.6502C9.03461 62.0942 9.35622 61.3955 10.3318 60.5663C11.2995 59.7439 12.7862 58.9048 14.7957 58.0785C18.8059 56.4297 24.6689 54.9232 31.9879 53.6503C46.6095 51.1074 66.8485 49.5291 89.2311 49.5291C111.614 49.5291 131.853 51.1074 146.474 53.6503C153.793 54.9232 159.656 56.4297 163.666 58.0785C165.676 58.9048 167.163 59.7439 168.13 60.5663C169.106 61.3955 169.428 62.0942 169.428 62.6502Z" fill="#E9BAC5" stroke="white" stroke-width="2"/>
<path d="M102.093 61.7135C102.093 61.7135 102.093 61.7145 102.092 61.7165C102.093 61.7145 102.093 61.7135 102.093 61.7135ZM102.024 61.7541C102.032 61.7603 102.04 61.766 102.047 61.7713C102.041 61.7776 102.034 61.7844 102.026 61.7918C101.929 61.884 101.753 62.0014 101.477 62.1343C100.931 62.3976 100.102 62.6697 99.0363 62.9291C96.9128 63.4459 93.9403 63.8904 90.6257 64.1348C87.3111 64.3791 84.3055 64.3753 82.1292 64.1755C81.037 64.0752 80.1774 63.9276 79.598 63.7472C79.3058 63.6563 79.1146 63.5659 79.0046 63.489C78.9958 63.4829 78.988 63.4771 78.981 63.4718C78.9871 63.4655 78.994 63.4587 79.0018 63.4514C79.0994 63.3592 79.2752 63.2417 79.5509 63.1089C80.0976 62.8455 80.9263 62.5734 81.992 62.3141C84.1154 61.7972 87.088 61.3527 90.4026 61.1084C93.7172 60.864 96.7227 60.8678 98.8991 61.0676C99.9913 61.1679 100.851 61.3156 101.43 61.4959C101.722 61.5869 101.914 61.6773 102.024 61.7541ZM78.9271 63.4213C78.9272 63.4213 78.9279 63.4223 78.9289 63.4242C78.9275 63.4223 78.927 63.4213 78.9271 63.4213ZM78.9351 63.5297C78.935 63.5297 78.9354 63.5287 78.9365 63.5266C78.9357 63.5286 78.9351 63.5297 78.9351 63.5297ZM102.099 61.819C102.101 61.8209 102.101 61.8218 102.101 61.8218C102.101 61.8218 102.1 61.8209 102.099 61.819Z" fill="#C68494" stroke="white"/>
<mask id="path-23-inside-3_39_284" fill="white">
<path d="M74.1418 5.16797L98.284 3.38816L102.585 61.7316L78.443 63.5115L74.1418 5.16797Z"/>
</mask>
<path d="M74.1418 5.16797L98.284 3.38816L102.585 61.7316L78.443 63.5115L74.1418 5.16797Z" fill="#C68494"/>
<path d="M74.1418 5.16797L74.0683 4.17068L73.071 4.2442L73.1446 5.24149L74.1418 5.16797ZM98.284 3.38816L99.2813 3.31464L99.2077 2.31735L98.2105 2.39087L98.284 3.38816ZM74.2154 6.16526L98.3575 4.38546L98.2105 2.39087L74.0683 4.17068L74.2154 6.16526ZM97.2867 3.46168L101.588 61.8052L103.582 61.6581L99.2813 3.31464L97.2867 3.46168ZM79.4403 63.4379L75.1391 5.09445L73.1446 5.24149L77.4458 63.585L79.4403 63.4379Z" fill="white" mask="url(#path-23-inside-3_39_284)"/>
<path d="M97.7919 3.37003C97.792 3.37003 97.7916 3.37103 97.7905 3.37305C97.7913 3.37105 97.7918 3.37004 97.7919 3.37003ZM97.7224 3.4107C97.7312 3.41682 97.739 3.42256 97.746 3.42789C97.7398 3.43418 97.7329 3.441 97.7252 3.44835C97.6276 3.54054 97.4518 3.65797 97.176 3.79081C96.6294 4.05417 95.8007 4.32628 94.735 4.58564C92.6115 5.10246 89.639 5.54697 86.3244 5.79133C83.0098 6.03569 80.0042 6.03189 77.8279 5.83207C76.7357 5.73179 75.8761 5.58414 75.2967 5.4038C75.0045 5.31283 74.8134 5.22245 74.7033 5.14556C74.6946 5.13944 74.6867 5.1337 74.6797 5.12838C74.6859 5.12208 74.6928 5.11526 74.7005 5.10791C74.7981 5.01572 74.9739 4.89829 75.2497 4.76545C75.7963 4.50209 76.625 4.22998 77.6907 3.97062C79.8142 3.4538 82.7867 3.00929 86.1013 2.76493C89.4159 2.52057 92.4215 2.52437 94.5978 2.72419C95.69 2.82447 96.5496 2.97212 97.129 3.15246C97.4212 3.24343 97.6124 3.33381 97.7224 3.4107ZM74.6258 5.07788C74.6259 5.07788 74.6266 5.07881 74.6276 5.08071C74.6262 5.07884 74.6257 5.07789 74.6258 5.07788ZM74.6338 5.18623C74.6337 5.18623 74.6341 5.18522 74.6352 5.18316C74.6344 5.1852 74.6339 5.18622 74.6338 5.18623ZM97.7981 3.47559C97.7995 3.47743 97.8 3.47837 97.7999 3.47838C97.7998 3.47838 97.7991 3.47746 97.7981 3.47559Z" fill="#8F6C74" stroke="white"/>
</g>
<defs>
<filter id="filter0_d_39_284" x="0" y="0" width="179.471" height="228" filterUnits="userSpaceOnUse" color-interpolation-filters="sRGB">
<feFlood flood-opacity="0" result="BackgroundImageFix"/>
<feColorMatrix in="SourceAlpha" type="matrix" values="0 0 0 0 0 0 0 0 0 0 0 0 0 0 0 0 0 0 127 0" result="hardAlpha"/>
<feOffset dy="4"/>
<feGaussianBlur stdDeviation="2"/>
<feComposite in2="hardAlpha" operator="out"/>
<feColorMatrix type="matrix" values="0 0 0 0 0 0 0 0 0 0 0 0 0 0 0 0 0 0 0.25 0"/>
<feBlend mode="normal" in2="BackgroundImageFix" result="effect1_dropShadow_39_284"/>
<feBlend mode="normal" in="SourceGraphic" in2="effect1_dropShadow_39_284" result="shape"/>
</filter>
</defs>
</svg>
