<svg width="325" height="226" viewBox="0 0 325 226" fill="none" xmlns="http://www.w3.org/2000/svg">
<g filter="url(#filter0_d_40_30)">
<path d="M6.79773 67.0769C8.47635 62.6051 7.49715 55.8974 6.79773 53.1026L314.727 51.9878C316.942 51.9798 318.742 53.773 318.742 55.9878V76.859L317.343 79.6538C317.809 83.6132 319.022 92.65 320.141 97.1218C321.156 101.18 319.56 110.917 318.385 116.513C318.173 117.523 318.339 118.577 318.871 119.462L319.193 119.998C319.794 121 319.92 122.212 319.599 123.336C318.729 126.377 317.822 130.68 318.742 132.058C319.741 133.555 319.328 145.183 318.896 152.633C318.808 154.155 317.851 155.481 316.442 156.065C307.984 159.567 294.014 165.466 291.464 166.994C288.667 168.67 278.641 172.35 273.979 173.981C270.715 174.912 263.767 176.915 262.088 177.474C260.41 178.033 258.125 179.57 257.192 180.269L231.314 190.75C228.516 191.915 222.361 194.244 220.123 194.244C217.885 194.244 202.404 202.162 194.943 206.122L166.966 218C161.138 214.739 149.061 208.358 147.382 208.917C145.704 209.476 121.504 200.299 109.613 195.641C104.717 194.476 94.5058 191.588 92.8272 189.353C91.1485 187.117 66.4821 178.173 54.3587 173.981L48.0639 172.583C39.6708 168.857 22.6047 161.124 21.4857 160.006C20.5707 159.092 14.2948 157.182 9.61475 155.879C7.93902 155.412 6.73561 153.937 6.64409 152.2L5.39887 128.564C4.93258 124.605 4 115.987 4 113.192C4 110.785 6.07486 104.06 7.54434 99.7107C7.94768 98.5169 7.78478 97.2035 7.0853 96.1553L6.03147 94.5761C5.61797 93.9565 5.38488 93.2386 5.36474 92.4939C5.16548 85.1237 5.20503 71.3198 6.79773 67.0769Z" fill="white"/>
<path d="M17.9885 58.6923C15.1908 58.1333 9.36229 54.7329 6.79773 53.1026C15.6571 50.5406 34.2152 44.8577 37.5725 42.6218C40.9297 40.3859 60.4204 35.6346 69.7461 33.5385L70.3528 32.0233C70.8479 30.7866 71.9243 29.8732 73.2333 29.6262C76.8078 28.9516 81.9001 28.1893 83.7346 28.6474C86.5323 29.3462 101.92 22.359 107.515 19.5641C111.991 17.3282 120.571 15.3718 124.301 14.6731L124.924 13.7406C125.426 12.9872 126.167 12.4266 127.031 12.1564C133.27 10.206 144.442 6.98718 148.082 6.98718C151.71 6.98718 160.821 2.98981 165.849 0.549603C166.581 0.194733 167.397 0.0615186 168.202 0.176362L170.543 0.510458C171.4 0.632663 172.193 1.02915 172.805 1.64048L173.961 2.79487C181.654 4.89103 197.321 9.50256 198.441 11.1795C199.522 12.7993 210.261 14.9842 216.034 15.9707C216.427 16.0378 216.806 16.1604 217.162 16.34C220.113 17.8307 225.366 20.6095 226.418 21.6603C227.537 22.7782 241.805 26.3184 248.799 27.9487L253.275 28.5076C254.007 28.599 254.697 28.8937 255.291 29.3315C256.803 30.4456 259.385 32.1883 262.088 33.5385C266.285 35.6346 297.06 44.0192 301.256 44.7179C303.546 45.0991 310.872 49.1431 316.633 52.4895C319.384 54.0877 318.985 57.5907 315.865 58.215C310.074 59.3741 303.105 60.3788 301.256 61.4872C298.459 63.1641 287.035 66.3782 281.672 67.7756C280.04 68.7073 276.077 70.9897 273.279 72.6667C269.782 74.7628 255.794 77.5577 255.094 77.5577C254.535 77.5577 250.198 82.2158 248.1 84.5449H241.805C237.142 86.641 227.816 91.1128 227.816 92.2308C227.816 93.3487 215.227 95.9573 208.932 97.1218L204.036 101.314C197.508 103.177 183.613 107.183 180.255 108.301C176.898 109.419 169.997 113.891 166.966 115.987C163.935 114.59 157.454 111.515 155.776 110.397C154.097 109.279 146.217 108.534 142.486 108.301L135.492 103.41C129.43 101.314 117.167 96.8423 116.608 95.7243C115.908 94.3269 90.7289 87.3397 89.33 88.0385C88.2109 88.5974 78.1392 82.6816 73.2432 79.6538C67.6478 76.859 55.3379 70.9897 50.8616 69.8718C46.3852 68.7538 38.7382 67.0769 35.4742 66.3782L33.3759 63.5833C29.4125 62.1859 20.7862 59.2513 17.9885 58.6923Z" fill="white"/>
</g>
<path d="M17.7516 70.4649C19.3104 66.308 18.4011 60.0727 17.7516 57.4746H307.434V79.5581L306.135 82.1561C306.568 85.8367 307.694 94.2371 308.734 98.394C309.773 102.551 307.867 113.116 306.785 117.879L308.734 121.127C307.867 123.725 306.395 129.311 307.434 130.87C308.474 132.428 307.867 145.808 307.434 152.304C300.073 155.335 284.702 161.786 282.103 163.345C279.505 164.904 270.196 168.325 265.866 169.84C262.835 170.706 256.383 172.568 254.824 173.088C253.265 173.608 251.143 175.037 250.277 175.686L226.245 185.429C223.647 186.511 217.932 188.676 215.853 188.676C213.775 188.676 199.399 196.037 192.471 199.718L166.49 210.76C161.077 207.729 149.863 201.796 148.304 202.316C146.745 202.836 124.272 194.305 113.23 189.975C108.683 188.893 99.2005 186.208 97.6417 184.13C96.0829 182.051 73.1767 173.738 61.9185 169.84L56.0728 168.541C48.2787 165.077 32.4306 157.889 31.3913 156.85C30.3521 155.811 21.8651 153.386 17.7516 152.304L16.4525 127.622C16.0195 123.941 15.1535 115.931 15.1535 113.333C15.1535 110.735 17.7516 102.724 19.0506 99.0435L16.4525 95.1464C16.236 88.6513 16.1927 74.6218 17.7516 70.4649Z" fill="#482A19" stroke="white" stroke-width="2"/>
<path d="M166.49 210.76C165.841 205.347 164.671 194.002 165.191 191.924C165.711 189.845 167.14 175.037 167.789 167.892L166.49 160.098C166.923 154.469 167.789 142.301 167.789 138.664C167.789 135.026 166.057 129.787 165.191 127.622L166.49 115.931" stroke="white"/>
<path d="M28.1438 62.6707C25.5457 62.1511 20.1331 58.9901 17.7516 57.4746C25.9788 55.093 43.2125 49.8103 46.3302 47.7319C49.4478 45.6534 67.5476 41.2368 76.2078 39.2882L77.5068 36.0406C80.5379 35.3911 87.1196 34.222 89.1981 34.7416C91.7961 35.3911 106.085 28.896 111.282 26.2979C115.438 24.2195 123.406 22.4009 126.87 21.7514L128.169 19.8028C133.581 18.0708 145.316 14.6067 148.953 14.6067C152.591 14.6067 162.16 10.2766 166.49 8.11157L171.037 8.76109L172.985 10.7096C180.13 12.6582 194.679 16.945 195.718 18.5038C196.757 20.0626 207.409 22.1844 212.606 23.0504C215.204 24.3494 220.66 27.2073 221.699 28.2465C222.738 29.2857 235.988 32.5766 242.483 34.0921L247.679 34.7416C248.762 35.6076 251.706 37.7294 254.824 39.2882C258.721 41.2368 287.3 49.0309 291.197 49.6804C294.314 50.2 302.888 55.093 306.785 57.4746C302.671 59.4231 293.795 63.7099 291.197 65.2687C288.599 66.8276 277.99 69.8153 273.01 71.1144C271.495 71.9804 267.814 74.1021 265.216 75.661C261.969 77.6095 248.978 80.2076 248.329 80.2076C247.809 80.2076 243.782 84.5376 241.834 86.7027H235.988C231.658 88.6512 222.998 92.8081 222.998 93.8473C222.998 94.8866 211.307 97.3114 205.461 98.3939L200.914 102.291C194.852 104.023 181.949 107.747 178.831 108.786C175.713 109.825 169.305 113.982 166.49 115.931C163.676 114.632 157.657 111.774 156.098 110.735C154.539 109.695 147.221 109.003 143.757 108.786L137.262 104.24C131.633 102.291 120.245 98.1341 119.725 97.0949C119.076 95.7959 95.6932 89.3007 94.3942 89.9503C93.3549 90.4699 84.002 84.9707 79.4554 82.1561C74.2593 79.558 62.8278 74.1021 58.6709 73.0629C54.514 72.0237 47.4127 70.4649 44.3816 69.8153L42.4331 67.2173C38.7525 65.9183 30.7419 63.1903 28.1438 62.6707Z" fill="#66422E" stroke="white" stroke-width="2"/>
<path d="M185.326 46.5601C182.208 48.1189 167.789 55.0038 167.789 57.6018C167.789 60.1998 188.574 52.9742 195.718 55.6533C202.863 58.3324 188.444 45.0013 185.326 46.5601Z" fill="#79513A"/>
<path d="M104.786 52.2785C101.539 50.33 90.4971 52.9281 88.5485 54.2271C92.6621 58.1241 101.279 65.9182 102.838 65.9182C104.786 65.9182 108.034 54.2271 104.786 52.2785Z" fill="#79513A"/>
<path d="M161.294 91.8989C158.696 91.8989 145.056 86.0532 145.706 82.8057C159.129 82.8057 185.976 83.1954 185.976 84.7542C185.976 86.7027 163.892 91.8989 161.294 91.8989Z" fill="#79513A"/>
<path d="M161.944 28.8959C161.944 26.9474 153.5 24.3493 150.902 24.9988C149.386 28.4629 146.745 35.521 148.304 36.0406C150.252 36.6901 161.944 30.8444 161.944 28.8959Z" fill="#79513A"/>
<path d="M272.361 62.6707C271.711 63.9698 259.37 63.3202 255.473 66.5678C253.092 64.1863 248.718 59.1634 250.277 58.1241C252.226 56.8251 273.01 61.3717 272.361 62.6707Z" fill="#79513A"/>
<path d="M135.963 63.9697C133.798 64.4027 128.559 65.0089 124.921 63.9697C126.004 66.5678 128.688 71.8938 130.767 72.4134C132.845 72.933 135.097 67.0008 135.963 63.9697Z" fill="#79513A"/>
<path d="M59.3204 56.1754C58.6709 54.8764 52.8253 53.5773 50.2272 54.2268C48.7117 55.9589 45.9404 59.8127 46.9796 61.3716C48.2787 63.3201 59.9699 57.4744 59.3204 56.1754Z" fill="#79513A"/>
<path d="M229.757 41.6458C228.456 41.001 223.009 43.4891 221.328 45.5736C221.163 47.8692 221.276 52.6147 223.045 53.2318C225.256 54.0031 231.059 42.2906 229.757 41.6458Z" fill="#79513A"/>
<defs>
<filter id="filter0_d_40_30" x="0" y="0.136108" width="324.464" height="225.864" filterUnits="userSpaceOnUse" color-interpolation-filters="sRGB">
<feFlood flood-opacity="0" result="BackgroundImageFix"/>
<feColorMatrix in="SourceAlpha" type="matrix" values="0 0 0 0 0 0 0 0 0 0 0 0 0 0 0 0 0 0 127 0" result="hardAlpha"/>
<feOffset dy="4"/>
<feGaussianBlur stdDeviation="2"/>
<feComposite in2="hardAlpha" operator="out"/>
<feColorMatrix type="matrix" values="0 0 0 0 0 0 0 0 0 0 0 0 0 0 0 0 0 0 0.25 0"/>
<feBlend mode="normal" in2="BackgroundImageFix" result="effect1_dropShadow_40_30"/>
<feBlend mode="normal" in="SourceGraphic" in2="effect1_dropShadow_40_30" result="shape"/>
</filter>
</defs>
</svg>
