<svg width="452" height="236" viewBox="0 0 452 236" fill="none" xmlns="http://www.w3.org/2000/svg">
<g filter="url(#filter0_d_45_114)">
<path d="M399.027 13.4542C399.033 13.4847 399.036 13.5156 399.036 13.5467L399.036 18.2181C399.036 18.5388 399.333 18.7766 399.646 18.7057L402.215 18.1238C402.539 18.0502 402.844 18.3085 402.824 18.6409L402.628 21.9672C402.608 22.2996 402.913 22.5579 403.238 22.4843L405.768 21.9111C406.093 21.8375 406.397 22.0958 406.377 22.4282L406.177 25.8276C406.159 26.1366 406.423 26.3878 406.731 26.3541L410.053 25.9898C410.371 25.9549 410.64 26.2243 410.604 26.5426L410.133 30.738C410.097 31.0564 410.366 31.3258 410.684 31.2908L413.897 30.9386C414.239 30.9011 414.515 31.2118 414.439 31.547L413.793 34.3716C413.711 34.7305 414.032 35.052 414.391 34.9706L416.758 34.4344C417.094 34.3584 417.404 34.636 417.365 34.9779L416.897 39.1467C416.863 39.4479 417.103 39.7098 417.406 39.7024L421.427 39.6052C421.753 39.5973 421.999 39.8985 421.926 40.2164L421.247 43.1889C421.17 43.524 421.447 43.8347 421.789 43.7973L425.001 43.445C425.32 43.4101 425.589 43.6795 425.553 43.9979L425.075 48.2446C425.041 48.5458 425.281 48.8077 425.584 48.8003L429.468 48.7064C429.833 48.6976 430.084 49.069 429.94 49.4038L428.588 52.5463C428.432 52.909 428.738 53.3009 429.128 53.2374L432.916 52.6193C433.302 52.5562 433.608 52.9419 433.458 53.3038L432.008 56.812C431.873 57.1374 432.108 57.4962 432.46 57.503L437.134 57.5935C437.512 57.6009 437.746 58.0102 437.559 58.3398L435.96 61.1635C435.773 61.4931 436.007 61.9024 436.385 61.9098L440.85 61.9962C441.251 62.004 441.48 62.4565 441.249 62.7842L439.823 64.8079C439.615 65.1025 439.778 65.5134 440.131 65.5858L446.777 66.948C446.82 66.9568 446.858 66.9792 446.887 67.0119V67.0119C446.997 67.1363 446.919 67.3324 446.754 67.3449C440.472 67.8204 430.592 68.9876 424.401 72.9375C420.982 75.1181 418.576 77.804 415.989 80.692C412.591 84.4841 408.882 88.6248 402.159 92.4281C390.316 99.1279 68.1363 216.088 58.9999 215.911C55.2147 215.837 47.0413 218.395 41.9999 221.136C37.6568 223.497 32.9532 225.786 29.3907 226.3C28.9365 226.365 28.7157 225.833 29.0544 225.523L31.2181 223.544C31.4988 223.288 31.4013 222.824 31.0409 222.702L27.1479 221.385C26.8034 221.268 26.6946 220.834 26.9433 220.569L29.7688 217.555C30.0401 217.265 29.8823 216.79 29.4918 216.72L25.6815 216.041C25.3325 215.979 25.1574 215.583 25.3458 215.283L27.7047 211.525C27.9114 211.195 27.6796 210.767 27.2909 210.759L24.4681 210.704C24.0604 210.696 23.8331 210.23 24.078 209.904L26.2092 207.067C26.433 206.769 26.264 206.34 25.8972 206.274L21.9798 205.575C21.6309 205.513 21.4557 205.118 21.6442 204.817L24.003 201.059C24.2097 200.73 23.978 200.301 23.5892 200.294L20.5632 200.235C20.2003 200.228 19.9656 199.849 20.1211 199.521L22.0022 195.555C22.1263 195.293 22.0026 194.981 21.7328 194.875L18.1186 193.458C17.8353 193.347 17.716 193.011 17.8659 192.747L19.6811 189.541C19.8447 189.252 19.6864 188.887 19.3637 188.808L16.7189 188.168C16.4107 188.093 16.2489 187.754 16.3848 187.468L18.334 183.358C18.4582 183.096 18.3345 182.784 18.0647 182.678L14.5072 181.284C14.2052 181.165 14.0941 180.795 14.281 180.53L15.8991 178.234C16.1024 177.946 15.951 177.543 15.6081 177.46L13.0802 176.848C12.7575 176.77 12.5992 176.404 12.7628 176.115L14.578 172.91C14.7279 172.645 14.6087 172.309 14.3254 172.198L10.7488 170.796C10.4655 170.685 10.3462 170.349 10.4961 170.084L12.3713 166.772C12.5149 166.519 12.4119 166.196 12.1478 166.073L9.30959 164.748C9.02748 164.616 8.93312 164.261 9.11248 164.006L10.8331 161.565C11.0124 161.311 10.9181 160.956 10.6359 160.824L7.84905 159.522C7.56694 159.391 7.47257 159.036 7.65194 158.781L9.42971 156.259C9.58835 156.034 9.53511 155.723 9.31063 155.563L6.12362 153.298C5.74265 153.028 5.90583 152.413 6.36817 152.345C15.2604 151.033 24.9657 143.819 31.7828 136.29C34.1174 133.712 40.1371 126.139 43.1951 122.813C44.0251 121.91 45.0496 121.306 46.2062 120.898C153.733 83.007 369.788 15.3797 376 15.5C377.092 15.5212 383.877 17.5915 384.865 17.6161C392.722 16.6006 395.085 12.7839 397.331 9.09118C397.567 8.70214 398.153 8.81054 398.237 9.258L399.027 13.4542Z" fill="white"/>
<path d="M399.027 13.4542C399.033 13.4847 399.036 13.5156 399.036 13.5467L399.036 18.2181C399.036 18.5388 399.333 18.7766 399.646 18.7057L402.215 18.1238C402.539 18.0502 402.844 18.3085 402.824 18.6409L402.628 21.9672C402.608 22.2996 402.913 22.5579 403.238 22.4843L405.768 21.9111C406.093 21.8375 406.397 22.0958 406.377 22.4282L406.177 25.8276C406.159 26.1366 406.423 26.3878 406.731 26.3541L410.053 25.9898C410.371 25.9549 410.64 26.2243 410.604 26.5426L410.133 30.738C410.097 31.0564 410.366 31.3258 410.684 31.2908L413.897 30.9386C414.239 30.9011 414.515 31.2118 414.439 31.547L413.793 34.3716C413.711 34.7305 414.032 35.052 414.391 34.9706L416.758 34.4344C417.094 34.3584 417.404 34.636 417.365 34.9779L416.897 39.1467C416.863 39.4479 417.103 39.7098 417.406 39.7024L421.427 39.6052C421.753 39.5973 421.999 39.8985 421.926 40.2164L421.247 43.1889C421.17 43.524 421.447 43.8347 421.789 43.7973L425.001 43.445C425.32 43.4101 425.589 43.6795 425.553 43.9979L425.075 48.2446C425.041 48.5458 425.281 48.8077 425.584 48.8003L429.468 48.7064C429.833 48.6976 430.084 49.069 429.94 49.4038L428.588 52.5463C428.432 52.909 428.738 53.3009 429.128 53.2374L432.916 52.6193C433.302 52.5562 433.608 52.9419 433.458 53.3038L432.008 56.812C431.873 57.1374 432.108 57.4962 432.46 57.503L437.134 57.5935C437.512 57.6009 437.746 58.0102 437.559 58.3398L435.96 61.1635C435.773 61.4931 436.007 61.9024 436.385 61.9098L440.85 61.9962C441.251 62.004 441.48 62.4565 441.249 62.7842L439.823 64.8079C439.615 65.1025 439.778 65.5134 440.131 65.5858L446.777 66.948C446.82 66.9568 446.858 66.9792 446.887 67.0119V67.0119C446.997 67.1363 446.919 67.3324 446.754 67.3449C440.472 67.8204 430.592 68.9876 424.401 72.9375C420.982 75.1181 418.576 77.804 415.989 80.692C412.591 84.4841 408.882 88.6248 402.159 92.4281C390.316 99.1279 68.1363 216.088 58.9999 215.911C55.2147 215.837 47.0413 218.395 41.9999 221.136C37.6568 223.497 32.9532 225.786 29.3907 226.3C28.9365 226.365 28.7157 225.833 29.0544 225.523L31.2181 223.544C31.4988 223.288 31.4013 222.824 31.0409 222.702L27.1479 221.385C26.8034 221.268 26.6946 220.834 26.9433 220.569L29.7688 217.555C30.0401 217.265 29.8823 216.79 29.4918 216.72L25.6815 216.041C25.3325 215.979 25.1574 215.583 25.3458 215.283L27.7047 211.525C27.9114 211.195 27.6796 210.767 27.2909 210.759L24.4681 210.704C24.0604 210.696 23.8331 210.23 24.078 209.904L26.2092 207.067C26.433 206.769 26.264 206.34 25.8972 206.274L21.9798 205.575C21.6309 205.513 21.4557 205.118 21.6442 204.817L24.003 201.059C24.2097 200.73 23.978 200.301 23.5892 200.294L20.5632 200.235C20.2003 200.228 19.9656 199.849 20.1211 199.521L22.0022 195.555C22.1263 195.293 22.0026 194.981 21.7328 194.875L18.1186 193.458C17.8353 193.347 17.716 193.011 17.8659 192.747L19.6811 189.541C19.8447 189.252 19.6864 188.887 19.3637 188.808L16.7189 188.168C16.4107 188.093 16.2489 187.754 16.3848 187.468L18.334 183.358C18.4582 183.096 18.3345 182.784 18.0647 182.678L14.5072 181.284C14.2052 181.165 14.0941 180.795 14.281 180.53L15.8991 178.234C16.1024 177.946 15.951 177.543 15.6081 177.46L13.0802 176.848C12.7575 176.77 12.5992 176.404 12.7628 176.115L14.578 172.91C14.7279 172.645 14.6087 172.309 14.3254 172.198L10.7488 170.796C10.4655 170.685 10.3462 170.349 10.4961 170.084L12.3713 166.772C12.5149 166.519 12.4119 166.196 12.1478 166.073L9.30959 164.748C9.02748 164.616 8.93312 164.261 9.11248 164.006L10.8331 161.565C11.0124 161.311 10.9181 160.956 10.6359 160.824L7.84905 159.522C7.56694 159.391 7.47257 159.036 7.65194 158.781L9.42971 156.259C9.58835 156.034 9.53511 155.723 9.31063 155.563L6.12362 153.298C5.74265 153.028 5.90583 152.413 6.36817 152.345C15.2604 151.033 24.9657 143.819 31.7828 136.29C34.1174 133.712 40.1371 126.139 43.1951 122.813C44.0251 121.91 45.0496 121.306 46.2062 120.898C153.733 83.007 369.788 15.3797 376 15.5C377.092 15.5212 383.877 17.5915 384.865 17.6161C392.722 16.6006 395.085 12.7839 397.331 9.09118C397.567 8.70214 398.153 8.81054 398.237 9.258L399.027 13.4542Z" stroke="white" stroke-width="2"/>
</g>
<path fill-rule="evenodd" clip-rule="evenodd" d="M392.431 16.9886L391.628 21.6481L395.308 20.7864L395.13 25.052L398.81 24.1903L398.632 28.456L402.998 27.9208L402.999 27.9207L402.999 27.9212L402.51 32.909L406.877 32.3737L406.012 36.3129L409.692 35.4512L409.204 40.4394L414.258 40.2306L413.393 44.1698L417.76 43.6346L417.271 48.6228L422.326 48.414L420.463 52.7493L425.828 51.818L423.919 56.4447H429.952L427.69 60.4091H433.722L431.46 63.5806L438.692 64.8481L439 65.1664C432.968 65.695 423.165 66.9107 417.133 70.7166C413.873 72.7733 411.599 75.2746 409.155 77.9643C405.945 81.4959 402.44 85.3521 396.02 88.9529C384.709 95.2959 72.3122 207.885 63.4864 207.885C59.8298 207.885 54.9912 210.495 50.1743 213.094C45.4965 215.618 40.8391 218.13 37.3046 218.23L40.865 215.021L35.5867 213.435L39.3569 209.471L34.0786 208.678L37.0948 203.921H32.5705L35.5867 199.956L30.3084 199.164L33.3246 194.406H28.8003L31.0625 189.649L26.5382 188.063L28.8003 184.099L25.0301 183.306L27.2922 178.549L22.768 176.963L25.0301 173.791L21.2599 172.998L23.522 169.034L18.9978 167.448L21.2599 163.484L17.4897 161.898L19.7518 158.727L15.9816 157.141L18.2437 153.969L15 153.117C23.9208 152.289 32.4118 143.046 39.1861 135.671L39.1862 135.671C41.7813 132.846 44.1245 130.295 46.1434 128.597C148.693 92.1244 368.874 20.765 374.906 20.765C375.961 20.765 376.966 20.7702 377.921 20.7752C386.525 20.8204 391.118 20.8446 392.249 16.8005L392.431 16.9886Z" fill="#CE552E"/>
<path d="M80.5597 182.125L400.757 64.3075" stroke="white"/>
<path d="M53.0056 131.767L74.8588 177.374" stroke="white"/>
<path d="M61.5568 199.227L37.8033 147.92" stroke="white"/>
<path d="M373.203 26.3019L407.408 59.5568" stroke="white"/>
<path d="M76.7592 184.025L72.9586 199.227" stroke="white"/>
<path d="M404.557 66.2078L401.707 80.4599" stroke="white"/>
<mask id="path-9-outside-1_45_114" maskUnits="userSpaceOnUse" x="117.102" y="43.9223" width="220.587" height="106.29" fill="black">
<rect fill="white" x="117.102" y="43.9223" width="220.587" height="106.29"/>
<path d="M138.618 116.749L137.119 118.668C136.41 118.16 135.492 117.808 134.366 117.613C133.24 117.418 132.148 117.508 131.092 117.883C129.86 118.321 128.825 119.035 127.988 120.026C127.169 120.977 126.562 122.15 126.165 123.546C125.798 124.932 125.67 126.48 125.782 128.191C125.894 129.902 126.283 131.697 126.949 133.574C127.562 135.207 128.381 136.584 129.407 137.707C130.462 138.819 131.611 139.683 132.854 140.299C134.086 140.885 135.348 141.23 136.64 141.333C137.932 141.436 139.135 141.29 140.25 140.895C141.717 140.374 142.922 139.583 143.867 138.521C144.801 137.43 145.477 135.984 145.895 134.184L148.561 136.112C147.803 138.164 146.792 139.828 145.526 141.103C144.261 142.378 142.778 143.317 141.076 143.921C139.521 144.473 137.885 144.657 136.169 144.474C134.452 144.29 132.797 143.771 131.206 142.915C129.603 142.03 128.132 140.818 126.793 139.278C125.473 137.699 124.422 135.809 123.642 133.608C123.048 131.936 122.669 130.171 122.506 128.313C122.342 126.456 122.47 124.676 122.89 122.974C123.34 121.262 124.132 119.726 125.268 118.365C126.422 116.964 128.012 115.904 130.036 115.186C131.562 114.645 133.094 114.448 134.633 114.595C136.172 114.743 137.5 115.461 138.618 116.749Z"/>
<path d="M163.231 117.131L159.014 105.249L161.566 104.343L171.53 132.42L169.594 133.107L164.784 119.553L151.758 124.175L156.568 137.73L152.959 139.01L143.027 111.022L147.163 109.554L151.349 121.348L163.231 117.131Z"/>
<path d="M188.406 109.881C187.621 108.508 186.779 107.254 185.881 106.12C184.983 104.985 184.045 104.063 183.066 103.353C182.106 102.603 181.117 102.096 180.098 101.83C179.078 101.564 178.055 101.613 177.029 101.977C175.884 102.384 175 103.011 174.377 103.86C173.743 104.68 173.303 105.628 173.058 106.706C172.842 107.774 172.8 108.912 172.932 110.121C173.063 111.329 173.338 112.52 173.754 113.694C174.243 115.072 174.916 116.502 175.771 117.982C176.627 119.462 177.602 120.768 178.697 121.899C179.782 123 180.95 123.825 182.201 124.371C183.482 124.908 184.767 124.947 186.058 124.489C187.32 124.041 188.292 123.383 188.974 122.513C189.646 121.614 190.084 120.616 190.29 119.519C190.514 118.382 190.54 117.2 190.369 115.973C190.198 114.745 189.914 113.574 189.519 112.459C189.362 112.019 189.192 111.584 189.006 111.155C188.81 110.696 188.61 110.271 188.406 109.881ZM191.185 108.499C191.41 108.947 191.621 109.401 191.817 109.86C192.002 110.29 192.178 110.739 192.345 111.209C192.897 112.763 193.258 114.386 193.428 116.076C193.588 117.737 193.506 119.319 193.18 120.822C192.855 122.325 192.24 123.666 191.338 124.845C190.435 126.024 189.191 126.895 187.607 127.457C186.169 127.968 184.66 128.09 183.08 127.825C181.489 127.531 179.935 126.877 178.419 125.862C176.922 124.808 175.517 123.407 174.203 121.66C172.919 119.903 171.839 117.792 170.965 115.328C170.392 113.714 170.026 112.077 169.866 110.416C169.706 108.755 169.808 107.183 170.173 105.699C170.539 104.215 171.193 102.892 172.135 101.732C173.078 100.572 174.37 99.7001 176.013 99.117C177.686 98.5236 179.289 98.4336 180.823 98.8471C182.347 99.2313 183.763 99.9178 185.072 100.907C186.381 101.896 187.561 103.079 188.611 104.457C189.651 105.806 190.509 107.153 191.185 108.499Z"/>
<path d="M208.677 91.8856L207.178 93.805C206.469 93.2968 205.551 92.9452 204.425 92.7503C203.299 92.5554 202.208 92.6454 201.151 93.0202C199.919 93.4575 198.884 94.1716 198.047 95.1625C197.228 96.1137 196.621 97.2872 196.224 98.6832C195.857 100.069 195.729 101.617 195.841 103.328C195.953 105.039 196.342 106.834 197.008 108.711C197.621 110.344 198.44 111.721 199.466 112.844C200.521 113.956 201.67 114.82 202.913 115.436C204.145 116.022 205.407 116.367 206.699 116.47C207.991 116.573 209.194 116.427 210.309 116.032C211.776 115.511 212.981 114.72 213.926 113.658C214.86 112.567 215.536 111.121 215.954 109.321L218.62 111.249C217.862 113.301 216.851 114.965 215.585 116.24C214.32 117.515 212.837 118.454 211.135 119.058C209.58 119.61 207.944 119.794 206.228 119.611C204.511 119.427 202.857 118.907 201.265 118.052C199.662 117.167 198.192 115.955 196.852 114.415C195.532 112.836 194.481 110.946 193.701 108.745C193.107 107.073 192.728 105.308 192.565 103.45C192.401 101.593 192.529 99.8129 192.949 98.1112C193.399 96.3992 194.191 94.8627 195.327 93.5017C196.481 92.101 198.071 91.0414 200.095 90.323C201.621 89.7816 203.153 89.5847 204.692 89.7323C206.231 89.8798 207.559 90.5976 208.677 91.8856Z"/>
<path d="M234.261 93.6079C233.476 92.2347 232.635 90.9808 231.737 89.8461C230.838 88.7114 229.9 87.7892 228.921 87.0794C227.962 86.3299 226.972 85.8222 225.953 85.5563C224.934 85.2904 223.911 85.3397 222.884 85.7041C221.74 86.1101 220.856 86.7376 220.232 87.5866C219.598 88.4062 219.158 89.355 218.913 90.4329C218.698 91.5005 218.656 92.6385 218.787 93.8471C218.919 95.0556 219.193 96.2467 219.609 97.4202C220.099 98.7991 220.771 100.229 221.627 101.709C222.482 103.189 223.458 104.494 224.553 105.625C225.637 106.727 226.805 107.551 228.056 108.098C229.337 108.635 230.623 108.674 231.913 108.216C233.175 107.768 234.147 107.109 234.829 106.24C235.501 105.34 235.94 104.342 236.145 103.246C236.369 102.109 236.396 100.927 236.224 99.6993C236.053 98.4719 235.769 97.3007 235.374 96.1859C235.218 95.7458 235.047 95.3109 234.861 94.8813C234.665 94.4223 234.465 93.9978 234.261 93.6079ZM237.04 92.2251C237.266 92.6737 237.476 93.1275 237.672 93.5865C237.858 94.0161 238.034 94.4657 238.2 94.9351C238.752 96.49 239.113 98.1126 239.284 99.8028C239.444 101.464 239.361 103.046 239.035 104.549C238.71 106.051 238.096 107.393 237.193 108.572C236.29 109.751 235.047 110.622 233.462 111.184C232.025 111.694 230.516 111.817 228.935 111.552C227.344 111.258 225.791 110.603 224.275 109.589C222.777 108.535 221.372 107.134 220.058 105.387C218.774 103.63 217.694 101.519 216.82 99.0543C216.247 97.4407 215.881 95.8034 215.721 94.1425C215.561 92.4816 215.663 90.9091 216.029 89.4251C216.394 87.9412 217.048 86.619 217.99 85.4587C218.933 84.2984 220.226 83.4267 221.869 82.8436C223.541 82.2502 225.144 82.1602 226.678 82.5737C228.202 82.9579 229.618 83.6444 230.927 84.6333C232.236 85.6223 233.416 86.8057 234.466 88.1836C235.507 89.5322 236.365 90.8794 237.04 92.2251Z"/>
<path d="M245.737 103.607L236.523 77.643L239.603 76.5498L248.443 101.458L264.285 95.8354L265.41 99.0039L248.247 105.095L245.737 103.607Z"/>
<path d="M269.571 81.9685L276.349 79.5634L269.034 70.961L269.571 81.9685ZM270.557 97.8709L267.315 98.2287L266.198 66.319L268.134 65.6318L289.029 90.721L286.494 92.5126L278.109 82.0108L269.836 84.9468L270.557 97.8709Z"/>
<path d="M292.102 61.6843L282.509 65.0889L281.603 62.5365L303.871 54.6341L304.652 56.8344L294.706 60.364L306.078 84.8686L303.355 86.1322L292.102 61.6843Z"/>
<path d="M334.966 71.049L336.06 74.1295L319.337 80.0641L317.003 78.514L308.757 55.2784L309.611 52.1013L323.782 47.0724L324.687 49.6248L311.837 54.1851L315.336 64.0427L329.066 59.17L329.909 61.5464L316.003 66.4815L319.564 76.5151L334.966 71.049Z"/>
</mask>
<path d="M138.618 116.749L137.119 118.668C136.41 118.16 135.492 117.808 134.366 117.613C133.24 117.418 132.148 117.508 131.092 117.883C129.86 118.321 128.825 119.035 127.988 120.026C127.169 120.977 126.562 122.15 126.165 123.546C125.798 124.932 125.67 126.48 125.782 128.191C125.894 129.902 126.283 131.697 126.949 133.574C127.562 135.207 128.381 136.584 129.407 137.707C130.462 138.819 131.611 139.683 132.854 140.299C134.086 140.885 135.348 141.23 136.64 141.333C137.932 141.436 139.135 141.29 140.25 140.895C141.717 140.374 142.922 139.583 143.867 138.521C144.801 137.43 145.477 135.984 145.895 134.184L148.561 136.112C147.803 138.164 146.792 139.828 145.526 141.103C144.261 142.378 142.778 143.317 141.076 143.921C139.521 144.473 137.885 144.657 136.169 144.474C134.452 144.29 132.797 143.771 131.206 142.915C129.603 142.03 128.132 140.818 126.793 139.278C125.473 137.699 124.422 135.809 123.642 133.608C123.048 131.936 122.669 130.171 122.506 128.313C122.342 126.456 122.47 124.676 122.89 122.974C123.34 121.262 124.132 119.726 125.268 118.365C126.422 116.964 128.012 115.904 130.036 115.186C131.562 114.645 133.094 114.448 134.633 114.595C136.172 114.743 137.5 115.461 138.618 116.749Z" fill="#A83C3C"/>
<path d="M163.231 117.131L159.014 105.249L161.566 104.343L171.53 132.42L169.594 133.107L164.784 119.553L151.758 124.175L156.568 137.73L152.959 139.01L143.027 111.022L147.163 109.554L151.349 121.348L163.231 117.131Z" fill="#A83C3C"/>
<path d="M188.406 109.881C187.621 108.508 186.779 107.254 185.881 106.12C184.983 104.985 184.045 104.063 183.066 103.353C182.106 102.603 181.117 102.096 180.098 101.83C179.078 101.564 178.055 101.613 177.029 101.977C175.884 102.384 175 103.011 174.377 103.86C173.743 104.68 173.303 105.628 173.058 106.706C172.842 107.774 172.8 108.912 172.932 110.121C173.063 111.329 173.338 112.52 173.754 113.694C174.243 115.072 174.916 116.502 175.771 117.982C176.627 119.462 177.602 120.768 178.697 121.899C179.782 123 180.95 123.825 182.201 124.371C183.482 124.908 184.767 124.947 186.058 124.489C187.32 124.041 188.292 123.383 188.974 122.513C189.646 121.614 190.084 120.616 190.29 119.519C190.514 118.382 190.54 117.2 190.369 115.973C190.198 114.745 189.914 113.574 189.519 112.459C189.362 112.019 189.192 111.584 189.006 111.155C188.81 110.696 188.61 110.271 188.406 109.881ZM191.185 108.499C191.41 108.947 191.621 109.401 191.817 109.86C192.002 110.29 192.178 110.739 192.345 111.209C192.897 112.763 193.258 114.386 193.428 116.076C193.588 117.737 193.506 119.319 193.18 120.822C192.855 122.325 192.24 123.666 191.338 124.845C190.435 126.024 189.191 126.895 187.607 127.457C186.169 127.968 184.66 128.09 183.08 127.825C181.489 127.531 179.935 126.877 178.419 125.862C176.922 124.808 175.517 123.407 174.203 121.66C172.919 119.903 171.839 117.792 170.965 115.328C170.392 113.714 170.026 112.077 169.866 110.416C169.706 108.755 169.808 107.183 170.173 105.699C170.539 104.215 171.193 102.892 172.135 101.732C173.078 100.572 174.37 99.7001 176.013 99.117C177.686 98.5236 179.289 98.4336 180.823 98.8471C182.347 99.2313 183.763 99.9178 185.072 100.907C186.381 101.896 187.561 103.079 188.611 104.457C189.651 105.806 190.509 107.153 191.185 108.499Z" fill="#A83C3C"/>
<path d="M208.677 91.8856L207.178 93.805C206.469 93.2968 205.551 92.9452 204.425 92.7503C203.299 92.5554 202.208 92.6454 201.151 93.0202C199.919 93.4575 198.884 94.1716 198.047 95.1625C197.228 96.1137 196.621 97.2872 196.224 98.6832C195.857 100.069 195.729 101.617 195.841 103.328C195.953 105.039 196.342 106.834 197.008 108.711C197.621 110.344 198.44 111.721 199.466 112.844C200.521 113.956 201.67 114.82 202.913 115.436C204.145 116.022 205.407 116.367 206.699 116.47C207.991 116.573 209.194 116.427 210.309 116.032C211.776 115.511 212.981 114.72 213.926 113.658C214.86 112.567 215.536 111.121 215.954 109.321L218.62 111.249C217.862 113.301 216.851 114.965 215.585 116.24C214.32 117.515 212.837 118.454 211.135 119.058C209.58 119.61 207.944 119.794 206.228 119.611C204.511 119.427 202.857 118.907 201.265 118.052C199.662 117.167 198.192 115.955 196.852 114.415C195.532 112.836 194.481 110.946 193.701 108.745C193.107 107.073 192.728 105.308 192.565 103.45C192.401 101.593 192.529 99.8129 192.949 98.1112C193.399 96.3992 194.191 94.8627 195.327 93.5017C196.481 92.101 198.071 91.0414 200.095 90.323C201.621 89.7816 203.153 89.5847 204.692 89.7323C206.231 89.8798 207.559 90.5976 208.677 91.8856Z" fill="#A83C3C"/>
<path d="M234.261 93.6079C233.476 92.2347 232.635 90.9808 231.737 89.8461C230.838 88.7114 229.9 87.7892 228.921 87.0794C227.962 86.3299 226.972 85.8222 225.953 85.5563C224.934 85.2904 223.911 85.3397 222.884 85.7041C221.74 86.1101 220.856 86.7376 220.232 87.5866C219.598 88.4062 219.158 89.355 218.913 90.4329C218.698 91.5005 218.656 92.6385 218.787 93.8471C218.919 95.0556 219.193 96.2467 219.609 97.4202C220.099 98.7991 220.771 100.229 221.627 101.709C222.482 103.189 223.458 104.494 224.553 105.625C225.637 106.727 226.805 107.551 228.056 108.098C229.337 108.635 230.623 108.674 231.913 108.216C233.175 107.768 234.147 107.109 234.829 106.24C235.501 105.34 235.94 104.342 236.145 103.246C236.369 102.109 236.396 100.927 236.224 99.6993C236.053 98.4719 235.769 97.3007 235.374 96.1859C235.218 95.7458 235.047 95.3109 234.861 94.8813C234.665 94.4223 234.465 93.9978 234.261 93.6079ZM237.04 92.2251C237.266 92.6737 237.476 93.1275 237.672 93.5865C237.858 94.0161 238.034 94.4657 238.2 94.9351C238.752 96.49 239.113 98.1126 239.284 99.8028C239.444 101.464 239.361 103.046 239.035 104.549C238.71 106.051 238.096 107.393 237.193 108.572C236.29 109.751 235.047 110.622 233.462 111.184C232.025 111.694 230.516 111.817 228.935 111.552C227.344 111.258 225.791 110.603 224.275 109.589C222.777 108.535 221.372 107.134 220.058 105.387C218.774 103.63 217.694 101.519 216.82 99.0543C216.247 97.4407 215.881 95.8034 215.721 94.1425C215.561 92.4816 215.663 90.9091 216.029 89.4251C216.394 87.9412 217.048 86.619 217.99 85.4587C218.933 84.2984 220.226 83.4267 221.869 82.8436C223.541 82.2502 225.144 82.1602 226.678 82.5737C228.202 82.9579 229.618 83.6444 230.927 84.6333C232.236 85.6223 233.416 86.8057 234.466 88.1836C235.507 89.5322 236.365 90.8794 237.04 92.2251Z" fill="#A83C3C"/>
<path d="M245.737 103.607L236.523 77.643L239.603 76.5498L248.443 101.458L264.285 95.8354L265.41 99.0039L248.247 105.095L245.737 103.607Z" fill="#A83C3C"/>
<path d="M269.571 81.9685L276.349 79.5634L269.034 70.961L269.571 81.9685ZM270.557 97.8709L267.315 98.2287L266.198 66.319L268.134 65.6318L289.029 90.721L286.494 92.5126L278.109 82.0108L269.836 84.9468L270.557 97.8709Z" fill="#A83C3C"/>
<path d="M292.102 61.6843L282.509 65.0889L281.603 62.5365L303.871 54.6341L304.652 56.8344L294.706 60.364L306.078 84.8686L303.355 86.1322L292.102 61.6843Z" fill="#A83C3C"/>
<path d="M334.966 71.049L336.06 74.1295L319.337 80.0641L317.003 78.514L308.757 55.2784L309.611 52.1013L323.782 47.0724L324.687 49.6248L311.837 54.1851L315.336 64.0427L329.066 59.17L329.909 61.5464L316.003 66.4815L319.564 76.5151L334.966 71.049Z" fill="#A83C3C"/>
<path d="M138.618 116.749L137.119 118.668C136.41 118.16 135.492 117.808 134.366 117.613C133.24 117.418 132.148 117.508 131.092 117.883C129.86 118.321 128.825 119.035 127.988 120.026C127.169 120.977 126.562 122.15 126.165 123.546C125.798 124.932 125.67 126.48 125.782 128.191C125.894 129.902 126.283 131.697 126.949 133.574C127.562 135.207 128.381 136.584 129.407 137.707C130.462 138.819 131.611 139.683 132.854 140.299C134.086 140.885 135.348 141.23 136.64 141.333C137.932 141.436 139.135 141.29 140.25 140.895C141.717 140.374 142.922 139.583 143.867 138.521C144.801 137.43 145.477 135.984 145.895 134.184L148.561 136.112C147.803 138.164 146.792 139.828 145.526 141.103C144.261 142.378 142.778 143.317 141.076 143.921C139.521 144.473 137.885 144.657 136.169 144.474C134.452 144.29 132.797 143.771 131.206 142.915C129.603 142.03 128.132 140.818 126.793 139.278C125.473 137.699 124.422 135.809 123.642 133.608C123.048 131.936 122.669 130.171 122.506 128.313C122.342 126.456 122.47 124.676 122.89 122.974C123.34 121.262 124.132 119.726 125.268 118.365C126.422 116.964 128.012 115.904 130.036 115.186C131.562 114.645 133.094 114.448 134.633 114.595C136.172 114.743 137.5 115.461 138.618 116.749Z" stroke="white" mask="url(#path-9-outside-1_45_114)"/>
<path d="M163.231 117.131L159.014 105.249L161.566 104.343L171.53 132.42L169.594 133.107L164.784 119.553L151.758 124.175L156.568 137.73L152.959 139.01L143.027 111.022L147.163 109.554L151.349 121.348L163.231 117.131Z" stroke="white" mask="url(#path-9-outside-1_45_114)"/>
<path d="M188.406 109.881C187.621 108.508 186.779 107.254 185.881 106.12C184.983 104.985 184.045 104.063 183.066 103.353C182.106 102.603 181.117 102.096 180.098 101.83C179.078 101.564 178.055 101.613 177.029 101.977C175.884 102.384 175 103.011 174.377 103.86C173.743 104.68 173.303 105.628 173.058 106.706C172.842 107.774 172.8 108.912 172.932 110.121C173.063 111.329 173.338 112.52 173.754 113.694C174.243 115.072 174.916 116.502 175.771 117.982C176.627 119.462 177.602 120.768 178.697 121.899C179.782 123 180.95 123.825 182.201 124.371C183.482 124.908 184.767 124.947 186.058 124.489C187.32 124.041 188.292 123.383 188.974 122.513C189.646 121.614 190.084 120.616 190.29 119.519C190.514 118.382 190.54 117.2 190.369 115.973C190.198 114.745 189.914 113.574 189.519 112.459C189.362 112.019 189.192 111.584 189.006 111.155C188.81 110.696 188.61 110.271 188.406 109.881ZM191.185 108.499C191.41 108.947 191.621 109.401 191.817 109.86C192.002 110.29 192.178 110.739 192.345 111.209C192.897 112.763 193.258 114.386 193.428 116.076C193.588 117.737 193.506 119.319 193.18 120.822C192.855 122.325 192.24 123.666 191.338 124.845C190.435 126.024 189.191 126.895 187.607 127.457C186.169 127.968 184.66 128.09 183.08 127.825C181.489 127.531 179.935 126.877 178.419 125.862C176.922 124.808 175.517 123.407 174.203 121.66C172.919 119.903 171.839 117.792 170.965 115.328C170.392 113.714 170.026 112.077 169.866 110.416C169.706 108.755 169.808 107.183 170.173 105.699C170.539 104.215 171.193 102.892 172.135 101.732C173.078 100.572 174.37 99.7001 176.013 99.117C177.686 98.5236 179.289 98.4336 180.823 98.8471C182.347 99.2313 183.763 99.9178 185.072 100.907C186.381 101.896 187.561 103.079 188.611 104.457C189.651 105.806 190.509 107.153 191.185 108.499Z" stroke="white" mask="url(#path-9-outside-1_45_114)"/>
<path d="M208.677 91.8856L207.178 93.805C206.469 93.2968 205.551 92.9452 204.425 92.7503C203.299 92.5554 202.208 92.6454 201.151 93.0202C199.919 93.4575 198.884 94.1716 198.047 95.1625C197.228 96.1137 196.621 97.2872 196.224 98.6832C195.857 100.069 195.729 101.617 195.841 103.328C195.953 105.039 196.342 106.834 197.008 108.711C197.621 110.344 198.44 111.721 199.466 112.844C200.521 113.956 201.67 114.82 202.913 115.436C204.145 116.022 205.407 116.367 206.699 116.47C207.991 116.573 209.194 116.427 210.309 116.032C211.776 115.511 212.981 114.72 213.926 113.658C214.86 112.567 215.536 111.121 215.954 109.321L218.62 111.249C217.862 113.301 216.851 114.965 215.585 116.24C214.32 117.515 212.837 118.454 211.135 119.058C209.58 119.61 207.944 119.794 206.228 119.611C204.511 119.427 202.857 118.907 201.265 118.052C199.662 117.167 198.192 115.955 196.852 114.415C195.532 112.836 194.481 110.946 193.701 108.745C193.107 107.073 192.728 105.308 192.565 103.45C192.401 101.593 192.529 99.8129 192.949 98.1112C193.399 96.3992 194.191 94.8627 195.327 93.5017C196.481 92.101 198.071 91.0414 200.095 90.323C201.621 89.7816 203.153 89.5847 204.692 89.7323C206.231 89.8798 207.559 90.5976 208.677 91.8856Z" stroke="white" mask="url(#path-9-outside-1_45_114)"/>
<path d="M234.261 93.6079C233.476 92.2347 232.635 90.9808 231.737 89.8461C230.838 88.7114 229.9 87.7892 228.921 87.0794C227.962 86.3299 226.972 85.8222 225.953 85.5563C224.934 85.2904 223.911 85.3397 222.884 85.7041C221.74 86.1101 220.856 86.7376 220.232 87.5866C219.598 88.4062 219.158 89.355 218.913 90.4329C218.698 91.5005 218.656 92.6385 218.787 93.8471C218.919 95.0556 219.193 96.2467 219.609 97.4202C220.099 98.7991 220.771 100.229 221.627 101.709C222.482 103.189 223.458 104.494 224.553 105.625C225.637 106.727 226.805 107.551 228.056 108.098C229.337 108.635 230.623 108.674 231.913 108.216C233.175 107.768 234.147 107.109 234.829 106.24C235.501 105.34 235.94 104.342 236.145 103.246C236.369 102.109 236.396 100.927 236.224 99.6993C236.053 98.4719 235.769 97.3007 235.374 96.1859C235.218 95.7458 235.047 95.3109 234.861 94.8813C234.665 94.4223 234.465 93.9978 234.261 93.6079ZM237.04 92.2251C237.266 92.6737 237.476 93.1275 237.672 93.5865C237.858 94.0161 238.034 94.4657 238.2 94.9351C238.752 96.49 239.113 98.1126 239.284 99.8028C239.444 101.464 239.361 103.046 239.035 104.549C238.71 106.051 238.096 107.393 237.193 108.572C236.29 109.751 235.047 110.622 233.462 111.184C232.025 111.694 230.516 111.817 228.935 111.552C227.344 111.258 225.791 110.603 224.275 109.589C222.777 108.535 221.372 107.134 220.058 105.387C218.774 103.63 217.694 101.519 216.82 99.0543C216.247 97.4407 215.881 95.8034 215.721 94.1425C215.561 92.4816 215.663 90.9091 216.029 89.4251C216.394 87.9412 217.048 86.619 217.99 85.4587C218.933 84.2984 220.226 83.4267 221.869 82.8436C223.541 82.2502 225.144 82.1602 226.678 82.5737C228.202 82.9579 229.618 83.6444 230.927 84.6333C232.236 85.6223 233.416 86.8057 234.466 88.1836C235.507 89.5322 236.365 90.8794 237.04 92.2251Z" stroke="white" mask="url(#path-9-outside-1_45_114)"/>
<path d="M245.737 103.607L236.523 77.643L239.603 76.5498L248.443 101.458L264.285 95.8354L265.41 99.0039L248.247 105.095L245.737 103.607Z" stroke="white" mask="url(#path-9-outside-1_45_114)"/>
<path d="M269.571 81.9685L276.349 79.5634L269.034 70.961L269.571 81.9685ZM270.557 97.8709L267.315 98.2287L266.198 66.319L268.134 65.6318L289.029 90.721L286.494 92.5126L278.109 82.0108L269.836 84.9468L270.557 97.8709Z" stroke="white" mask="url(#path-9-outside-1_45_114)"/>
<path d="M292.102 61.6843L282.509 65.0889L281.603 62.5365L303.871 54.6341L304.652 56.8344L294.706 60.364L306.078 84.8686L303.355 86.1322L292.102 61.6843Z" stroke="white" mask="url(#path-9-outside-1_45_114)"/>
<path d="M334.966 71.049L336.06 74.1295L319.337 80.0641L317.003 78.514L308.757 55.2784L309.611 52.1013L323.782 47.0724L324.687 49.6248L311.837 54.1851L315.336 64.0427L329.066 59.17L329.909 61.5464L316.003 66.4815L319.564 76.5151L334.966 71.049Z" stroke="white" mask="url(#path-9-outside-1_45_114)"/>
<defs>
<filter id="filter0_d_45_114" x="0.905212" y="7.85138" width="451.033" height="227.454" filterUnits="userSpaceOnUse" color-interpolation-filters="sRGB">
<feFlood flood-opacity="0" result="BackgroundImageFix"/>
<feColorMatrix in="SourceAlpha" type="matrix" values="0 0 0 0 0 0 0 0 0 0 0 0 0 0 0 0 0 0 127 0" result="hardAlpha"/>
<feOffset dy="4"/>
<feGaussianBlur stdDeviation="2"/>
<feComposite in2="hardAlpha" operator="out"/>
<feColorMatrix type="matrix" values="0 0 0 0 0 0 0 0 0 0 0 0 0 0 0 0 0 0 0.25 0"/>
<feBlend mode="normal" in2="BackgroundImageFix" result="effect1_dropShadow_45_114"/>
<feBlend mode="normal" in="SourceGraphic" in2="effect1_dropShadow_45_114" result="shape"/>
</filter>
</defs>
</svg>
