<svg width="336" height="226" viewBox="0 0 336 226" fill="none" xmlns="http://www.w3.org/2000/svg">
<g filter="url(#filter0_d_39_183)">
<path d="M209.45 202.743C208.395 203.597 206.983 203.839 205.67 203.496C203.856 203.021 202.063 202.725 200.368 202.725C194.946 202.725 186.495 206.256 181.358 209.515C179.793 210.507 177.723 210.573 176.013 209.86C172.275 208.301 166.48 207.038 161.526 207.038C157.524 207.038 151.975 208.326 148.665 210.902C147.094 212.124 145.025 212.991 143.069 212.627C136.791 211.458 132.742 213.655 128.801 216.957C127.408 218.124 125.424 218.315 123.896 217.331L5.83553 141.363C4.69147 140.627 4 139.36 4 138V127.242L172.316 12.9398L332 90.5793V101.611C332 102.818 331.455 103.96 330.517 104.72L209.45 202.743Z" fill="white"/>
<path d="M174.603 1.29767C173.215 0.510058 171.491 0.623421 170.218 1.58608L4 127.242L126.49 206.06C131.913 201.09 136.768 197.353 146.421 200.568C148.579 196.255 156.347 194.099 161.526 194.099C168 194.099 175.912 196.255 178.79 198.412C183.105 194.817 193.895 189.785 200.368 189.785C202.711 189.785 205.243 190.35 207.758 191.173L332 90.5793L174.603 1.29767Z" fill="white"/>
<path d="M174.603 1.29767C173.215 0.510058 171.491 0.623421 170.218 1.58608L4 127.242L126.49 206.06C131.913 201.09 136.768 197.353 146.421 200.568C148.579 196.255 156.347 194.099 161.526 194.099C168 194.099 175.912 196.255 178.79 198.412C183.105 194.817 193.895 189.785 200.368 189.785C202.711 189.785 205.243 190.35 207.758 191.173L332 90.5793L174.603 1.29767Z" fill="white"/>
</g>
<path fill-rule="evenodd" clip-rule="evenodd" d="M204.973 195.405C202.677 194.653 200.367 194.137 198.229 194.137C192.32 194.137 182.472 198.733 178.533 202.015C175.907 200.046 168.685 198.076 162.777 198.076C158.05 198.076 150.959 200.046 148.99 203.985C140.179 201.048 135.748 204.461 130.798 209L19 137.02V125.203L172.624 20.8172L318.371 91.7208V103.538L204.973 195.405Z" fill="#795039"/>
<path d="M204.973 195.405L204.662 196.355L205.179 196.525L205.602 196.182L204.973 195.405ZM178.533 202.015L177.933 202.815L178.566 203.29L179.173 202.783L178.533 202.015ZM148.99 203.985L148.674 204.933L149.497 205.208L149.884 204.432L148.99 203.985ZM130.798 209L130.257 209.841L130.906 210.258L131.474 209.737L130.798 209ZM19 137.02H18V137.566L18.4587 137.861L19 137.02ZM19 125.203L18.438 124.376L18 124.674V125.203H19ZM172.624 20.8172L173.062 19.918L172.541 19.6647L172.062 19.9901L172.624 20.8172ZM318.371 91.7208H319.371V91.0952L318.808 90.8216L318.371 91.7208ZM318.371 103.538L319 104.315L319.371 104.015V103.538H318.371ZM205.284 194.454C202.94 193.687 200.516 193.137 198.229 193.137V195.137C200.218 195.137 202.415 195.619 204.662 196.355L205.284 194.454ZM198.229 193.137C195.071 193.137 190.983 194.349 187.253 195.924C183.511 197.504 179.966 199.519 177.893 201.247L179.173 202.783C181.039 201.229 184.388 199.305 188.031 197.766C191.687 196.223 195.477 195.137 198.229 195.137V193.137ZM179.133 201.215C177.658 200.109 175.039 199.085 172.135 198.339C169.198 197.583 165.831 197.076 162.777 197.076V199.076C165.631 199.076 168.829 199.554 171.637 200.276C174.477 201.006 176.782 201.952 177.933 202.815L179.133 201.215ZM162.777 197.076C160.295 197.076 157.22 197.59 154.496 198.618C151.811 199.631 149.251 201.227 148.096 203.538L149.884 204.432C150.698 202.804 152.669 201.445 155.202 200.489C157.697 199.547 160.532 199.076 162.777 199.076V197.076ZM149.306 203.036C144.726 201.51 141.177 201.604 138.097 202.752C135.067 203.881 132.594 205.997 130.122 208.263L131.474 209.737C133.952 207.464 136.17 205.604 138.795 204.626C141.371 203.666 144.443 203.523 148.674 204.933L149.306 203.036ZM131.34 208.159L19.5413 136.18L18.4587 137.861L130.257 209.841L131.34 208.159ZM20 137.02V125.203H18V137.02H20ZM19.562 126.03L173.186 21.6443L172.062 19.9901L18.438 124.376L19.562 126.03ZM172.187 21.7164L317.933 92.62L318.808 90.8216L173.062 19.918L172.187 21.7164ZM317.371 91.7208V103.538H319.371V91.7208H317.371ZM317.741 102.761L204.343 194.628L205.602 196.182L319 104.315L317.741 102.761Z" fill="white"/>
<path fill-rule="evenodd" clip-rule="evenodd" d="M172.624 9L19 125.203L130.798 197.183C135.748 192.644 140.179 189.231 148.99 192.168C150.959 188.229 158.05 186.259 162.777 186.259C168.685 186.259 175.907 188.229 178.533 190.198C182.472 186.915 192.32 182.32 198.229 182.32C200.367 182.32 202.677 182.836 204.973 183.588L318.371 91.7209L172.624 9Z" fill="#5E3721"/>
<path d="M19 125.203L18.3967 124.406L17.2552 125.269L18.4587 126.044L19 125.203ZM172.624 9L173.118 8.13031L172.546 7.80557L172.021 8.20246L172.624 9ZM130.798 197.183L130.257 198.024L130.906 198.441L131.474 197.92L130.798 197.183ZM148.99 192.168L148.674 193.116L149.497 193.391L149.884 192.615L148.99 192.168ZM178.533 190.198L177.933 190.998L178.566 191.473L179.173 190.966L178.533 190.198ZM204.973 183.588L204.662 184.538L205.179 184.707L205.602 184.365L204.973 183.588ZM318.371 91.7209L319 92.4979L320.139 91.5749L318.864 90.8512L318.371 91.7209ZM19.6033 126.001L173.228 9.79754L172.021 8.20246L18.3967 124.406L19.6033 126.001ZM131.34 196.342L19.5413 124.362L18.4587 126.044L130.257 198.024L131.34 196.342ZM149.306 191.219C144.726 189.692 141.177 189.787 138.097 190.935C135.067 192.064 132.594 194.18 130.122 196.446L131.474 197.92C133.952 195.647 136.17 193.787 138.795 192.809C141.371 191.849 144.443 191.706 148.674 193.116L149.306 191.219ZM162.777 185.259C160.295 185.259 157.22 185.773 154.496 186.801C151.811 187.814 149.251 189.409 148.096 191.72L149.884 192.615C150.698 190.987 152.669 189.628 155.202 188.672C157.697 187.73 160.532 187.259 162.777 187.259V185.259ZM179.133 189.398C177.658 188.292 175.039 187.268 172.135 186.521C169.198 185.766 165.831 185.259 162.777 185.259V187.259C165.631 187.259 168.829 187.736 171.637 188.458C174.477 189.189 176.782 190.135 177.933 190.998L179.133 189.398ZM198.229 181.32C195.071 181.32 190.983 182.532 187.253 184.107C183.511 185.687 179.966 187.702 177.893 189.43L179.173 190.966C181.039 189.411 184.388 187.487 188.031 185.949C191.687 184.406 195.477 183.32 198.229 183.32V181.32ZM205.284 182.637C202.94 181.87 200.516 181.32 198.229 181.32V183.32C200.218 183.32 202.415 183.802 204.662 184.538L205.284 182.637ZM317.741 90.9438L204.343 182.811L205.602 184.365L319 92.4979L317.741 90.9438ZM172.131 9.86969L317.877 92.5905L318.864 90.8512L173.118 8.13031L172.131 9.86969Z" fill="white"/>
<path d="M131 197.091V208M148.939 192V203.636M178.838 190.545V201.455M205 184V194.909" stroke="white"/>
<defs>
<filter id="filter0_d_39_183" x="0" y="0.776917" width="336" height="225.187" filterUnits="userSpaceOnUse" color-interpolation-filters="sRGB">
<feFlood flood-opacity="0" result="BackgroundImageFix"/>
<feColorMatrix in="SourceAlpha" type="matrix" values="0 0 0 0 0 0 0 0 0 0 0 0 0 0 0 0 0 0 127 0" result="hardAlpha"/>
<feOffset dy="4"/>
<feGaussianBlur stdDeviation="2"/>
<feComposite in2="hardAlpha" operator="out"/>
<feColorMatrix type="matrix" values="0 0 0 0 0 0 0 0 0 0 0 0 0 0 0 0 0 0 0.25 0"/>
<feBlend mode="normal" in2="BackgroundImageFix" result="effect1_dropShadow_39_183"/>
<feBlend mode="normal" in="SourceGraphic" in2="effect1_dropShadow_39_183" result="shape"/>
</filter>
</defs>
</svg>
