<svg width="307" height="223" viewBox="0 0 307 223" fill="none" xmlns="http://www.w3.org/2000/svg">
<g filter="url(#filter0_d_39_236)">
<path d="M302.667 114.043C302.667 123.336 235.808 130.87 153.333 130.87C70.8588 130.87 4 123.336 4 114.043C4 104.751 70.8588 97.2174 153.333 97.2174C235.808 97.2174 302.667 104.751 302.667 114.043Z" fill="white"/>
<path d="M154.319 1.60466e-10C13.3671 -0.000155949 5.22992 113.701 15.481 153.304H293.541C302.511 108.591 295.271 0.000155949 154.319 1.60466e-10Z" fill="white"/>
<path d="M10.3158 118.145C9.50435 119.234 12.2327 116.698 14.2193 118.145C16.0424 119.473 13.1681 122.21 14.2193 120.805C15.0823 119.652 16.0095 118.414 17.5332 118.46C17.9136 118.545 18.3015 118.631 18.6967 118.718C18.8998 118.797 19.1118 118.897 19.3333 119.018C21.9904 120.469 21.7715 121.933 21.5463 123.439C21.3383 124.829 21.1248 126.256 23.1667 127.744C25.0833 129.14 27 126.9 28.9167 124.661C30.0139 123.378 31.1111 122.096 32.2084 121.496C33.1983 121.687 34.2116 121.879 35.2476 122.073C36.6269 123.437 37.2143 125.515 37.7505 127.412C38.4307 129.817 39.0285 131.932 41.0556 131.932C42.8346 131.932 44.6137 130.428 46.5205 128.817C48.408 127.222 50.4207 125.521 52.6824 125.068C53.67 125.223 54.6702 125.378 55.6829 125.532C57.2219 126.59 58.1478 128.927 59.0235 131.136C60.0453 133.715 60.9987 136.12 62.7778 136.12C64.6945 136.12 66.6111 134.026 68.5278 131.932C70.0786 130.237 71.6295 128.543 73.1803 127.958C74.0002 128.06 74.8258 128.162 75.6572 128.263C76.8603 129.199 77.8052 131.263 78.75 133.328C80.0278 136.12 81.3056 138.912 83.2222 138.912C85.1389 138.912 87.0556 136.498 88.9722 134.084C90.1903 132.55 91.4083 131.016 92.6264 130.101C93.973 130.23 95.3311 130.355 96.7005 130.478C97.6296 131.669 98.412 133.575 99.1945 135.48C100.472 138.592 101.75 141.705 103.667 141.705C105.583 141.705 107.5 139.261 109.417 136.818C111.333 134.375 113.25 131.932 115.167 131.932C117.083 131.932 118.361 134.375 119.639 136.818C120.917 139.261 122.194 141.705 124.111 141.705C125.89 141.705 127.669 139.6 129.576 137.344C131.04 135.611 132.579 133.79 134.252 132.764C135.946 132.818 137.652 132.867 139.367 132.908C141.097 134.189 142.826 136.55 144.556 138.912C147.111 142.403 149.667 145.893 152.222 145.893C154.778 145.893 157.333 142.694 159.889 139.494C162.444 136.295 165 133.095 167.556 133.095C170.295 133.095 172.667 135.568 174.868 137.863C176.775 139.85 178.554 141.705 180.333 141.705C182.25 141.705 183.528 139.261 184.806 136.818C185.825 134.868 186.845 132.919 188.189 132.211C188.855 132.176 189.518 132.14 190.18 132.103C191.796 132.698 193.412 134.758 195.028 136.818C196.945 139.261 198.861 141.705 200.778 141.705C202.694 141.705 203.972 138.912 205.25 136.12C206.294 133.84 207.337 131.56 208.728 130.8C209.323 130.75 209.916 130.699 210.506 130.647C212.161 131.107 213.817 132.915 215.472 134.724C217.389 136.818 219.306 138.912 221.222 138.912C223.139 138.912 224.417 136.178 225.694 133.444C226.534 131.648 227.374 129.852 228.394 128.831C229.543 128.698 230.681 128.563 231.808 128.427C233.178 129.139 234.547 130.593 235.917 132.048C237.833 134.084 239.75 136.12 241.667 136.12C243.446 136.12 244.399 133.815 245.421 131.344C246.241 129.361 247.105 127.272 248.475 126.181C249.731 125.995 250.968 125.807 252.187 125.619C254.277 126.148 256.156 127.63 257.924 129.025C259.831 130.529 261.61 131.932 263.389 131.932C265.424 131.932 266.019 129.964 266.703 127.699C267.223 125.976 267.795 124.081 269.094 122.752C270.237 122.541 271.355 122.331 272.446 122.122C273.474 122.707 274.501 123.829 275.528 124.951C277.444 127.046 279.361 129.14 281.278 127.744C283.32 126.256 283.106 124.829 282.898 123.439C282.713 122.198 282.531 120.985 283.961 119.785C285.445 119.465 286.848 119.156 288.17 118.858C289.005 119.358 289.633 120.296 290.231 121.188C291.28 122.755 292.236 124.183 294.056 122.857C295.794 121.591 295.956 120.158 296.09 118.969C296.252 117.536 296.373 116.458 299.167 116.458L298.804 116.306C301.557 115.597 303 115.179 303 115.179L292.451 185.611C291.857 189.58 289.342 192.964 285.595 194.399C270.134 200.323 224.758 215 154.736 215C84.3035 215 39.3584 200.15 24.3766 194.296C20.8317 192.911 18.4008 189.76 17.6792 186.023L4 115.179C4 115.179 6.40933 115.85 10.9229 116.934C10.9992 117.229 10.6881 117.646 10.3158 118.145Z" fill="white"/>
<path d="M192.533 7.94565C192.533 12.3339 175.61 15.8913 154.733 15.8913C133.857 15.8913 116.933 12.3339 116.933 7.94565C116.933 3.55739 133.857 1.60466e-10 154.733 1.60466e-10C175.61 1.60466e-10 192.533 3.55739 192.533 7.94565Z" fill="white"/>
</g>
<ellipse cx="153" cy="114.5" rx="140" ry="14.5" fill="#724B35" stroke="white" stroke-width="2"/>
<path d="M154.049 8C21.9067 7.99986 14.2781 113.317 23.8885 150H284.57C292.979 108.584 286.192 8.00014 154.049 8Z" fill="#502C18" stroke="white" stroke-width="2"/>
<path fill-rule="evenodd" clip-rule="evenodd" d="M19.2123 117.903C18.4563 118.915 17.4295 120.29 19.2804 121.636C20.979 122.872 21.8697 121.684 22.8491 120.377C23.6531 119.304 24.5169 118.152 25.9364 118.196C26.2909 118.275 26.6524 118.354 27.0207 118.435C27.2099 118.509 27.4073 118.602 27.6137 118.714C30.0892 120.065 29.8853 121.426 29.6755 122.827C29.4816 124.12 29.2828 125.448 31.1851 126.831C32.9709 128.13 34.7566 126.047 36.5423 123.963C37.5645 122.771 38.5868 121.578 39.609 121.02C40.5314 121.197 41.4754 121.376 42.4407 121.556C43.7257 122.826 44.273 124.758 44.7726 126.522C45.4062 128.76 45.9633 130.727 47.8518 130.727C49.5093 130.727 51.1668 129.329 52.9433 127.83C54.7019 126.346 56.577 124.763 58.6842 124.342C59.6043 124.486 60.5363 124.631 61.4798 124.774C62.9136 125.758 63.7763 127.932 64.5921 129.987C65.5441 132.386 66.4324 134.623 68.0899 134.623C69.8756 134.623 71.6613 132.675 73.447 130.727C74.8919 129.151 76.3368 127.575 77.7816 127.031C78.5455 127.126 79.3148 127.221 80.0894 127.314C81.2103 128.185 82.0906 130.105 82.9708 132.026C84.1613 134.623 85.3518 137.221 87.1375 137.221C88.9232 137.221 90.7089 134.975 92.4947 132.729C93.6295 131.302 94.7643 129.875 95.8991 129.024C97.1537 129.144 98.419 129.261 99.6949 129.375C100.561 130.483 101.289 132.255 102.018 134.028C103.209 136.923 104.399 139.818 106.185 139.818C107.971 139.818 109.757 137.545 111.542 135.273C113.328 133 115.114 130.727 116.899 130.727C118.685 130.727 119.876 133 121.066 135.273C122.257 137.545 123.447 139.818 125.233 139.818C126.89 139.818 128.548 137.86 130.324 135.761C131.688 134.15 133.122 132.456 134.681 131.501C136.259 131.552 137.848 131.597 139.447 131.636C141.058 132.827 142.669 135.024 144.28 137.221C146.661 140.468 149.042 143.714 151.423 143.714C153.804 143.714 156.185 140.738 158.566 137.762C160.947 134.786 163.328 131.81 165.709 131.81C168.261 131.81 170.471 134.11 172.522 136.244C174.299 138.093 175.956 139.818 177.614 139.818C179.399 139.818 180.59 137.545 181.78 135.273C182.73 133.459 183.68 131.645 184.933 130.987C185.553 130.954 186.171 130.921 186.787 130.886C188.293 131.44 189.799 133.357 191.304 135.273C193.09 137.545 194.876 139.818 196.661 139.818C198.447 139.818 199.637 137.221 200.828 134.623C201.8 132.502 202.772 130.381 204.069 129.675C204.623 129.628 205.175 129.58 205.725 129.532C207.267 129.96 208.809 131.642 210.352 133.325C212.137 135.273 213.923 137.221 215.709 137.221C217.495 137.221 218.685 134.678 219.876 132.134C220.658 130.463 221.44 128.792 222.391 127.843C223.461 127.719 224.521 127.594 225.572 127.467C226.847 128.129 228.123 129.482 229.399 130.836C231.185 132.729 232.971 134.623 234.757 134.623C236.414 134.623 237.302 132.479 238.254 130.18C239.018 128.336 239.823 126.392 241.1 125.378C242.27 125.205 243.423 125.03 244.558 124.855C246.505 125.347 248.255 126.725 249.903 128.023C251.68 129.422 253.337 130.727 254.995 130.727C256.891 130.727 257.445 128.896 258.082 126.79C258.567 125.187 259.1 123.424 260.31 122.188C261.375 121.992 262.416 121.796 263.433 121.602C264.39 122.146 265.347 123.19 266.304 124.234C268.09 126.182 269.876 128.13 271.661 126.831C273.564 125.448 273.365 124.12 273.171 122.827C272.998 121.672 272.829 120.545 274.161 119.428C275.543 119.131 276.851 118.843 278.083 118.566C278.861 119.03 279.446 119.903 280.003 120.733C280.98 122.191 281.871 123.519 283.566 122.286C285.186 121.108 285.336 119.774 285.461 118.669C285.612 117.336 285.725 116.333 288.328 116.333L287.99 116.192C290.555 115.532 291.899 115.143 291.899 115.143L281.185 186.571C281.185 186.571 235.494 208 153.765 208C72.0352 208 27.1415 186.571 27.1415 186.571L13.328 115.143C13.328 115.143 15.5727 115.768 19.7779 116.776C19.849 117.05 19.5591 117.438 19.2123 117.903Z" fill="#79513B"/>
<path d="M19.2804 121.636L19.8685 120.828L19.8685 120.828L19.2804 121.636ZM19.2123 117.903L20.0136 118.501L20.0136 118.501L19.2123 117.903ZM22.8491 120.377L22.0489 119.777L22.0489 119.777L22.8491 120.377ZM25.9364 118.196L26.1534 117.22C26.0921 117.206 26.0298 117.198 25.9671 117.196L25.9364 118.196ZM27.0207 118.435L27.3853 117.504C27.3365 117.485 27.2863 117.47 27.2351 117.458L27.0207 118.435ZM27.6137 118.714L27.1349 119.592L27.1349 119.592L27.6137 118.714ZM29.6755 122.827L30.6644 122.975L30.6644 122.975L29.6755 122.827ZM31.1851 126.831L31.7733 126.022L31.7733 126.022L31.1851 126.831ZM36.5423 123.963L37.3015 124.614L37.3015 124.614L36.5423 123.963ZM39.609 121.02L39.7977 120.038C39.5697 119.994 39.3335 120.031 39.1298 120.142L39.609 121.02ZM42.4407 121.556L43.1436 120.845C43.0014 120.704 42.8205 120.609 42.6241 120.573L42.4407 121.556ZM44.7726 126.522L43.8104 126.795L43.8104 126.795L44.7726 126.522ZM52.9433 127.83L52.2984 127.065L52.2984 127.065L52.9433 127.83ZM58.6842 124.342L58.8393 123.354C58.7227 123.336 58.6038 123.338 58.488 123.361L58.6842 124.342ZM61.4798 124.774L62.0458 123.95C61.9214 123.864 61.7794 123.808 61.6303 123.786L61.4798 124.774ZM64.5921 129.987L63.6626 130.356L64.5921 129.987ZM73.447 130.727L74.1842 131.403L74.1842 131.403L73.447 130.727ZM77.7816 127.031L77.9055 126.038C77.7445 126.018 77.581 126.038 77.4291 126.095L77.7816 127.031ZM80.0894 127.314L80.7027 126.524C80.5597 126.413 80.3893 126.343 80.2095 126.322L80.0894 127.314ZM82.9708 132.026L82.0618 132.443L82.0618 132.443L82.9708 132.026ZM92.4947 132.729L91.7119 132.107L91.7119 132.107L92.4947 132.729ZM95.8991 129.024L95.994 128.029C95.7462 128.005 95.4984 128.075 95.2992 128.224L95.8991 129.024ZM99.6949 129.375L100.483 128.759C100.313 128.541 100.059 128.403 99.7838 128.379L99.6949 129.375ZM102.018 134.028L102.943 133.648L102.943 133.648L102.018 134.028ZM121.066 135.273L120.18 135.737L120.18 135.737L121.066 135.273ZM130.324 135.761L131.088 136.408L131.088 136.408L130.324 135.761ZM134.681 131.501L134.713 130.502C134.518 130.496 134.325 130.547 134.158 130.649L134.681 131.501ZM139.447 131.636L140.041 130.831C139.876 130.709 139.677 130.641 139.471 130.636L139.447 131.636ZM144.28 137.221L145.087 136.629L145.087 136.629L144.28 137.221ZM158.566 137.762L157.785 137.137L157.785 137.137L158.566 137.762ZM172.522 136.244L173.243 135.552L173.243 135.552L172.522 136.244ZM181.78 135.273L180.895 134.809L180.895 134.809L181.78 135.273ZM184.933 130.987L184.88 129.988C184.736 129.996 184.595 130.034 184.468 130.102L184.933 130.987ZM186.787 130.886L187.133 129.948C187.005 129.901 186.868 129.88 186.732 129.888L186.787 130.886ZM191.304 135.273L190.518 135.891L190.518 135.891L191.304 135.273ZM200.828 134.623L199.919 134.207L199.919 134.207L200.828 134.623ZM204.069 129.675L203.984 128.678C203.846 128.69 203.712 128.73 203.59 128.797L204.069 129.675ZM205.725 129.532L205.992 128.569C205.877 128.537 205.757 128.526 205.638 128.536L205.725 129.532ZM210.352 133.325L209.615 134L209.615 134L210.352 133.325ZM219.876 132.134L220.781 132.558L220.781 132.558L219.876 132.134ZM222.391 127.843L222.276 126.849C222.052 126.875 221.844 126.976 221.684 127.135L222.391 127.843ZM225.572 127.467L226.032 126.579C225.854 126.486 225.651 126.45 225.451 126.474L225.572 127.467ZM229.399 130.836L230.127 130.15L230.127 130.15L229.399 130.836ZM238.254 130.18L237.33 129.798L237.33 129.798L238.254 130.18ZM241.1 125.378L240.953 124.389C240.779 124.415 240.615 124.486 240.478 124.595L241.1 125.378ZM244.558 124.855L244.803 123.885C244.673 123.852 244.538 123.846 244.405 123.866L244.558 124.855ZM249.903 128.023L250.522 127.237L250.522 127.237L249.903 128.023ZM258.082 126.79L257.125 126.501L257.125 126.501L258.082 126.79ZM260.31 122.188L260.128 121.205C259.925 121.242 259.739 121.341 259.595 121.489L260.31 122.188ZM263.433 121.602L263.928 120.732C263.721 120.615 263.479 120.575 263.246 120.619L263.433 121.602ZM266.304 124.234L265.567 124.91L265.567 124.91L266.304 124.234ZM271.661 126.831L271.073 126.022L271.073 126.022L271.661 126.831ZM273.171 122.827L274.16 122.678L274.16 122.678L273.171 122.827ZM274.161 119.428L273.951 118.45C273.792 118.484 273.643 118.557 273.518 118.662L274.161 119.428ZM278.083 118.566L278.595 117.707C278.375 117.576 278.113 117.534 277.863 117.59L278.083 118.566ZM280.003 120.733L279.172 121.29L279.172 121.29L280.003 120.733ZM283.566 122.286L284.154 123.094L284.154 123.094L283.566 122.286ZM285.461 118.669L286.455 118.781L286.455 118.781L285.461 118.669ZM288.328 116.333V117.333C288.804 117.333 289.214 116.998 289.308 116.531C289.402 116.064 289.154 115.596 288.715 115.411L288.328 116.333ZM287.99 116.192L287.741 115.223C287.325 115.33 287.024 115.691 286.993 116.119C286.961 116.547 287.207 116.948 287.603 117.114L287.99 116.192ZM291.899 115.143L292.888 115.291C292.939 114.954 292.814 114.615 292.558 114.39C292.302 114.166 291.949 114.088 291.621 114.182L291.899 115.143ZM281.185 186.571L281.61 187.477C281.913 187.335 282.124 187.051 282.174 186.72L281.185 186.571ZM27.1415 186.571L26.1597 186.761C26.2199 187.073 26.4244 187.337 26.7107 187.474L27.1415 186.571ZM13.328 115.143L13.5962 114.179C13.2625 114.087 12.9045 114.173 12.6499 114.408C12.3953 114.643 12.2804 114.993 12.3462 115.333L13.328 115.143ZM19.7779 116.776L20.7459 116.525C20.6532 116.167 20.3705 115.889 20.011 115.803L19.7779 116.776ZM19.8685 120.828C19.5039 120.562 19.3547 120.349 19.2926 120.213C19.236 120.089 19.2248 119.972 19.2516 119.829C19.3206 119.461 19.6003 119.054 20.0136 118.501L18.411 117.304C18.0683 117.763 17.4566 118.55 17.2859 119.46C17.1928 119.956 17.2247 120.498 17.4726 121.042C17.7149 121.574 18.1314 122.037 18.6922 122.445L19.8685 120.828ZM22.0489 119.777C21.5142 120.491 21.1804 120.904 20.8533 121.083C20.7342 121.149 20.6428 121.165 20.54 121.152C20.4194 121.137 20.2027 121.071 19.8685 120.828L18.6922 122.445C19.2073 122.82 19.7389 123.068 20.2937 123.137C20.8662 123.208 21.3772 123.077 21.8156 122.837C22.6033 122.404 23.2046 121.57 23.6492 120.977L22.0489 119.777ZM25.9671 117.196C24.9448 117.165 24.1419 117.576 23.5171 118.104C22.9204 118.607 22.436 119.261 22.0489 119.777L23.6492 120.977C24.0661 120.421 24.4157 119.962 24.8068 119.632C25.1697 119.326 25.5085 119.183 25.9058 119.195L25.9671 117.196ZM25.7195 119.172C26.0749 119.251 26.4371 119.331 26.8063 119.412L27.2351 117.458C26.8676 117.378 26.507 117.298 26.1534 117.22L25.7195 119.172ZM28.0926 117.836C27.853 117.706 27.6175 117.595 27.3853 117.504L26.6562 119.366C26.8024 119.424 26.9617 119.498 27.1349 119.592L28.0926 117.836ZM30.6644 122.975C30.7632 122.315 30.9213 121.381 30.5985 120.43C30.2581 119.427 29.4615 118.583 28.0926 117.836L27.1349 119.592C28.2415 120.196 28.5807 120.708 28.7047 121.073C28.8464 121.49 28.7976 121.937 28.6865 122.678L30.6644 122.975ZM31.7733 126.022C30.9702 125.438 30.7113 124.947 30.6153 124.556C30.506 124.112 30.563 123.652 30.6644 122.975L28.6865 122.678C28.5941 123.295 28.4547 124.146 28.6731 125.034C28.9048 125.976 29.4977 126.84 30.597 127.64L31.7733 126.022ZM35.783 123.312C34.8614 124.388 34.0581 125.314 33.294 125.844C32.9248 126.1 32.6399 126.207 32.4236 126.229C32.239 126.248 32.0351 126.213 31.7733 126.022L30.597 127.64C31.228 128.099 31.917 128.291 32.6252 128.219C33.3018 128.15 33.9097 127.85 34.4334 127.487C35.4551 126.779 36.4375 125.622 37.3015 124.614L35.783 123.312ZM39.1298 120.142C38.4925 120.49 37.9011 121.008 37.3645 121.551C36.8238 122.098 36.289 122.722 35.783 123.312L37.3015 124.614C37.8179 124.012 38.3053 123.444 38.7868 122.957C39.2725 122.465 39.7033 122.108 40.0882 121.898L39.1298 120.142ZM39.4204 122.002C40.3445 122.179 41.2903 122.359 42.2573 122.539L42.6241 120.573C41.6606 120.393 40.7183 120.215 39.7977 120.038L39.4204 122.002ZM45.7347 126.25C45.2535 124.55 44.6512 122.334 43.1436 120.845L41.7378 122.267C42.8002 123.317 43.2924 124.966 43.8104 126.795L45.7347 126.25ZM47.8518 129.727C47.5662 129.727 47.3731 129.657 47.2193 129.554C47.0533 129.443 46.8806 129.257 46.7032 128.956C46.3282 128.32 46.0633 127.41 45.7347 126.25L43.8104 126.795C44.1155 127.872 44.446 129.065 44.98 129.972C45.2572 130.442 45.6174 130.888 46.1068 131.216C46.6084 131.552 47.1932 131.727 47.8518 131.727V129.727ZM52.2984 127.065C51.3967 127.826 50.5918 128.503 49.8159 128.997C49.038 129.492 48.4027 129.727 47.8518 129.727V131.727C48.9584 131.727 49.9806 131.263 50.8899 130.684C51.8013 130.104 52.7135 129.332 53.5882 128.594L52.2984 127.065ZM58.488 123.361C56.0795 123.843 54.002 125.628 52.2984 127.065L53.5882 128.594C55.4017 127.064 57.0745 125.684 58.8803 125.323L58.488 123.361ZM58.5291 125.33C59.4507 125.475 60.3843 125.619 61.3294 125.763L61.6303 123.786C60.6883 123.642 59.7579 123.498 58.8393 123.354L58.5291 125.33ZM65.5216 129.618C65.1184 128.602 64.6777 127.489 64.1483 126.505C63.6226 125.528 62.9564 124.575 62.0458 123.95L60.9139 125.599C61.4371 125.958 61.919 126.583 62.3871 127.453C62.8514 128.316 63.25 129.316 63.6626 130.356L65.5216 129.618ZM68.0899 133.623C67.7875 133.623 67.4126 133.44 66.9195 132.667C66.4334 131.905 66.009 130.846 65.5216 129.618L63.6626 130.356C64.1272 131.526 64.623 132.786 65.2334 133.743C65.8368 134.688 66.7348 135.623 68.0899 135.623V133.623ZM72.7099 130.052C71.804 131.04 70.9616 131.956 70.1352 132.632C69.2929 133.321 68.6279 133.623 68.0899 133.623V135.623C69.3376 135.623 70.4583 134.952 71.4017 134.18C72.361 133.395 73.3044 132.363 74.1842 131.403L72.7099 130.052ZM77.4291 126.095C76.5295 126.434 75.6954 127.064 74.9404 127.753C74.1787 128.448 73.4253 129.271 72.7099 130.052L74.1842 131.403C74.9137 130.607 75.6051 129.854 76.2883 129.231C76.9782 128.601 77.5889 128.172 78.1342 127.966L77.4291 126.095ZM77.6578 128.023C78.4228 128.118 79.1933 128.213 79.9692 128.307L80.2095 126.322C79.4362 126.228 78.6682 126.133 77.9055 126.038L77.6578 128.023ZM83.8799 131.609C83.4441 130.659 82.9857 129.657 82.4902 128.783C82.002 127.922 81.4229 127.084 80.7027 126.524L79.476 128.104C79.8768 128.415 80.2982 128.972 80.7505 129.77C81.1954 130.554 81.6173 131.473 82.0618 132.443L83.8799 131.609ZM87.1375 136.221C86.7733 136.221 86.2905 135.955 85.655 135.031C85.0446 134.143 84.4863 132.932 83.8799 131.609L82.0618 132.443C82.6459 133.717 83.278 135.104 84.0069 136.164C84.7108 137.188 85.716 138.221 87.1375 138.221V136.221ZM91.7119 132.107C90.8065 133.246 89.9602 134.307 89.1299 135.09C88.2722 135.899 87.6247 136.221 87.1375 136.221V138.221C88.4361 138.221 89.5743 137.42 90.5022 136.545C91.4576 135.644 92.3971 134.459 93.2774 133.352L91.7119 132.107ZM95.2992 128.224C94.0389 129.169 92.8183 130.716 91.7119 132.107L93.2774 133.352C94.4407 131.889 95.4897 130.581 96.4989 129.825L95.2992 128.224ZM95.8042 130.02C97.0608 130.14 98.3282 130.257 99.6061 130.371L99.7838 128.379C98.5099 128.265 97.2466 128.148 95.994 128.029L95.8042 130.02ZM102.943 133.648C102.235 131.926 101.453 130 100.483 128.759L98.9069 129.99C99.6684 130.965 100.344 132.585 101.094 134.408L102.943 133.648ZM106.185 138.818C105.872 138.818 105.388 138.551 104.73 137.484C104.112 136.482 103.548 135.119 102.943 133.648L101.094 134.408C101.679 135.832 102.306 137.364 103.027 138.534C103.708 139.638 104.712 140.818 106.185 140.818V138.818ZM110.756 134.655C109.851 135.807 109.004 136.881 108.173 137.674C107.314 138.495 106.668 138.818 106.185 138.818V140.818C107.488 140.818 108.628 140.005 109.554 139.121C110.509 138.209 111.448 137.011 112.329 135.891L110.756 134.655ZM116.899 129.727C115.596 129.727 114.457 130.54 113.53 131.424C112.575 132.336 111.636 133.535 110.756 134.655L112.329 135.891C113.234 134.738 114.081 133.664 114.911 132.871C115.771 132.051 116.417 131.727 116.899 131.727V129.727ZM121.952 134.809C121.369 133.696 120.73 132.469 119.992 131.53C119.262 130.601 118.26 129.727 116.899 129.727V131.727C117.324 131.727 117.81 131.99 118.42 132.766C119.021 133.531 119.572 134.576 120.18 135.737L121.952 134.809ZM125.233 138.818C124.808 138.818 124.322 138.555 123.713 137.78C123.111 137.015 122.56 135.969 121.952 134.809L120.18 135.737C120.763 136.849 121.402 138.076 122.14 139.016C122.87 139.945 123.872 140.818 125.233 140.818V138.818ZM129.561 135.115C128.659 136.181 127.849 137.135 127.069 137.83C126.267 138.545 125.677 138.818 125.233 138.818V140.818C126.446 140.818 127.514 140.113 128.399 139.323C129.306 138.515 130.213 137.441 131.088 136.408L129.561 135.115ZM134.158 130.649C132.435 131.704 130.893 133.542 129.561 135.115L131.088 136.408C132.484 134.758 133.81 133.207 135.203 132.354L134.158 130.649ZM134.649 132.501C136.23 132.552 137.821 132.597 139.422 132.635L139.471 130.636C137.875 130.597 136.289 130.552 134.713 130.502L134.649 132.501ZM145.087 136.629C143.511 134.481 141.803 132.134 140.041 130.831L138.852 132.44C140.313 133.52 141.827 135.566 143.474 137.812L145.087 136.629ZM151.423 142.714C150.67 142.714 149.733 142.179 148.567 140.986C147.436 139.829 146.289 138.269 145.087 136.629L143.474 137.812C144.652 139.419 145.887 141.106 147.137 142.384C148.351 143.626 149.796 144.714 151.423 144.714V142.714ZM157.785 137.137C156.582 138.641 155.438 140.067 154.311 141.125C153.156 142.207 152.21 142.714 151.423 142.714V144.714C153.017 144.714 154.452 143.733 155.679 142.584C156.932 141.409 158.169 139.859 159.347 138.387L157.785 137.137ZM165.709 130.81C164.115 130.81 162.68 131.79 161.454 132.94C160.2 134.115 158.963 135.665 157.785 137.137L159.347 138.387C160.55 136.883 161.694 135.456 162.821 134.399C163.976 133.317 164.922 132.81 165.709 132.81V130.81ZM173.243 135.552C172.23 134.498 171.107 133.325 169.901 132.425C168.693 131.523 167.293 130.81 165.709 130.81V132.81C166.677 132.81 167.658 133.246 168.705 134.028C169.755 134.811 170.763 135.856 171.801 136.937L173.243 135.552ZM177.614 138.818C177.126 138.818 176.52 138.558 175.73 137.938C174.953 137.328 174.145 136.49 173.243 135.552L171.801 136.937C172.676 137.847 173.585 138.797 174.495 139.511C175.393 140.216 176.444 140.818 177.614 140.818V138.818ZM180.895 134.809C180.287 135.969 179.735 137.015 179.134 137.78C178.525 138.555 178.038 138.818 177.614 138.818V140.818C178.975 140.818 179.977 139.945 180.707 139.016C181.445 138.076 182.084 136.849 182.666 135.737L180.895 134.809ZM184.468 130.102C183.619 130.548 182.955 131.334 182.413 132.138C181.864 132.955 181.363 133.914 180.895 134.809L182.666 135.737C183.148 134.818 183.597 133.963 184.073 133.255C184.558 132.534 184.995 132.084 185.398 131.872L184.468 130.102ZM184.986 131.985C185.607 131.953 186.226 131.919 186.843 131.885L186.732 129.888C186.117 129.922 185.5 129.956 184.88 129.988L184.986 131.985ZM192.09 134.655C191.345 133.706 190.561 132.707 189.769 131.878C188.989 131.062 188.107 130.306 187.133 129.948L186.442 131.825C186.974 132.02 187.597 132.5 188.323 133.26C189.036 134.006 189.758 134.923 190.518 135.891L192.09 134.655ZM196.661 138.818C196.179 138.818 195.533 138.495 194.673 137.674C193.843 136.881 192.996 135.807 192.09 134.655L190.518 135.891C191.398 137.011 192.337 138.209 193.292 139.121C194.219 140.005 195.358 140.818 196.661 140.818V138.818ZM199.919 134.207C199.313 135.53 198.754 136.74 198.144 137.628C197.508 138.553 197.026 138.818 196.661 138.818V140.818C198.083 140.818 199.088 139.785 199.792 138.761C200.521 137.701 201.153 136.315 201.737 135.04L199.919 134.207ZM203.59 128.797C202.695 129.284 202.014 130.19 201.468 131.107C200.908 132.046 200.399 133.159 199.919 134.207L201.737 135.04C202.229 133.967 202.692 132.959 203.186 132.13C203.693 131.279 204.146 130.771 204.547 130.553L203.59 128.797ZM204.153 130.671C204.708 130.624 205.261 130.577 205.812 130.528L205.638 128.536C205.089 128.584 204.538 128.631 203.984 128.678L204.153 130.671ZM211.089 132.649C210.326 131.817 209.519 130.935 208.702 130.21C207.894 129.493 206.985 128.844 205.992 128.569L205.458 130.496C206.007 130.648 206.64 131.054 207.375 131.706C208.1 132.349 208.835 133.15 209.615 134L211.089 132.649ZM215.709 136.221C215.171 136.221 214.506 135.918 213.664 135.229C212.837 134.553 211.995 133.637 211.089 132.649L209.615 134C210.494 134.96 211.438 135.992 212.397 136.777C213.341 137.549 214.461 138.221 215.709 138.221V136.221ZM218.97 131.71C218.363 133.006 217.806 134.189 217.197 135.057C216.566 135.956 216.083 136.221 215.709 136.221V138.221C217.121 138.221 218.126 137.214 218.834 136.206C219.564 135.166 220.197 133.806 220.781 132.558L218.97 131.71ZM221.684 127.135C221.11 127.708 220.623 128.46 220.195 129.234C219.763 130.014 219.358 130.882 218.97 131.71L220.781 132.558C221.176 131.716 221.552 130.912 221.945 130.202C222.341 129.486 222.721 128.927 223.097 128.55L221.684 127.135ZM222.506 128.836C223.578 128.712 224.64 128.587 225.692 128.459L225.451 126.474C224.403 126.601 223.345 126.726 222.276 126.849L222.506 128.836ZM230.127 130.15C228.894 128.841 227.492 127.337 226.032 126.579L225.111 128.354C226.203 128.921 227.353 130.123 228.672 131.522L230.127 130.15ZM234.757 133.623C234.209 133.623 233.54 133.325 232.701 132.657C231.875 132 231.033 131.11 230.127 130.15L228.672 131.522C229.552 132.455 230.496 133.459 231.455 134.222C232.401 134.975 233.518 135.623 234.757 135.623V133.623ZM237.33 129.798C236.842 130.976 236.42 131.985 235.938 132.71C235.454 133.437 235.079 133.623 234.757 133.623V135.623C236.091 135.623 236.99 134.738 237.602 133.818C238.216 132.896 238.714 131.683 239.178 130.563L237.33 129.798ZM240.478 124.595C239.686 125.224 239.089 126.099 238.605 126.992C238.12 127.889 237.708 128.886 237.33 129.798L239.178 130.563C239.564 129.631 239.937 128.733 240.364 127.944C240.794 127.15 241.237 126.546 241.722 126.161L240.478 124.595ZM241.246 126.367C242.418 126.194 243.573 126.019 244.711 125.843L244.405 123.866C243.272 124.042 242.121 124.216 240.953 124.389L241.246 126.367ZM250.522 127.237C248.916 125.972 246.996 124.439 244.803 123.885L244.313 125.824C246.015 126.254 247.595 127.478 249.284 128.808L250.522 127.237ZM254.995 129.727C254.425 129.727 253.781 129.501 253.004 129.04C252.228 128.579 251.423 127.947 250.522 127.237L249.284 128.808C250.159 129.498 251.072 130.218 251.983 130.759C252.894 131.301 253.906 131.727 254.995 131.727V129.727ZM257.125 126.501C256.793 127.596 256.532 128.433 256.165 129.015C255.993 129.287 255.825 129.456 255.659 129.559C255.502 129.657 255.298 129.727 254.995 129.727V131.727C255.64 131.727 256.216 131.569 256.716 131.257C257.207 130.951 257.573 130.531 257.856 130.082C258.399 129.222 258.733 128.09 259.039 127.079L257.125 126.501ZM259.595 121.489C258.183 122.931 257.594 124.949 257.125 126.501L259.039 127.079C259.539 125.425 260.016 123.918 261.024 122.888L259.595 121.489ZM260.491 123.172C261.558 122.975 262.602 122.778 263.621 122.584L263.246 120.619C262.231 120.813 261.191 121.009 260.128 121.205L260.491 123.172ZM267.041 123.558C266.123 122.556 265.051 121.372 263.928 120.732L262.939 122.471C263.729 122.92 264.572 123.824 265.567 124.91L267.041 123.558ZM271.073 126.022C270.802 126.219 270.585 126.263 270.39 126.25C270.168 126.234 269.884 126.138 269.52 125.906C268.762 125.424 267.964 124.565 267.041 123.558L265.567 124.91C266.43 125.851 267.418 126.939 268.446 127.594C268.975 127.93 269.583 128.199 270.254 128.245C270.951 128.292 271.627 128.092 272.249 127.64L271.073 126.022ZM272.182 122.975C272.283 123.652 272.34 124.112 272.231 124.556C272.135 124.947 271.876 125.438 271.073 126.022L272.249 127.64C273.349 126.84 273.942 125.976 274.173 125.034C274.392 124.146 274.252 123.295 274.16 122.678L272.182 122.975ZM273.518 118.662C272.69 119.356 272.266 120.119 272.118 120.935C271.981 121.691 272.1 122.428 272.182 122.975L274.16 122.678C274.069 122.071 274.018 121.667 274.086 121.292C274.143 120.976 274.3 120.616 274.803 120.194L273.518 118.662ZM274.371 120.405C275.757 120.108 277.068 119.819 278.302 119.541L277.863 117.59C276.635 117.866 275.33 118.154 273.951 118.45L274.371 120.405ZM280.833 120.176C280.312 119.399 279.604 118.31 278.595 117.707L277.57 119.424C278.117 119.751 278.579 120.406 279.172 121.29L280.833 120.176ZM282.978 121.477C282.652 121.714 282.452 121.764 282.354 121.771C282.274 121.778 282.188 121.762 282.058 121.679C281.91 121.583 281.733 121.414 281.515 121.141C281.298 120.869 281.083 120.549 280.833 120.176L279.172 121.29C279.411 121.647 279.674 122.039 279.952 122.388C280.228 122.735 280.563 123.094 280.972 123.358C281.399 123.635 281.915 123.811 282.509 123.765C283.085 123.721 283.633 123.474 284.154 123.094L282.978 121.477ZM284.468 118.556C284.404 119.121 284.345 119.597 284.15 120.068C283.966 120.513 283.642 120.994 282.978 121.477L284.154 123.094C285.11 122.399 285.671 121.625 285.998 120.832C286.315 120.066 286.394 119.322 286.455 118.781L284.468 118.556ZM288.328 115.333C286.953 115.333 285.897 115.587 285.229 116.335C284.604 117.035 284.533 117.979 284.468 118.556L286.455 118.781C286.54 118.025 286.601 117.801 286.721 117.667C286.798 117.581 287.1 117.333 288.328 117.333V115.333ZM287.603 117.114L287.941 117.255L288.715 115.411L288.377 115.269L287.603 117.114ZM288.239 117.16C289.527 116.829 290.509 116.565 291.171 116.384C291.501 116.294 291.752 116.224 291.92 116.176C292.005 116.153 292.068 116.135 292.111 116.122C292.133 116.116 292.149 116.112 292.16 116.108C292.166 116.107 292.17 116.106 292.173 116.105C292.174 116.104 292.175 116.104 292.176 116.104C292.177 116.104 292.177 116.104 292.177 116.103C292.177 116.103 292.177 116.103 292.177 116.103C292.177 116.103 292.177 116.103 292.177 116.103C292.178 116.103 292.178 116.103 291.899 115.143C291.621 114.182 291.621 114.182 291.621 114.182C291.621 114.182 291.621 114.182 291.621 114.182C291.621 114.182 291.621 114.182 291.621 114.182C291.621 114.182 291.621 114.182 291.621 114.182C291.62 114.183 291.619 114.183 291.618 114.183C291.616 114.184 291.612 114.185 291.607 114.186C291.597 114.189 291.582 114.194 291.562 114.199C291.521 114.211 291.46 114.228 291.378 114.251C291.214 114.298 290.969 114.366 290.643 114.455C289.991 114.634 289.018 114.895 287.741 115.223L288.239 117.16ZM290.91 114.994L280.196 186.423L282.174 186.72L292.888 115.291L290.91 114.994ZM281.185 186.571C280.76 185.666 280.761 185.666 280.761 185.666C280.76 185.666 280.76 185.666 280.76 185.666C280.759 185.667 280.757 185.668 280.755 185.669C280.75 185.671 280.742 185.674 280.732 185.679C280.711 185.689 280.68 185.703 280.637 185.723C280.551 185.762 280.421 185.821 280.247 185.898C279.899 186.052 279.376 186.279 278.678 186.569C277.283 187.149 275.194 187.98 272.429 188.979C266.899 190.977 258.667 193.645 247.883 196.315C226.316 201.654 194.542 207 153.765 207V209C194.718 209 226.653 203.631 248.364 198.256C259.219 195.569 267.518 192.88 273.109 190.86C275.904 189.85 278.023 189.007 279.446 188.415C280.158 188.12 280.695 187.886 281.057 187.726C281.237 187.647 281.374 187.585 281.466 187.543C281.512 187.522 281.547 187.506 281.571 187.495C281.583 187.489 281.593 187.485 281.599 187.482C281.602 187.48 281.605 187.479 281.606 187.478C281.607 187.478 281.608 187.478 281.609 187.477C281.609 187.477 281.61 187.477 281.185 186.571ZM153.765 207C112.988 207 81.4137 201.654 60.0469 196.315C49.3634 193.646 41.2315 190.978 35.777 188.981C33.0498 187.982 30.9919 187.151 29.6192 186.571C28.9329 186.281 28.4178 186.054 28.076 185.9C27.9051 185.823 27.7775 185.765 27.6934 185.726C27.6514 185.706 27.6203 185.692 27.6001 185.682C27.59 185.677 27.5826 185.674 27.5779 185.672C27.5756 185.671 27.574 185.67 27.573 185.669C27.5726 185.669 27.5723 185.669 27.5721 185.669C27.5721 185.669 27.5722 185.669 27.1415 186.571C26.7107 187.474 26.7112 187.474 26.7118 187.474C26.7123 187.475 26.7131 187.475 26.714 187.475C26.7158 187.476 26.7183 187.477 26.7214 187.479C26.7277 187.482 26.7368 187.486 26.7486 187.492C26.7721 187.503 26.8066 187.519 26.8521 187.54C26.9429 187.582 27.0774 187.644 27.2552 187.724C27.6109 187.884 28.1402 188.117 28.841 188.413C30.2427 189.005 32.3307 189.848 35.0893 190.859C40.6064 192.879 48.8061 195.568 59.5621 198.256C81.0746 203.631 112.812 209 153.765 209V207ZM28.1233 186.382L14.3098 114.953L12.3462 115.333L26.1597 186.761L28.1233 186.382ZM13.328 115.143C13.0598 116.106 13.0598 116.106 13.0599 116.106C13.0599 116.106 13.0599 116.106 13.06 116.106C13.0601 116.106 13.0603 116.106 13.0604 116.106C13.0608 116.106 13.0613 116.107 13.0619 116.107C13.0632 116.107 13.065 116.108 13.0674 116.108C13.0721 116.11 13.079 116.112 13.088 116.114C13.1062 116.119 13.133 116.126 13.1685 116.136C13.2395 116.156 13.345 116.184 13.4845 116.222C13.7634 116.297 14.1783 116.407 14.7247 116.549C15.8173 116.833 17.4359 117.243 19.5448 117.748L20.011 115.803C17.9147 115.301 16.3084 114.894 15.2274 114.613C14.6869 114.473 14.2777 114.364 14.0044 114.291C13.8677 114.254 13.765 114.226 13.6968 114.207C13.6627 114.198 13.6372 114.191 13.6204 114.186C13.612 114.184 13.6058 114.182 13.6018 114.181C13.5998 114.18 13.5983 114.18 13.5974 114.18C13.5969 114.18 13.5966 114.18 13.5964 114.18C13.5963 114.179 13.5962 114.179 13.5962 114.179C13.5962 114.179 13.5962 114.179 13.5962 114.179C13.5962 114.179 13.5962 114.179 13.328 115.143ZM20.0136 118.501C20.1742 118.286 20.3775 118.016 20.5226 117.759C20.6429 117.546 20.8876 117.072 20.7459 116.525L18.8099 117.027C18.7708 116.876 18.7962 116.766 18.8041 116.737C18.8114 116.71 18.8129 116.72 18.7811 116.776C18.7511 116.829 18.706 116.899 18.6401 116.992C18.5743 117.085 18.4995 117.186 18.411 117.304L20.0136 118.501Z" fill="white"/>
<path d="M188 15.5C188 15.6741 187.921 15.9435 187.56 16.3158C187.196 16.6919 186.608 17.1028 185.763 17.5247C184.077 18.3669 181.573 19.1537 178.396 19.8249C172.058 21.1639 163.255 22 153.5 22C143.745 22 134.942 21.1639 128.604 19.8249C125.427 19.1537 122.923 18.3669 121.237 17.5247C120.392 17.1028 119.804 16.6919 119.44 16.3158C119.079 15.9435 119 15.6741 119 15.5C119 15.3259 119.079 15.0565 119.44 14.6842C119.804 14.3081 120.392 13.8972 121.237 13.4753C122.923 12.6331 125.427 11.8463 128.604 11.1751C134.942 9.83608 143.745 9 153.5 9C163.255 9 172.058 9.83608 178.396 11.1751C181.573 11.8463 184.077 12.6331 185.763 13.4753C186.608 13.8972 187.196 14.3081 187.56 14.6842C187.921 15.0565 188 15.3259 188 15.5Z" fill="#3F1F0D" stroke="white" stroke-width="2"/>
<defs>
<filter id="filter0_d_39_236" x="0" y="0" width="307" height="223" filterUnits="userSpaceOnUse" color-interpolation-filters="sRGB">
<feFlood flood-opacity="0" result="BackgroundImageFix"/>
<feColorMatrix in="SourceAlpha" type="matrix" values="0 0 0 0 0 0 0 0 0 0 0 0 0 0 0 0 0 0 127 0" result="hardAlpha"/>
<feOffset dy="4"/>
<feGaussianBlur stdDeviation="2"/>
<feComposite in2="hardAlpha" operator="out"/>
<feColorMatrix type="matrix" values="0 0 0 0 0 0 0 0 0 0 0 0 0 0 0 0 0 0 0.25 0"/>
<feBlend mode="normal" in2="BackgroundImageFix" result="effect1_dropShadow_39_236"/>
<feBlend mode="normal" in="SourceGraphic" in2="effect1_dropShadow_39_236" result="shape"/>
</filter>
</defs>
</svg>
