<svg width="307" height="223" viewBox="0 0 307 223" fill="none" xmlns="http://www.w3.org/2000/svg">
<g filter="url(#filter0_d_39_169)">
<path d="M302.667 114.043C302.667 123.336 235.808 130.87 153.333 130.87C70.8588 130.87 4 123.336 4 114.043C4 104.751 70.8588 97.2174 153.333 97.2174C235.808 97.2174 302.667 104.751 302.667 114.043Z" fill="white"/>
<path d="M154.319 1.60466e-10C13.3671 -0.000155949 5.22992 113.701 15.481 153.304H293.541C302.511 108.591 295.271 0.000155949 154.319 1.60466e-10Z" fill="white"/>
<path d="M10.3158 118.145C9.50435 119.234 12.2327 116.698 14.2193 118.145C16.0424 119.473 13.1681 122.21 14.2193 120.805C15.0823 119.652 16.0095 118.414 17.5332 118.46C17.9136 118.545 18.3015 118.631 18.6967 118.718C18.8998 118.797 19.1118 118.897 19.3333 119.018C21.9904 120.469 21.7715 121.933 21.5463 123.439C21.3383 124.829 21.1248 126.256 23.1667 127.744C25.0833 129.14 27 126.9 28.9167 124.661C30.0139 123.378 31.1111 122.096 32.2084 121.496C33.1983 121.687 34.2116 121.879 35.2476 122.073C36.6269 123.437 37.2143 125.515 37.7505 127.412C38.4307 129.817 39.0285 131.932 41.0556 131.932C42.8346 131.932 44.6137 130.428 46.5205 128.817C48.408 127.222 50.4207 125.521 52.6824 125.068C53.67 125.223 54.6702 125.378 55.6829 125.532C57.2219 126.59 58.1478 128.927 59.0235 131.136C60.0453 133.715 60.9987 136.12 62.7778 136.12C64.6945 136.12 66.6111 134.026 68.5278 131.932C70.0786 130.237 71.6295 128.543 73.1803 127.958C74.0002 128.06 74.8258 128.162 75.6572 128.263C76.8603 129.199 77.8052 131.263 78.75 133.328C80.0278 136.12 81.3056 138.912 83.2222 138.912C85.1389 138.912 87.0556 136.498 88.9722 134.084C90.1903 132.55 91.4083 131.016 92.6264 130.101C93.973 130.23 95.3311 130.355 96.7005 130.478C97.6296 131.669 98.412 133.575 99.1945 135.48C100.472 138.592 101.75 141.705 103.667 141.705C105.583 141.705 107.5 139.261 109.417 136.818C111.333 134.375 113.25 131.932 115.167 131.932C117.083 131.932 118.361 134.375 119.639 136.818C120.917 139.261 122.194 141.705 124.111 141.705C125.89 141.705 127.669 139.6 129.576 137.344C131.04 135.611 132.579 133.79 134.252 132.764C135.946 132.818 137.652 132.867 139.367 132.908C141.097 134.189 142.826 136.55 144.556 138.912C147.111 142.403 149.667 145.893 152.222 145.893C154.778 145.893 157.333 142.694 159.889 139.494C162.444 136.295 165 133.095 167.556 133.095C170.295 133.095 172.667 135.568 174.868 137.863C176.775 139.85 178.554 141.705 180.333 141.705C182.25 141.705 183.528 139.261 184.806 136.818C185.825 134.868 186.845 132.919 188.189 132.211C188.855 132.176 189.518 132.14 190.18 132.103C191.796 132.698 193.412 134.758 195.028 136.818C196.945 139.261 198.861 141.705 200.778 141.705C202.694 141.705 203.972 138.912 205.25 136.12C206.294 133.84 207.337 131.56 208.728 130.8C209.323 130.75 209.916 130.699 210.506 130.647C212.161 131.107 213.817 132.915 215.472 134.724C217.389 136.818 219.306 138.912 221.222 138.912C223.139 138.912 224.417 136.178 225.694 133.444C226.534 131.648 227.374 129.852 228.394 128.831C229.543 128.698 230.681 128.563 231.808 128.427C233.178 129.139 234.547 130.593 235.917 132.048C237.833 134.084 239.75 136.12 241.667 136.12C243.446 136.12 244.399 133.815 245.421 131.344C246.241 129.361 247.105 127.272 248.475 126.181C249.731 125.995 250.968 125.807 252.187 125.619C254.277 126.148 256.156 127.63 257.924 129.025C259.831 130.529 261.61 131.932 263.389 131.932C265.424 131.932 266.019 129.964 266.703 127.699C267.223 125.976 267.795 124.081 269.094 122.752C270.237 122.541 271.355 122.331 272.446 122.122C273.474 122.707 274.501 123.829 275.528 124.951C277.444 127.046 279.361 129.14 281.278 127.744C283.32 126.256 283.106 124.829 282.898 123.439C282.713 122.198 282.531 120.985 283.961 119.785C285.445 119.465 286.848 119.156 288.17 118.858C289.005 119.358 289.633 120.296 290.231 121.188C291.28 122.755 292.236 124.183 294.056 122.857C295.794 121.591 295.956 120.158 296.09 118.969C296.252 117.536 296.373 116.458 299.167 116.458L298.804 116.306C301.557 115.597 303 115.179 303 115.179L292.451 185.611C291.857 189.58 289.342 192.964 285.595 194.399C270.134 200.323 224.758 215 154.736 215C84.3035 215 39.3584 200.15 24.3766 194.296C20.8317 192.911 18.4008 189.76 17.6792 186.023L4 115.179C4 115.179 6.40933 115.85 10.9229 116.934C10.9992 117.229 10.6881 117.646 10.3158 118.145Z" fill="white"/>
<path d="M192.533 7.94565C192.533 12.3339 175.61 15.8913 154.733 15.8913C133.857 15.8913 116.933 12.3339 116.933 7.94565C116.933 3.55739 133.857 1.60466e-10 154.733 1.60466e-10C175.61 1.60466e-10 192.533 3.55739 192.533 7.94565Z" fill="white"/>
</g>
<ellipse cx="152.13" cy="114.087" rx="139.13" ry="15.6522" fill="#724B35" stroke="white" stroke-width="2"/>
<path d="M153.049 8C21.7272 7.99985 14.1459 113.768 23.6966 150.609H282.759C291.116 109.015 284.371 8.00015 153.049 8Z" fill="#E4B458" stroke="white" stroke-width="2"/>
<path fill-rule="evenodd" clip-rule="evenodd" d="M18.8843 117.903C18.1283 118.915 17.1015 120.29 18.9524 121.636C20.651 122.872 21.5417 121.684 22.5211 120.377C23.3251 119.304 24.189 118.152 25.6086 118.196C25.963 118.275 26.3244 118.354 26.6926 118.435C26.8818 118.509 27.0793 118.602 27.2857 118.714C29.7613 120.065 29.5573 121.426 29.3475 122.827C29.1537 124.12 28.9548 125.448 30.8572 126.831C32.6429 128.13 34.4286 126.047 36.2143 123.963C37.2366 122.771 38.2588 121.578 39.2811 121.02C40.2034 121.197 41.1475 121.376 42.1127 121.556C43.3977 122.826 43.945 124.758 44.4446 126.522C45.0783 128.76 45.6353 130.727 47.5238 130.727C49.1813 130.727 50.8389 129.329 52.6154 127.83C54.3739 126.346 56.2491 124.763 58.3563 124.342C59.2764 124.486 60.2083 124.631 61.1518 124.774C62.5856 125.758 63.4483 127.932 64.2642 129.987C65.2162 132.386 66.1044 134.623 67.762 134.623C69.5477 134.623 71.3334 132.675 73.1191 130.727C74.564 129.151 76.0089 127.575 77.4538 127.031C78.2176 127.126 78.9868 127.221 79.7614 127.314C80.8823 128.185 81.7626 130.105 82.6429 132.026C83.8334 134.623 85.0239 137.221 86.8096 137.221C88.5953 137.221 90.381 134.975 92.1667 132.73C93.3016 131.302 94.4364 129.875 95.5712 129.024C96.8258 129.144 98.0911 129.261 99.367 129.375C100.233 130.483 100.962 132.255 101.691 134.028C102.881 136.923 104.071 139.818 105.857 139.818C107.643 139.818 109.429 137.546 111.214 135.273C113 133 114.786 130.727 116.572 130.727C118.357 130.727 119.548 133 120.738 135.273C121.929 137.546 123.119 139.818 124.905 139.818C126.562 139.818 128.22 137.86 129.996 135.761C131.36 134.15 132.795 132.456 134.353 131.501C135.932 131.552 137.52 131.597 139.119 131.636C140.73 132.827 142.341 135.024 143.952 137.221C146.333 140.468 148.714 143.714 151.095 143.714C153.476 143.714 155.857 140.738 158.238 137.762C160.619 134.786 163 131.81 165.381 131.81C167.933 131.81 170.143 134.11 172.194 136.244C173.971 138.093 175.628 139.818 177.286 139.818C179.072 139.818 180.262 137.546 181.453 135.273C182.403 133.459 183.353 131.645 184.605 130.987C185.225 130.954 185.843 130.921 186.459 130.886C187.965 131.44 189.471 133.357 190.976 135.273C192.762 137.546 194.548 139.818 196.333 139.818C198.119 139.818 199.31 137.221 200.5 134.623C201.472 132.502 202.445 130.381 203.741 129.675C204.295 129.628 204.847 129.58 205.397 129.532C206.939 129.96 208.482 131.642 210.024 133.325C211.81 135.273 213.595 137.221 215.381 137.221C217.167 137.221 218.357 134.678 219.548 132.134C220.33 130.463 221.112 128.792 222.063 127.843C223.133 127.719 224.194 127.594 225.244 127.467C226.52 128.129 227.796 129.482 229.072 130.836C230.857 132.73 232.643 134.623 234.429 134.623C236.086 134.623 236.975 132.479 237.927 130.18C238.69 128.336 239.495 126.392 240.772 125.378C241.942 125.205 243.095 125.03 244.23 124.855C246.178 125.347 247.928 126.725 249.575 128.023C251.352 129.422 253.009 130.727 254.667 130.727C256.563 130.727 257.117 128.896 257.754 126.79C258.239 125.187 258.772 123.424 259.982 122.188C261.047 121.992 262.089 121.796 263.105 121.602C264.062 122.146 265.019 123.19 265.976 124.234C267.762 126.182 269.548 128.13 271.334 126.831C273.236 125.448 273.037 124.12 272.843 122.827C272.67 121.672 272.501 120.545 273.833 119.428C275.216 119.131 276.524 118.843 277.755 118.566C278.533 119.03 279.118 119.903 279.675 120.733C280.652 122.191 281.543 123.519 283.238 122.286C284.858 121.108 285.009 119.774 285.134 118.669C285.284 117.336 285.398 116.333 288 116.333L287.662 116.192C290.227 115.532 291.572 115.143 291.572 115.143L280.857 186.571C280.857 186.571 235.167 208 153.437 208C71.7072 208 26.8135 186.571 26.8135 186.571L13 115.143C13 115.143 15.2447 115.768 19.4499 116.776C19.521 117.05 19.2312 117.438 18.8843 117.903Z" fill="#865A41"/>
<path d="M18.9524 121.636L18.3642 122.445L18.3642 122.445L18.9524 121.636ZM18.8843 117.903L19.6856 118.501L19.6856 118.501L18.8843 117.903ZM22.5211 120.377L21.721 119.777L21.721 119.777L22.5211 120.377ZM25.6086 118.196L25.8255 117.22C25.7643 117.206 25.702 117.198 25.6393 117.196L25.6086 118.196ZM26.6926 118.435L27.0572 117.504C27.0084 117.485 26.9582 117.47 26.907 117.458L26.6926 118.435ZM27.2857 118.714L26.8069 119.592L26.8069 119.592L27.2857 118.714ZM29.3475 122.827L30.3364 122.975L30.3364 122.975L29.3475 122.827ZM30.8572 126.831L31.4453 126.022L31.4453 126.022L30.8572 126.831ZM36.2143 123.963L35.4551 123.312L35.4551 123.312L36.2143 123.963ZM39.2811 121.02L39.4697 120.038C39.2417 119.994 39.0056 120.031 38.8019 120.142L39.2811 121.02ZM42.1127 121.556L42.8156 120.845C42.6734 120.704 42.4925 120.609 42.2961 120.573L42.1127 121.556ZM44.4446 126.522L45.4068 126.25L45.4068 126.25L44.4446 126.522ZM52.6154 127.83L53.2603 128.594L53.2603 128.594L52.6154 127.83ZM58.3563 124.342L58.5114 123.354C58.3948 123.336 58.2759 123.338 58.1602 123.361L58.3563 124.342ZM61.1518 124.774L61.7178 123.95C61.5934 123.864 61.4514 123.808 61.3023 123.786L61.1518 124.774ZM64.2642 129.987L63.3347 130.356L63.3347 130.356L64.2642 129.987ZM73.1191 130.727L73.8563 131.403L73.8563 131.403L73.1191 130.727ZM77.4538 127.031L77.5777 126.038C77.4166 126.018 77.2531 126.038 77.1013 126.095L77.4538 127.031ZM79.7614 127.314L80.3747 126.524C80.2318 126.413 80.0613 126.343 79.8816 126.322L79.7614 127.314ZM82.6429 132.026L83.552 131.609L83.552 131.609L82.6429 132.026ZM92.1667 132.73L91.384 132.107L91.384 132.107L92.1667 132.73ZM95.5712 129.024L95.6661 128.029C95.4183 128.005 95.1706 128.075 94.9714 128.224L95.5712 129.024ZM99.367 129.375L100.155 128.759C99.9846 128.541 99.7315 128.403 99.4558 128.379L99.367 129.375ZM101.691 134.028L102.615 133.648L102.615 133.648L101.691 134.028ZM129.996 135.761L130.76 136.408L130.76 136.408L129.996 135.761ZM134.353 131.501L134.385 130.502C134.19 130.496 133.997 130.547 133.831 130.649L134.353 131.501ZM139.119 131.636L139.713 130.831C139.548 130.709 139.349 130.641 139.143 130.636L139.119 131.636ZM143.952 137.221L144.759 136.629L144.759 136.629L143.952 137.221ZM172.194 136.244L171.473 136.937L171.473 136.937L172.194 136.244ZM181.453 135.273L180.567 134.809L180.567 134.809L181.453 135.273ZM184.605 130.987L184.553 129.988C184.408 129.996 184.268 130.034 184.14 130.102L184.605 130.987ZM186.459 130.886L186.805 129.948C186.677 129.901 186.54 129.88 186.404 129.888L186.459 130.886ZM190.976 135.273L191.763 134.655L191.763 134.655L190.976 135.273ZM200.5 134.623L199.591 134.207L199.591 134.207L200.5 134.623ZM203.741 129.675L203.657 128.678C203.518 128.69 203.384 128.73 203.262 128.797L203.741 129.675ZM205.397 129.532L205.664 128.569C205.549 128.537 205.429 128.526 205.31 128.536L205.397 129.532ZM210.024 133.325L209.287 134L209.287 134L210.024 133.325ZM219.548 132.134L220.453 132.558L220.453 132.558L219.548 132.134ZM222.063 127.843L221.948 126.849C221.724 126.875 221.516 126.976 221.356 127.135L222.063 127.843ZM225.244 127.467L225.704 126.579C225.526 126.486 225.323 126.45 225.124 126.474L225.244 127.467ZM229.072 130.836L229.799 130.15L229.799 130.15L229.072 130.836ZM237.927 130.18L237.003 129.798L237.003 129.798L237.927 130.18ZM240.772 125.378L240.625 124.389C240.451 124.415 240.287 124.486 240.15 124.595L240.772 125.378ZM244.23 124.855L244.475 123.885C244.345 123.852 244.21 123.846 244.078 123.866L244.23 124.855ZM249.575 128.023L250.194 127.237L250.194 127.237L249.575 128.023ZM257.754 126.79L256.797 126.501L256.797 126.501L257.754 126.79ZM259.982 122.188L259.8 121.205C259.598 121.242 259.411 121.341 259.267 121.489L259.982 122.188ZM263.105 121.602L263.6 120.732C263.393 120.615 263.151 120.575 262.918 120.619L263.105 121.602ZM265.976 124.234L265.239 124.91L265.239 124.91L265.976 124.234ZM271.334 126.831L271.922 127.64L271.922 127.64L271.334 126.831ZM272.843 122.827L273.832 122.678L273.832 122.678L272.843 122.827ZM273.833 119.428L273.623 118.45C273.464 118.484 273.315 118.557 273.191 118.661L273.833 119.428ZM277.755 118.566L278.267 117.707C278.047 117.576 277.785 117.534 277.535 117.59L277.755 118.566ZM279.675 120.733L278.844 121.29L278.844 121.29L279.675 120.733ZM283.238 122.286L283.826 123.095L283.826 123.095L283.238 122.286ZM285.134 118.669L286.127 118.781L286.127 118.781L285.134 118.669ZM288 116.333V117.333C288.476 117.333 288.887 116.998 288.981 116.531C289.075 116.064 288.826 115.596 288.387 115.411L288 116.333ZM287.662 116.192L287.413 115.223C286.997 115.33 286.696 115.691 286.665 116.119C286.634 116.547 286.879 116.948 287.275 117.114L287.662 116.192ZM291.572 115.143L292.561 115.291C292.611 114.954 292.487 114.615 292.23 114.39C291.974 114.166 291.621 114.088 291.293 114.182L291.572 115.143ZM280.857 186.571L281.282 187.477C281.585 187.335 281.797 187.051 281.846 186.72L280.857 186.571ZM26.8135 186.571L25.8317 186.761C25.8919 187.073 26.0964 187.337 26.3827 187.474L26.8135 186.571ZM13 115.143L13.2682 114.179C12.9345 114.087 12.5765 114.173 12.3219 114.408C12.0673 114.643 11.9524 114.993 12.0182 115.333L13 115.143ZM19.4499 116.776L20.4179 116.525C20.3251 116.167 20.0425 115.889 19.683 115.803L19.4499 116.776ZM19.5406 120.828C19.1759 120.562 19.0267 120.349 18.9646 120.213C18.9081 120.089 18.8968 119.972 18.9236 119.829C18.9926 119.461 19.2723 119.054 19.6856 118.501L18.083 117.304C17.7403 117.763 17.1286 118.55 16.9579 119.46C16.8649 119.956 16.8967 120.498 17.1446 121.042C17.3869 121.574 17.8034 122.037 18.3642 122.445L19.5406 120.828ZM21.721 119.777C21.1862 120.491 20.8524 120.904 20.5253 121.083C20.4062 121.149 20.3148 121.165 20.212 121.152C20.0914 121.137 19.8747 121.071 19.5406 120.828L18.3642 122.445C18.8794 122.82 19.4109 123.068 19.9657 123.137C20.5382 123.208 21.0493 123.077 21.4876 122.837C22.2753 122.404 22.8766 121.57 23.3212 120.977L21.721 119.777ZM25.6393 117.196C24.617 117.165 23.8141 117.576 23.1892 118.104C22.5924 118.607 22.1081 119.261 21.721 119.777L23.3212 120.977C23.7382 120.421 24.0878 119.962 24.4788 119.632C24.8418 119.326 25.1806 119.183 25.5779 119.195L25.6393 117.196ZM25.3917 119.172C25.7469 119.251 26.1091 119.331 26.4782 119.412L26.907 117.458C26.5396 117.378 26.1791 117.298 25.8255 117.22L25.3917 119.172ZM27.7646 117.836C27.525 117.706 27.2894 117.595 27.0572 117.504L26.3281 119.366C26.4743 119.424 26.6336 119.498 26.8069 119.592L27.7646 117.836ZM30.3364 122.975C30.4352 122.315 30.5933 121.381 30.2706 120.43C29.9301 119.427 29.1335 118.583 27.7646 117.836L26.8069 119.592C27.9135 120.196 28.2527 120.708 28.3767 121.073C28.5184 121.491 28.4696 121.937 28.3585 122.678L30.3364 122.975ZM31.4453 126.022C30.6422 125.438 30.3834 124.947 30.2873 124.557C30.178 124.112 30.235 123.652 30.3364 122.975L28.3585 122.678C28.2661 123.295 28.1268 124.146 28.3452 125.034C28.5769 125.976 29.1698 126.841 30.269 127.64L31.4453 126.022ZM35.4551 123.312C34.5334 124.388 33.7301 125.314 32.966 125.844C32.5969 126.1 32.3119 126.207 32.0956 126.229C31.911 126.248 31.7072 126.213 31.4453 126.022L30.269 127.64C30.9 128.099 31.589 128.291 32.2973 128.219C32.9738 128.15 33.5817 127.85 34.1054 127.487C35.1271 126.779 36.1095 125.622 36.9736 124.614L35.4551 123.312ZM38.8019 120.142C38.1646 120.49 37.5732 121.008 37.0366 121.551C36.4958 122.098 35.961 122.722 35.4551 123.312L36.9736 124.614C37.4899 124.012 37.9773 123.444 38.4588 122.957C38.9445 122.465 39.3753 122.108 39.7603 121.898L38.8019 120.142ZM39.0924 122.002C40.0165 122.179 40.9623 122.359 41.9293 122.539L42.2961 120.573C41.3326 120.393 40.3903 120.215 39.4697 120.038L39.0924 122.002ZM45.4068 126.25C44.9255 124.551 44.3232 122.334 42.8156 120.845L41.4099 122.267C42.4723 123.317 42.9645 124.966 43.4824 126.795L45.4068 126.25ZM47.5238 129.727C47.2382 129.727 47.0451 129.657 46.8914 129.554C46.7253 129.443 46.5526 129.258 46.3752 128.956C46.0002 128.32 45.7354 127.41 45.4068 126.25L43.4824 126.795C43.7875 127.872 44.118 129.065 44.6521 129.972C44.9292 130.442 45.2895 130.888 45.7788 131.216C46.2804 131.552 46.8652 131.727 47.5238 131.727V129.727ZM51.9705 127.065C51.0687 127.826 50.2639 128.503 49.488 128.997C48.71 129.492 48.0747 129.727 47.5238 129.727V131.727C48.6305 131.727 49.6527 131.263 50.562 130.684C51.4733 130.104 52.3855 129.332 53.2603 128.594L51.9705 127.065ZM58.1602 123.361C55.7516 123.843 53.674 125.628 51.9705 127.065L53.2603 128.594C55.0738 127.064 56.7466 125.684 58.5524 125.323L58.1602 123.361ZM58.2012 125.33C59.1228 125.475 60.0563 125.619 61.0014 125.763L61.3023 123.786C60.3603 123.642 59.43 123.498 58.5114 123.354L58.2012 125.33ZM65.1936 129.618C64.7904 128.602 64.3497 127.489 63.8203 126.505C63.2947 125.528 62.6284 124.575 61.7178 123.95L60.5859 125.599C61.1091 125.958 61.591 126.583 62.0591 127.453C62.5235 128.316 62.922 129.316 63.3347 130.356L65.1936 129.618ZM67.762 133.623C67.4595 133.623 67.0847 133.44 66.5915 132.667C66.1055 131.905 65.6811 130.846 65.1936 129.618L63.3347 130.356C63.7993 131.526 64.295 132.786 64.9055 133.743C65.5089 134.688 66.4069 135.623 67.762 135.623V133.623ZM72.3819 130.052C71.4761 131.04 70.6337 131.956 69.8073 132.632C68.965 133.321 68.3 133.623 67.762 133.623V135.623C69.0096 135.623 70.1304 134.952 71.0738 134.18C72.0331 133.395 72.9764 132.363 73.8563 131.403L72.3819 130.052ZM77.1013 126.095C76.2017 126.434 75.3675 127.064 74.6124 127.753C73.8508 128.448 73.0973 129.271 72.3819 130.052L73.8563 131.403C74.5857 130.607 75.2772 129.854 75.9604 129.231C76.6503 128.601 77.261 128.172 77.8063 127.966L77.1013 126.095ZM77.3299 128.023C78.0949 128.118 78.8654 128.213 79.6412 128.307L79.8816 126.322C79.1083 126.228 78.3402 126.133 77.5777 126.038L77.3299 128.023ZM83.552 131.609C83.1162 130.659 82.6578 129.657 82.1622 128.783C81.6741 127.922 81.0949 127.084 80.3747 126.524L79.1481 128.104C79.5488 128.415 79.9703 128.972 80.4226 129.77C80.8675 130.554 81.2893 131.473 81.7338 132.443L83.552 131.609ZM86.8096 136.221C86.4454 136.221 85.9625 135.955 85.3271 135.031C84.7167 134.143 84.1583 132.932 83.552 131.609L81.7338 132.443C82.318 133.717 82.9501 135.104 83.679 136.164C84.3828 137.188 85.3881 138.221 86.8096 138.221V136.221ZM91.384 132.107C90.4785 133.246 89.6323 134.307 88.802 135.09C87.9442 135.899 87.2967 136.221 86.8096 136.221V138.221C88.1081 138.221 89.2463 137.42 90.1743 136.545C91.1297 135.644 92.0692 134.459 92.9494 133.352L91.384 132.107ZM94.9714 128.224C93.711 129.169 92.4904 130.716 91.384 132.107L92.9494 133.352C94.1127 131.889 95.1618 130.581 96.171 129.825L94.9714 128.224ZM95.4763 130.02C96.7329 130.14 98.0002 130.257 99.2781 130.371L99.4558 128.379C98.182 128.265 96.9187 128.148 95.6661 128.029L95.4763 130.02ZM102.615 133.648C101.907 131.926 101.125 130 100.155 128.759L98.5789 129.99C99.3405 130.965 100.016 132.585 100.766 134.409L102.615 133.648ZM105.857 138.818C105.544 138.818 105.06 138.551 104.402 137.484C103.784 136.482 103.221 135.119 102.615 133.648L100.766 134.409C101.351 135.832 101.978 137.364 102.7 138.534C103.38 139.638 104.384 140.818 105.857 140.818V138.818ZM110.428 134.655C109.523 135.807 108.676 136.882 107.845 137.674C106.986 138.495 106.34 138.818 105.857 138.818V140.818C107.16 140.818 108.3 140.005 109.226 139.121C110.181 138.21 111.12 137.011 112.001 135.891L110.428 134.655ZM116.572 129.727C115.268 129.727 114.129 130.54 113.202 131.424C112.247 132.336 111.308 133.535 110.428 134.655L112.001 135.891C112.906 134.738 113.753 133.664 114.583 132.871C115.443 132.051 116.089 131.727 116.572 131.727V129.727ZM121.624 134.809C121.041 133.696 120.402 132.469 119.664 131.53C118.934 130.601 117.933 129.727 116.572 129.727V131.727C116.996 131.727 117.482 131.99 118.092 132.766C118.693 133.531 119.245 134.576 119.852 135.737L121.624 134.809ZM124.905 138.818C124.48 138.818 123.994 138.555 123.385 137.78C122.783 137.015 122.232 135.969 121.624 134.809L119.852 135.737C120.435 136.849 121.074 138.076 121.812 139.016C122.542 139.945 123.544 140.818 124.905 140.818V138.818ZM129.233 135.115C128.331 136.181 127.521 137.135 126.741 137.83C125.939 138.545 125.349 138.818 124.905 138.818V140.818C126.118 140.818 127.186 140.113 128.071 139.323C128.978 138.515 129.885 137.441 130.76 136.408L129.233 135.115ZM133.831 130.649C132.107 131.704 130.565 133.542 129.233 135.115L130.76 136.408C132.156 134.758 133.482 133.207 134.875 132.354L133.831 130.649ZM134.321 132.501C135.902 132.552 137.493 132.597 139.095 132.635L139.143 130.636C137.547 130.597 135.961 130.552 134.385 130.502L134.321 132.501ZM144.759 136.629C143.183 134.481 141.475 132.134 139.713 130.831L138.524 132.44C139.985 133.52 141.499 135.566 143.146 137.812L144.759 136.629ZM151.095 142.714C150.342 142.714 149.405 142.179 148.239 140.986C147.108 139.829 145.962 138.27 144.759 136.629L143.146 137.812C144.324 139.419 145.559 141.106 146.809 142.384C148.023 143.626 149.468 144.714 151.095 144.714V142.714ZM157.457 137.137C156.254 138.641 155.111 140.067 153.983 141.125C152.828 142.207 151.882 142.714 151.095 142.714V144.714C152.689 144.714 154.124 143.733 155.351 142.584C156.604 141.409 157.841 139.859 159.019 138.387L157.457 137.137ZM165.381 130.81C163.787 130.81 162.352 131.79 161.126 132.94C159.872 134.115 158.635 135.665 157.457 137.137L159.019 138.387C160.222 136.883 161.366 135.456 162.494 134.399C163.648 133.317 164.594 132.81 165.381 132.81V130.81ZM172.915 135.552C171.903 134.498 170.78 133.325 169.574 132.425C168.365 131.523 166.965 130.81 165.381 130.81V132.81C166.349 132.81 167.33 133.246 168.377 134.028C169.427 134.811 170.435 135.856 171.473 136.937L172.915 135.552ZM177.286 138.818C176.798 138.818 176.192 138.558 175.402 137.938C174.625 137.328 173.817 136.49 172.915 135.552L171.473 136.937C172.348 137.847 173.257 138.797 174.167 139.511C175.065 140.216 176.116 140.818 177.286 140.818V138.818ZM180.567 134.809C179.959 135.969 179.407 137.015 178.806 137.78C178.197 138.555 177.711 138.818 177.286 138.818V140.818C178.647 140.818 179.649 139.945 180.379 139.016C181.117 138.076 181.756 136.849 182.338 135.737L180.567 134.809ZM184.14 130.102C183.291 130.548 182.627 131.334 182.086 132.138C181.536 132.955 181.035 133.914 180.567 134.809L182.338 135.737C182.82 134.818 183.269 133.963 183.745 133.255C184.23 132.534 184.667 132.084 185.071 131.872L184.14 130.102ZM184.658 131.985C185.279 131.953 185.898 131.919 186.515 131.885L186.404 129.888C185.789 129.922 185.172 129.956 184.553 129.988L184.658 131.985ZM191.763 134.655C191.017 133.706 190.234 132.707 189.441 131.878C188.661 131.062 187.779 130.306 186.805 129.948L186.114 131.825C186.646 132.02 187.269 132.5 187.995 133.26C188.708 134.006 189.43 134.923 190.19 135.891L191.763 134.655ZM196.333 138.818C195.851 138.818 195.205 138.495 194.345 137.674C193.515 136.882 192.668 135.807 191.763 134.655L190.19 135.891C191.07 137.011 192.009 138.21 192.964 139.121C193.891 140.005 195.03 140.818 196.333 140.818V138.818ZM199.591 134.207C198.985 135.53 198.426 136.74 197.816 137.628C197.181 138.553 196.698 138.818 196.333 138.818V140.818C197.755 140.818 198.76 139.785 199.464 138.761C200.193 137.701 200.825 136.315 201.409 135.04L199.591 134.207ZM203.262 128.797C202.367 129.284 201.686 130.19 201.14 131.107C200.58 132.046 200.071 133.159 199.591 134.207L201.409 135.04C201.901 133.967 202.364 132.959 202.858 132.13C203.365 131.279 203.818 130.771 204.219 130.553L203.262 128.797ZM203.825 130.671C204.38 130.624 204.933 130.577 205.484 130.528L205.31 128.536C204.761 128.584 204.21 128.631 203.657 128.678L203.825 130.671ZM210.761 132.649C209.998 131.817 209.191 130.935 208.374 130.21C207.567 129.493 206.657 128.844 205.664 128.569L205.13 130.496C205.679 130.648 206.312 131.054 207.047 131.706C207.772 132.349 208.507 133.15 209.287 134L210.761 132.649ZM215.381 136.221C214.843 136.221 214.178 135.919 213.336 135.229C212.509 134.553 211.667 133.637 210.761 132.649L209.287 134C210.167 134.96 211.11 135.992 212.069 136.777C213.013 137.549 214.133 138.221 215.381 138.221V136.221ZM218.642 131.71C218.035 133.006 217.478 134.189 216.869 135.057C216.238 135.956 215.755 136.221 215.381 136.221V138.221C216.793 138.221 217.798 137.215 218.506 136.206C219.236 135.166 219.87 133.806 220.453 132.558L218.642 131.71ZM221.356 127.135C220.782 127.708 220.295 128.46 219.867 129.234C219.435 130.014 219.03 130.882 218.642 131.71L220.453 132.558C220.848 131.716 221.224 130.912 221.617 130.202C222.013 129.486 222.393 128.927 222.77 128.55L221.356 127.135ZM222.178 128.836C223.25 128.712 224.312 128.587 225.364 128.459L225.124 126.474C224.075 126.601 223.017 126.726 221.948 126.849L222.178 128.836ZM229.799 130.15C228.566 128.841 227.164 127.337 225.704 126.579L224.783 128.354C225.875 128.921 227.025 130.123 228.344 131.522L229.799 130.15ZM234.429 133.623C233.881 133.623 233.213 133.325 232.373 132.657C231.547 132 230.705 131.11 229.799 130.15L228.344 131.522C229.224 132.455 230.168 133.459 231.128 134.222C232.073 134.975 233.19 135.623 234.429 135.623V133.623ZM237.003 129.798C236.515 130.976 236.092 131.985 235.61 132.71C235.126 133.437 234.751 133.623 234.429 133.623V135.623C235.763 135.623 236.662 134.738 237.275 133.818C237.888 132.896 238.386 131.683 238.85 130.563L237.003 129.798ZM240.15 124.595C239.358 125.224 238.761 126.099 238.278 126.992C237.792 127.889 237.38 128.886 237.003 129.798L238.85 130.563C239.237 129.631 239.609 128.733 240.037 127.944C240.466 127.15 240.909 126.546 241.394 126.161L240.15 124.595ZM240.919 126.367C242.091 126.194 243.245 126.019 244.383 125.843L244.078 123.866C242.944 124.042 241.793 124.216 240.625 124.389L240.919 126.367ZM250.194 127.237C248.588 125.972 246.668 124.439 244.475 123.885L243.985 125.824C245.687 126.254 247.267 127.478 248.957 128.808L250.194 127.237ZM254.667 129.727C254.098 129.727 253.453 129.501 252.677 129.04C251.9 128.579 251.096 127.947 250.194 127.237L248.957 128.808C249.832 129.498 250.744 130.218 251.655 130.759C252.566 131.301 253.579 131.727 254.667 131.727V129.727ZM256.797 126.501C256.465 127.596 256.204 128.433 255.837 129.015C255.665 129.287 255.497 129.456 255.331 129.559C255.174 129.657 254.97 129.727 254.667 129.727V131.727C255.312 131.727 255.888 131.569 256.388 131.257C256.879 130.952 257.245 130.531 257.528 130.082C258.071 129.222 258.406 128.09 258.711 127.08L256.797 126.501ZM259.267 121.489C257.855 122.931 257.266 124.949 256.797 126.501L258.711 127.08C259.212 125.425 259.688 123.918 260.696 122.888L259.267 121.489ZM260.163 123.172C261.231 122.975 262.274 122.778 263.293 122.584L262.918 120.619C261.903 120.813 260.864 121.009 259.8 121.205L260.163 123.172ZM266.714 123.558C265.795 122.556 264.724 121.372 263.6 120.732L262.611 122.471C263.401 122.92 264.244 123.824 265.239 124.91L266.714 123.558ZM270.745 126.022C270.475 126.219 270.258 126.263 270.062 126.25C269.84 126.234 269.556 126.138 269.192 125.906C268.434 125.424 267.636 124.565 266.714 123.558L265.239 124.91C266.102 125.851 267.09 126.94 268.118 127.594C268.647 127.93 269.255 128.199 269.926 128.245C270.624 128.292 271.3 128.092 271.922 127.64L270.745 126.022ZM271.854 122.975C271.956 123.652 272.013 124.112 271.903 124.556C271.807 124.947 271.549 125.438 270.745 126.022L271.922 127.64C273.021 126.841 273.614 125.976 273.846 125.034C274.064 124.146 273.925 123.295 273.832 122.678L271.854 122.975ZM273.191 118.661C272.362 119.356 271.938 120.119 271.79 120.935C271.653 121.691 271.772 122.428 271.854 122.975L273.832 122.678C273.741 122.071 273.69 121.667 273.758 121.292C273.815 120.976 273.972 120.616 274.476 120.194L273.191 118.661ZM274.043 120.405C275.429 120.108 276.74 119.819 277.974 119.541L277.535 117.59C276.307 117.866 275.002 118.154 273.623 118.45L274.043 120.405ZM280.505 120.176C279.984 119.399 279.277 118.31 278.267 117.707L277.242 119.424C277.789 119.751 278.252 120.406 278.844 121.29L280.505 120.176ZM282.65 121.477C282.324 121.714 282.124 121.764 282.026 121.771C281.946 121.778 281.86 121.763 281.73 121.679C281.583 121.583 281.405 121.414 281.187 121.141C280.97 120.869 280.755 120.549 280.505 120.176L278.844 121.29C279.083 121.647 279.346 122.039 279.624 122.388C279.9 122.735 280.235 123.094 280.644 123.358C281.072 123.635 281.587 123.811 282.181 123.765C282.757 123.721 283.305 123.474 283.826 123.095L282.65 121.477ZM284.14 118.556C284.076 119.121 284.017 119.597 283.822 120.068C283.638 120.513 283.314 120.994 282.65 121.477L283.826 123.095C284.782 122.399 285.343 121.625 285.671 120.832C285.987 120.066 286.066 119.322 286.127 118.781L284.14 118.556ZM288 115.333C286.625 115.333 285.569 115.587 284.902 116.335C284.276 117.035 284.205 117.979 284.14 118.556L286.127 118.781C286.213 118.025 286.274 117.801 286.393 117.667C286.47 117.581 286.773 117.333 288 117.333V115.333ZM287.275 117.114L287.613 117.255L288.387 115.411L288.049 115.269L287.275 117.114ZM287.911 117.16C289.199 116.829 290.181 116.565 290.843 116.384C291.174 116.294 291.424 116.224 291.593 116.176C291.677 116.153 291.741 116.135 291.783 116.122C291.805 116.116 291.821 116.112 291.832 116.108C291.838 116.107 291.842 116.106 291.845 116.105C291.846 116.104 291.847 116.104 291.848 116.104C291.849 116.104 291.849 116.104 291.849 116.103C291.849 116.103 291.849 116.103 291.85 116.103C291.85 116.103 291.85 116.103 291.85 116.103C291.85 116.103 291.85 116.103 291.572 115.143C291.293 114.182 291.293 114.182 291.293 114.182C291.293 114.182 291.293 114.182 291.293 114.182C291.293 114.182 291.293 114.182 291.293 114.182C291.293 114.182 291.293 114.182 291.293 114.182C291.292 114.183 291.292 114.183 291.29 114.183C291.288 114.184 291.284 114.185 291.279 114.186C291.27 114.189 291.254 114.194 291.234 114.199C291.194 114.211 291.132 114.228 291.05 114.251C290.887 114.298 290.641 114.366 290.315 114.455C289.663 114.634 288.691 114.895 287.413 115.223L287.911 117.16ZM290.583 114.994L279.868 186.423L281.846 186.72L292.561 115.291L290.583 114.994ZM280.857 186.571C280.433 185.666 280.433 185.666 280.433 185.666C280.432 185.666 280.432 185.666 280.432 185.666C280.431 185.667 280.429 185.668 280.427 185.669C280.422 185.671 280.414 185.675 280.404 185.679C280.383 185.689 280.352 185.703 280.309 185.723C280.223 185.762 280.093 185.821 279.919 185.898C279.572 186.052 279.048 186.279 278.35 186.569C276.956 187.149 274.866 187.98 272.101 188.979C266.571 190.977 258.339 193.645 247.555 196.315C225.988 201.654 194.214 207 153.437 207V209C194.39 209 226.326 203.631 248.036 198.256C258.891 195.569 267.19 192.88 272.781 190.86C275.576 189.85 277.695 189.007 279.118 188.416C279.83 188.12 280.368 187.886 280.729 187.727C280.91 187.647 281.046 187.585 281.138 187.543C281.185 187.522 281.22 187.506 281.244 187.495C281.256 187.489 281.265 187.485 281.271 187.482C281.274 187.48 281.277 187.479 281.279 187.478C281.279 187.478 281.28 187.478 281.281 187.477C281.281 187.477 281.282 187.477 280.857 186.571ZM153.437 207C112.66 207 81.0857 201.654 59.719 196.316C49.0354 193.646 40.9035 190.978 35.449 188.981C32.7218 187.982 30.6639 187.151 29.2912 186.571C28.6049 186.281 28.0898 186.054 27.748 185.9C27.5771 185.823 27.4495 185.765 27.3654 185.726C27.3234 185.706 27.2923 185.692 27.2721 185.682C27.262 185.677 27.2546 185.674 27.2499 185.672C27.2476 185.671 27.246 185.67 27.245 185.669C27.2446 185.669 27.2444 185.669 27.2441 185.669C27.2441 185.669 27.2442 185.669 26.8135 186.571C26.3827 187.474 26.3832 187.474 26.3838 187.474C26.3843 187.475 26.3851 187.475 26.386 187.475C26.3878 187.476 26.3903 187.477 26.3934 187.479C26.3997 187.482 26.4088 187.486 26.4206 187.492C26.4441 187.503 26.4787 187.519 26.5241 187.54C26.6149 187.582 26.7494 187.644 26.9272 187.724C27.2829 187.884 27.8122 188.117 28.513 188.413C29.9147 189.005 32.0027 189.848 34.7613 190.859C40.2784 192.879 48.4781 195.568 59.2341 198.256C80.7467 203.631 112.484 209 153.437 209V207ZM27.7953 186.382L13.9818 114.953L12.0182 115.333L25.8317 186.761L27.7953 186.382ZM13 115.143C12.7318 116.106 12.7318 116.106 12.7319 116.106C12.7319 116.106 12.7319 116.106 12.732 116.106C12.7321 116.106 12.7323 116.106 12.7324 116.106C12.7328 116.106 12.7333 116.107 12.7339 116.107C12.7352 116.107 12.737 116.108 12.7394 116.108C12.7441 116.11 12.751 116.112 12.76 116.114C12.7782 116.119 12.805 116.126 12.8405 116.136C12.9115 116.156 13.017 116.184 13.1565 116.222C13.4354 116.297 13.8503 116.407 14.3967 116.549C15.4893 116.833 17.1079 117.243 19.2168 117.748L19.683 115.803C17.5867 115.301 15.9804 114.894 14.8994 114.613C14.3589 114.473 13.9497 114.364 13.6764 114.291C13.5397 114.254 13.437 114.226 13.3688 114.207C13.3347 114.198 13.3092 114.191 13.2924 114.186C13.284 114.184 13.2778 114.182 13.2738 114.181C13.2718 114.18 13.2703 114.18 13.2694 114.18C13.2689 114.18 13.2686 114.18 13.2684 114.18C13.2683 114.179 13.2682 114.179 13.2682 114.179C13.2682 114.179 13.2682 114.179 13.2682 114.179C13.2682 114.179 13.2682 114.179 13 115.143ZM19.6856 118.501C19.8462 118.286 20.0495 118.016 20.1946 117.759C20.3149 117.546 20.5597 117.071 20.4179 116.525L18.482 117.027C18.4429 116.876 18.4682 116.766 18.4761 116.737C18.4834 116.71 18.4849 116.72 18.4531 116.776C18.4231 116.829 18.378 116.899 18.3121 116.992C18.2464 117.085 18.1716 117.186 18.083 117.304L19.6856 118.501Z" fill="white"/>
<path d="M187.652 15.3913C187.652 15.5556 187.577 15.817 187.221 16.1828C186.86 16.5523 186.278 16.9568 185.44 17.3726C183.768 18.2022 181.284 18.9776 178.132 19.6391C171.844 20.9586 163.112 21.7826 153.435 21.7826C143.757 21.7826 135.025 20.9586 128.738 19.6391C125.586 18.9776 123.101 18.2022 121.429 17.3726C120.592 16.9568 120.009 16.5523 119.649 16.1828C119.292 15.817 119.217 15.5556 119.217 15.3913C119.217 15.2271 119.292 14.9657 119.649 14.5998C120.009 14.2303 120.592 13.8258 121.429 13.4101C123.101 12.5804 125.586 11.8051 128.738 11.1435C135.025 9.82396 143.757 9 153.435 9C163.112 9 171.844 9.82396 178.132 11.1435C181.284 11.8051 183.768 12.5804 185.44 13.4101C186.278 13.8258 186.86 14.2303 187.221 14.5998C187.577 14.9657 187.652 15.2271 187.652 15.3913Z" fill="white" stroke="white" stroke-width="2"/>
<defs>
<filter id="filter0_d_39_169" x="0" y="0" width="307" height="223" filterUnits="userSpaceOnUse" color-interpolation-filters="sRGB">
<feFlood flood-opacity="0" result="BackgroundImageFix"/>
<feColorMatrix in="SourceAlpha" type="matrix" values="0 0 0 0 0 0 0 0 0 0 0 0 0 0 0 0 0 0 127 0" result="hardAlpha"/>
<feOffset dy="4"/>
<feGaussianBlur stdDeviation="2"/>
<feComposite in2="hardAlpha" operator="out"/>
<feColorMatrix type="matrix" values="0 0 0 0 0 0 0 0 0 0 0 0 0 0 0 0 0 0 0.25 0"/>
<feBlend mode="normal" in2="BackgroundImageFix" result="effect1_dropShadow_39_169"/>
<feBlend mode="normal" in="SourceGraphic" in2="effect1_dropShadow_39_169" result="shape"/>
</filter>
</defs>
</svg>
