<svg width="440" height="138" viewBox="0 0 440 138" fill="none" xmlns="http://www.w3.org/2000/svg">
<g filter="url(#filter0_d_40_80)">
<path d="M434.902 82.2871C434.902 97.1812 338.832 109.255 220.324 109.255C101.816 109.255 5.74583 97.1812 5.74583 82.2871C5.74583 67.3931 101.816 55.3191 220.324 55.3191C338.832 55.3191 434.902 67.3931 434.902 82.2871Z" fill="white"/>
<path d="M434.876 82.1089C429.053 96.2164 335.361 106.102 220.635 106.102C105.935 106.102 12.2599 96.2209 6.39912 82.1185C6.30136 82.147 6.20412 82.1755 6.10742 82.2042C4.99032 89.6724 4.99032 95.6468 6.1082 101.621C6.1082 116.469 102.155 130 220.635 130C339.115 130 435.162 116.469 435.162 101.621C436.279 95.6468 436.279 89.6724 435.162 82.2043C435.067 82.1724 434.972 82.1406 434.876 82.1089Z" fill="white"/>
<path d="M417.92 46.3297C417.92 62.7514 329.24 76.0637 219.848 76.0637C110.456 76.0637 21.7757 62.7514 21.7757 46.3297C21.7757 29.9081 110.456 16.5957 219.848 16.5957C329.24 16.5957 417.92 29.9081 417.92 46.3297Z" fill="white"/>
<path d="M418.152 46.2744C412.779 61.9031 326.335 72.8547 220.483 72.8547C114.655 72.8547 28.2259 61.908 22.8179 46.285C22.7276 46.3166 22.6379 46.3482 22.5486 46.38C21.5179 54.6535 21.5179 61.2722 22.5493 67.8908C22.5493 84.3402 111.167 97.4998 220.483 97.4998C329.799 97.4998 418.416 84.3402 418.416 67.8908C419.447 61.2722 419.447 54.6535 418.416 46.3801C418.329 46.3447 418.24 46.3095 418.152 46.2744Z" fill="white"/>
<path d="M433.632 26.9681C433.632 41.8621 337.562 53.9361 219.054 53.9361C100.546 53.9361 4.47613 41.8621 4.47613 26.9681C4.47613 12.074 100.546 0 219.054 0C337.562 0 433.632 12.074 433.632 26.9681Z" fill="white"/>
<path d="M433.606 26.7898C427.784 40.8973 334.092 50.783 219.366 50.783C104.666 50.783 10.9902 40.9018 5.12943 26.7994C5.03167 26.8279 4.93443 26.8565 4.83773 26.8851C3.72063 34.3533 3.72063 40.3277 4.83851 46.3021C4.83851 61.1503 100.886 74.6809 219.366 74.6809C337.846 74.6809 433.893 61.1503 433.893 46.3021C435.01 40.3278 435.01 34.3533 433.892 26.8852C433.797 26.8533 433.702 26.8215 433.606 26.7898Z" fill="white"/>
</g>
<ellipse cx="219.375" cy="79.6276" rx="197.766" ry="22.8191" fill="#322219" stroke="white" stroke-width="2"/>
<path fill-rule="evenodd" clip-rule="evenodd" d="M417.116 79.4767C411.75 91.4138 325.399 99.7786 219.662 99.7786C113.949 99.7786 27.6127 91.4176 22.2112 79.4848C22.1211 79.5089 22.0314 79.5331 21.9423 79.5574C20.9127 85.8766 20.9127 90.9319 21.943 95.9871C21.943 108.551 110.465 120 219.662 120C328.859 120 417.381 108.551 417.381 95.9871C418.41 90.9319 418.41 85.8766 417.38 79.5574C417.293 79.5304 417.205 79.5035 417.116 79.4767Z" fill="#3A271C"/>
<path d="M417.116 79.4767L417.406 78.5196L416.565 78.2648L416.204 79.0667L417.116 79.4767ZM22.2112 79.4848L23.1222 79.0724L22.7724 78.2996L21.9529 78.5188L22.2112 79.4848ZM21.9423 79.5574L21.6796 78.5925L21.0588 78.7616L20.9553 79.3966L21.9423 79.5574ZM21.943 95.9871H22.943V95.8862L22.9229 95.7874L21.943 95.9871ZM417.381 95.9871L416.401 95.7876L416.381 95.8863V95.9871H417.381ZM417.38 79.5574L418.367 79.3966L418.268 78.785L417.676 78.6021L417.38 79.5574ZM416.204 79.0667C415.964 79.6017 415.454 80.2112 414.575 80.8728C413.702 81.5292 412.521 82.1956 411.022 82.8627C408.023 84.1972 403.865 85.4862 398.641 86.7113C388.201 89.1597 373.649 91.3192 355.928 93.1091C320.496 96.6881 272.509 98.7786 219.662 98.7786V100.779C272.552 100.779 320.61 98.6868 356.129 95.099C373.884 93.3056 388.534 91.1357 399.098 88.6584C404.376 87.4207 408.671 86.0977 411.835 84.6899C413.417 83.9859 414.744 83.2485 415.777 82.471C416.804 81.6985 417.598 80.8438 418.028 79.8867L416.204 79.0667ZM219.662 98.7786C166.827 98.7786 118.85 96.6891 83.4202 93.1116C65.7007 91.3224 51.1479 89.1638 40.7039 86.7163C35.4782 85.4916 31.3184 84.2031 28.3164 82.869C26.8157 82.2021 25.6323 81.5359 24.7577 80.8794C23.8764 80.2179 23.3646 79.608 23.1222 79.0724L21.3002 79.8972C21.7329 80.8532 22.5287 81.7071 23.5571 82.479C24.5922 83.2559 25.9207 83.993 27.5042 84.6967C30.6706 86.1038 34.9679 87.4262 40.2476 88.6635C50.8144 91.1398 65.4654 93.3088 83.2193 95.1015C118.736 98.6877 166.784 100.779 219.662 100.779V98.7786ZM22.2051 80.5222C22.2927 80.4984 22.3808 80.4746 22.4695 80.4509L21.9529 78.5188C21.8613 78.5433 21.7702 78.5678 21.6796 78.5925L22.2051 80.5222ZM22.9229 95.7874C21.9219 90.8757 21.9147 85.9456 22.9293 79.7182L20.9553 79.3966C19.9108 85.8075 19.9036 90.988 20.9632 96.1868L22.9229 95.7874ZM219.662 119C165.093 119 115.706 116.139 79.9765 111.713C62.1053 109.499 47.6863 106.897 37.7538 104.078C32.78 102.666 28.9873 101.214 26.4587 99.7593C25.194 99.0317 24.2926 98.3295 23.7175 97.67C23.147 97.0158 22.943 96.4592 22.943 95.9871H20.943C20.943 97.0855 21.4306 98.0906 22.2102 98.9845C22.9851 99.873 24.0922 100.705 25.4613 101.493C28.2003 103.069 32.1764 104.573 37.2077 106.001C47.2854 108.862 61.8217 111.479 79.7306 113.697C115.561 118.136 165.034 121 219.662 121V119ZM416.381 95.9871C416.381 96.4592 416.177 97.0158 415.606 97.67C415.031 98.3295 414.13 99.0317 412.865 99.7593C410.337 101.214 406.544 102.666 401.57 104.078C391.637 106.897 377.219 109.499 359.347 111.713C323.618 116.139 274.231 119 219.662 119V121C274.29 121 323.762 118.136 359.593 113.697C377.502 111.479 392.038 108.862 402.116 106.001C407.147 104.573 411.124 103.069 413.863 101.493C415.232 100.705 416.339 99.873 417.114 98.9845C417.893 98.0906 418.381 97.0855 418.381 95.9871H416.381ZM416.393 79.7183C417.408 85.9456 417.401 90.8758 416.401 95.7876L418.361 96.1866C419.419 90.988 419.412 85.8076 418.367 79.3966L416.393 79.7183ZM416.827 80.4338C416.913 80.46 416.999 80.4864 417.085 80.5128L417.676 78.6021C417.586 78.5745 417.497 78.547 417.406 78.5196L416.827 80.4338Z" fill="white"/>
<ellipse cx="218.936" cy="49.202" rx="182.553" ry="25.1595" fill="#EFE4D2" stroke="white"/>
<path fill-rule="evenodd" clip-rule="evenodd" d="M401.703 49.1553C396.751 62.3796 317.08 71.6463 219.522 71.6463C121.986 71.6463 42.3278 62.3838 37.3435 49.1643C37.2603 49.191 37.1776 49.2178 37.0953 49.2447C36.1454 56.2453 36.1454 61.8458 37.096 67.4461C37.096 81.3648 118.771 92.4999 219.521 92.4999C320.272 92.4999 401.947 81.3648 401.947 67.4461C402.897 61.8458 402.897 56.2453 401.946 49.2448C401.866 49.2148 401.785 49.185 401.703 49.1553Z" fill="#EFE4D2"/>
<path d="M401.703 49.1553L401.874 48.6854L401.408 48.5161L401.235 48.9799L401.703 49.1553ZM37.3435 49.1643L37.8113 48.9879L37.6435 48.5428L37.1906 48.6882L37.3435 49.1643ZM37.0953 49.2447L36.9399 48.7694L36.642 48.8668L36.5999 49.1774L37.0953 49.2447ZM37.096 67.4461H37.596V67.404L37.5889 67.3624L37.096 67.4461ZM401.947 67.4461L401.454 67.3625L401.447 67.404V67.4461H401.947ZM401.946 49.2448L402.442 49.1775L402.402 48.8804L402.12 48.776L401.946 49.2448ZM401.235 48.9799C400.683 50.4533 399.039 51.9705 396.219 53.4775C393.421 54.9724 389.56 56.4076 384.732 57.7672C375.078 60.4855 361.635 62.8799 345.279 64.8635C312.574 68.8301 268.288 71.1463 219.522 71.1463V72.1463C268.314 72.1463 312.642 69.8291 345.4 65.8563C361.776 63.8701 375.277 61.4683 385.003 58.7298C389.864 57.361 393.802 55.9026 396.69 54.3595C399.556 52.8285 401.485 51.1633 402.171 49.3306L401.235 48.9799ZM219.522 71.1463C170.767 71.1463 126.489 68.8312 93.7858 64.8662C77.4315 62.8835 63.988 60.49 54.331 57.7728C49.5008 56.4137 45.6379 54.979 42.8374 53.4846C40.0142 51.9782 38.3668 50.4612 37.8113 48.9879L36.8756 49.3407C37.5662 51.1722 39.4984 52.8364 42.3666 54.3669C45.2573 55.9093 49.1974 57.3671 54.0601 58.7354C63.7888 61.4728 77.2903 63.8737 93.6655 65.859C126.421 69.8302 170.741 72.1463 219.522 72.1463V71.1463ZM37.2507 49.7199C37.3321 49.6933 37.414 49.6668 37.4963 49.6403L37.1906 48.6882C37.1066 48.7152 37.023 48.7423 36.9399 48.7694L37.2507 49.7199ZM37.5889 67.3624C36.6486 61.8224 36.646 56.2741 37.5908 49.3119L36.5999 49.1774C35.6447 56.2165 35.6422 61.8691 36.603 67.5298L37.5889 67.3624ZM219.521 91.9999C169.161 91.9999 123.579 89.2168 90.595 84.6971C74.0995 82.4368 60.7758 79.7448 51.5865 76.7572C46.9883 75.2623 43.4552 73.7027 41.0815 72.1041C38.6862 70.491 37.596 68.9251 37.596 67.4461H36.596C36.596 69.4468 38.0581 71.2736 40.5229 72.9336C43.0094 74.6081 46.6442 76.2019 51.2773 77.7082C60.5504 80.7231 73.9423 83.4246 90.4593 85.6879C123.501 90.2154 169.131 92.9999 219.521 92.9999V91.9999ZM401.447 67.4461C401.447 68.9251 400.357 70.491 397.961 72.1041C395.588 73.7027 392.054 75.2623 387.456 76.7572C378.267 79.7448 364.943 82.4368 348.448 84.6971C315.464 89.2168 269.882 91.9999 219.521 91.9999V92.9999C269.912 92.9999 315.542 90.2154 348.584 85.6879C365.101 83.4246 378.492 80.7231 387.766 77.7082C392.399 76.2019 396.033 74.6081 398.52 72.9336C400.985 71.2736 402.447 69.4468 402.447 67.4461H401.447ZM401.451 49.312C402.396 56.2741 402.393 61.8225 401.454 67.3625L402.44 67.5297C403.4 61.8691 403.397 56.2165 402.442 49.1775L401.451 49.312ZM401.532 49.6252C401.613 49.6545 401.693 49.684 401.772 49.7135L402.12 48.776C402.039 48.7457 401.956 48.7154 401.874 48.6854L401.532 49.6252Z" fill="white"/>
<ellipse cx="218.205" cy="32.8191" rx="197.766" ry="22.8191" fill="#422D21" stroke="white" stroke-width="2"/>
<path fill-rule="evenodd" clip-rule="evenodd" d="M415.946 32.6682C410.58 44.6053 324.229 52.9702 218.492 52.9702C112.779 52.9702 26.4425 44.6091 21.0409 32.6764C20.9508 32.7005 20.8612 32.7246 20.7721 32.7489C19.7425 39.0681 19.7425 44.1234 20.7728 49.1786C20.7728 61.7425 109.295 73.1915 218.492 73.1915C327.689 73.1915 416.211 61.7425 416.211 49.1786C417.24 44.1234 417.24 39.0681 416.21 32.749C416.123 32.7219 416.035 32.695 415.946 32.6682Z" fill="#3A271C"/>
<path d="M415.946 32.6682L416.236 31.7111L415.395 31.4563L415.034 32.2582L415.946 32.6682ZM21.0409 32.6764L21.952 32.264L21.6021 31.4912L20.7826 31.7103L21.0409 32.6764ZM20.7721 32.7489L20.5093 31.784L19.8886 31.9531L19.7851 32.5881L20.7721 32.7489ZM20.7728 49.1786H21.7728V49.0778L21.7527 48.9789L20.7728 49.1786ZM416.211 49.1786L415.231 48.9791L415.211 49.0779V49.1786H416.211ZM416.21 32.749L417.197 32.5881L417.097 31.9766L416.505 31.7936L416.21 32.749ZM415.034 32.2582C414.794 32.7932 414.284 33.4028 413.405 34.0643C412.532 34.7208 411.351 35.3871 409.851 36.0542C406.853 37.3887 402.695 38.6777 397.471 39.9028C387.03 42.3512 372.478 44.5107 354.758 46.3007C319.325 49.8796 271.339 51.9702 218.492 51.9702V53.9702C271.382 53.9702 319.44 51.8783 354.959 48.2905C372.714 46.4971 387.364 44.3272 397.928 41.85C403.206 40.6122 407.501 39.2893 410.665 37.8814C412.247 37.1774 413.574 36.44 414.607 35.6625C415.634 34.89 416.428 34.0354 416.858 33.0782L415.034 32.2582ZM218.492 51.9702C165.657 51.9702 117.68 49.8806 82.25 46.3031C64.5305 44.5139 49.9776 42.3553 39.5337 39.9078C34.308 38.6832 30.1481 37.3946 27.1462 36.0605C25.6455 35.3936 24.4621 34.7274 23.5875 34.071C22.7061 33.4094 22.1944 32.7996 21.952 32.264L20.1299 33.0887C20.5627 34.0447 21.3585 34.8986 22.3869 35.6705C23.422 36.4475 24.7505 37.1845 26.334 37.8882C29.5004 39.2954 33.7976 40.6178 39.0773 41.855C49.6441 44.3313 64.2952 46.5003 82.049 48.293C117.566 51.8792 165.613 53.9702 218.492 53.9702V51.9702ZM21.0348 33.7138C21.1225 33.6899 21.2106 33.6661 21.2993 33.6424L20.7826 31.7103C20.6911 31.7348 20.6 31.7594 20.5093 31.784L21.0348 33.7138ZM21.7527 48.9789C20.7516 44.0673 20.7445 39.1371 21.7591 32.9097L19.7851 32.5881C18.7406 38.9991 18.7334 44.1796 19.793 49.3783L21.7527 48.9789ZM218.492 72.1915C163.923 72.1915 114.536 69.3305 78.8063 64.9041C60.9351 62.6901 46.5161 60.0885 36.5836 57.269C31.6097 55.8571 27.817 54.4058 25.2885 52.9509C24.0238 52.2232 23.1224 51.521 22.5473 50.8615C21.9768 50.2074 21.7728 49.6507 21.7728 49.1786H19.7728C19.7728 50.277 20.2604 51.2821 21.04 52.176C21.8148 53.0646 22.9219 53.8966 24.291 54.6844C27.0301 56.2604 31.0062 57.7648 36.0375 59.193C46.1152 62.0538 60.6515 64.6702 78.5604 66.8889C114.391 71.3279 163.863 74.1915 218.492 74.1915V72.1915ZM415.211 49.1786C415.211 49.6507 415.007 50.2074 414.436 50.8615C413.861 51.521 412.96 52.2232 411.695 52.9509C409.166 54.4058 405.374 55.8571 400.4 57.269C390.467 60.0885 376.048 62.6901 358.177 64.9041C322.448 69.3305 273.061 72.1915 218.492 72.1915V74.1915C273.12 74.1915 322.592 71.3279 358.423 66.8889C376.332 64.6702 390.868 62.0538 400.946 59.193C405.977 57.7648 409.953 56.2604 412.692 54.6844C414.061 53.8966 415.169 53.0646 415.943 52.176C416.723 51.2821 417.211 50.277 417.211 49.1786H415.211ZM415.223 32.9098C416.238 39.1371 416.231 44.0673 415.231 48.9791L417.19 49.3782C418.249 44.1795 418.242 38.9991 417.197 32.5881L415.223 32.9098ZM415.656 33.6253C415.743 33.6515 415.829 33.6779 415.915 33.7044L416.505 31.7936C416.416 31.766 416.326 31.7385 416.236 31.7111L415.656 33.6253Z" fill="white"/>
<path d="M178.732 30.7713V32.5149C178.732 33.5057 177.38 34.2936 174.676 34.8787C172.014 35.456 168.17 35.7447 163.142 35.7447C158.115 35.7447 154.249 35.456 151.545 34.8787C148.884 34.2936 147.553 33.5057 147.553 32.5149V30.7713C147.553 29.7883 148.884 29.0082 151.545 28.4309C154.249 27.8458 158.115 27.5532 163.142 27.5532C168.17 27.5532 172.014 27.8458 174.676 28.4309C177.38 29.0082 178.732 29.7883 178.732 30.7713ZM173.028 30.7713C173.028 30.0458 172.183 29.488 170.494 29.0979C168.846 28.7 166.396 28.5011 163.142 28.5011C159.932 28.5011 157.481 28.7 155.791 29.0979C154.101 29.488 153.256 30.0458 153.256 30.7713V32.5149C153.256 33.2483 154.101 33.8139 155.791 34.2117C157.481 34.6096 159.932 34.8085 163.142 34.8085C166.396 34.8085 168.846 34.6096 170.494 34.2117C172.183 33.8139 173.028 33.2483 173.028 32.5149V30.7713Z" fill="white"/>
<path d="M195.935 32.5149V35.6277H190.421V27.6702H203.92C207.975 27.6702 211.102 27.8692 213.299 28.2671C215.538 28.6571 216.657 29.1798 216.657 29.8351V30.3383C216.657 30.8064 216.066 31.2121 214.883 31.5553C213.742 31.8986 212.095 32.1522 209.94 32.316C211.757 32.8543 213.447 33.4004 215.01 33.9543C216.573 34.5082 218.009 35.066 219.319 35.6277H212.982C210.574 34.5667 207.764 33.5291 204.553 32.5149H195.935ZM203.92 28.6064H195.935V31.5787H203.92C206.074 31.5787 207.785 31.4695 209.053 31.2511C210.32 31.0248 210.954 30.7206 210.954 30.3383V29.8351C210.954 29.4451 210.32 29.1447 209.053 28.9341C207.785 28.7156 206.074 28.6064 203.92 28.6064Z" fill="white"/>
<path d="M252.563 34.6798V35.6277H228.482V27.6702H251.929V28.6298H233.995V31.1224H250.028V32.0819H233.995V34.6798H252.563Z" fill="white"/>
<path d="M291.489 30.7713V32.5149C291.489 33.5057 290.137 34.2936 287.433 34.8787C284.772 35.456 280.927 35.7447 275.9 35.7447C270.872 35.7447 267.006 35.456 264.303 34.8787C261.641 34.2936 260.31 33.5057 260.31 32.5149V30.7713C260.31 29.7883 261.641 29.0082 264.303 28.4309C267.006 27.8458 270.872 27.5532 275.9 27.5532C280.927 27.5532 284.772 27.8458 287.433 28.4309C290.137 29.0082 291.489 29.7883 291.489 30.7713ZM285.786 30.7713C285.786 30.0458 284.941 29.488 283.251 29.0979C281.603 28.7 279.153 28.5011 275.9 28.5011C272.689 28.5011 270.238 28.7 268.548 29.0979C266.858 29.488 266.014 30.0458 266.014 30.7713V32.5149C266.014 33.2483 266.858 33.8139 268.548 34.2117C270.238 34.6096 272.689 34.8085 275.9 34.8085C279.153 34.8085 281.603 34.6096 283.251 34.2117C284.941 33.8139 285.786 33.2483 285.786 32.5149V30.7713Z" fill="white"/>
<defs>
<filter id="filter0_d_40_80" x="0" y="0" width="440" height="138" filterUnits="userSpaceOnUse" color-interpolation-filters="sRGB">
<feFlood flood-opacity="0" result="BackgroundImageFix"/>
<feColorMatrix in="SourceAlpha" type="matrix" values="0 0 0 0 0 0 0 0 0 0 0 0 0 0 0 0 0 0 127 0" result="hardAlpha"/>
<feOffset dy="4"/>
<feGaussianBlur stdDeviation="2"/>
<feComposite in2="hardAlpha" operator="out"/>
<feColorMatrix type="matrix" values="0 0 0 0 0 0 0 0 0 0 0 0 0 0 0 0 0 0 0.25 0"/>
<feBlend mode="normal" in2="BackgroundImageFix" result="effect1_dropShadow_40_80"/>
<feBlend mode="normal" in="SourceGraphic" in2="effect1_dropShadow_40_80" result="shape"/>
</filter>
</defs>
</svg>
