<svg width="62" height="99" viewBox="0 0 62 99" fill="none" xmlns="http://www.w3.org/2000/svg">
<path d="M25.2675 74.216C28.8515 74.216 31.4115 75.112 32.9475 76.904C34.4835 78.6107 35.2515 81.0427 35.2515 84.2C35.2515 85.5653 35.0808 87.0587 34.7395 88.68C34.3982 90.3013 33.7582 91.8373 32.8195 93.288C31.9662 94.6533 30.6862 95.848 28.9795 96.872C27.3582 97.8107 25.2248 98.28 22.5795 98.28C18.7395 98.28 16.1368 97.2987 14.7715 95.336C13.4062 93.288 12.7235 90.7707 12.7235 87.784C12.7235 86.0773 12.9368 84.4133 13.3635 82.792C13.7902 81.1707 14.4728 79.72 15.4115 78.44C16.3502 77.16 17.6302 76.136 19.2515 75.368C20.8728 74.6 22.8782 74.216 25.2675 74.216ZM34.8675 62.696C34.2702 63.8907 33.7582 64.616 33.3315 64.872C32.9048 65.128 32.3502 65.256 31.6675 65.256H27.0595C23.7315 65.256 21.3422 64.5733 19.8915 63.208C18.4408 61.7573 17.7155 60.008 17.7155 57.96C17.7155 55.9973 18.2275 54.12 19.2515 52.328C20.3608 50.4507 21.7262 48.6587 23.3475 46.952C24.9688 45.2453 26.6755 43.5813 28.4675 41.96C30.3448 40.2533 32.0942 38.5893 33.7155 36.968C35.3368 35.2613 36.6595 33.5547 37.6835 31.848C38.7928 30.056 39.3475 28.1787 39.3475 26.216C39.3475 24.168 38.6648 22.2907 37.2995 20.584C36.0195 18.792 33.8862 17.896 30.8995 17.896C28.5955 17.896 26.7182 18.3653 25.2675 19.304C23.9022 20.2427 22.7928 21.4373 21.9395 22.888C21.0862 24.3387 20.4462 25.96 20.0195 27.752C19.5928 29.4587 19.2088 31.1653 18.8675 32.872C18.6968 33.8107 18.3982 34.4507 17.9715 34.792C17.6302 35.048 16.6915 35.176 15.1555 35.176C9.95017 35.176 6.23817 34.28 4.0195 32.488C1.88617 30.6107 0.8195 27.752 0.8195 23.912C0.8195 19.9013 1.75817 16.4453 3.6355 13.544C5.59817 10.6427 8.1155 8.25333 11.1875 6.376C14.3448 4.49866 17.8862 3.13333 21.8115 2.28C25.8222 1.34133 29.8755 0.871994 33.9715 0.871994C38.8355 0.871994 42.9742 1.51199 46.3875 2.79199C49.8862 3.98666 52.7448 5.65066 54.9635 7.784C57.1822 9.832 58.8035 12.264 59.8275 15.08C60.9368 17.8107 61.4915 20.6693 61.4915 23.656C61.4915 28.1787 60.3822 32.1893 58.1635 35.688C55.9448 39.1867 53.3422 42.4293 50.3555 45.416C47.3688 48.4027 44.3822 51.2613 41.3955 53.992C38.4942 56.7227 36.3182 59.624 34.8675 62.696Z" fill="white"/>
</svg>
