<svg width="50" height="196" viewBox="0 0 50 196" fill="none" xmlns="http://www.w3.org/2000/svg">
<path d="M23.0979 151.854C23.6966 150.011 26.3034 150.011 26.9021 151.854L30.1638 161.893C30.4316 162.717 31.1995 163.275 32.0659 163.275H42.621C44.5585 163.275 45.364 165.754 43.7966 166.893L35.2574 173.097C34.5564 173.606 34.2631 174.509 34.5308 175.333L37.7925 185.371C38.3912 187.214 36.2823 188.746 34.7148 187.607L26.1756 181.403C25.4746 180.894 24.5254 180.894 23.8244 181.403L15.2852 187.607C13.7177 188.746 11.6088 187.214 12.2075 185.371L15.4692 175.333C15.7369 174.509 15.4436 173.606 14.7426 173.097L6.20338 166.893C4.63595 165.754 5.44151 163.275 7.37895 163.275H17.9341C18.8005 163.275 19.5684 162.717 19.8362 161.893L23.0979 151.854Z" fill="#EDD084" fill-opacity="0.9"/>
<line x1="25.25" y1="151" x2="25.25" stroke="#EDD084" stroke-opacity="0.9" stroke-width="1.5"/>
</svg>
