<svg width="50" height="155" viewBox="0 0 50 155" fill="none" xmlns="http://www.w3.org/2000/svg">
<path d="M23.0979 110.854C23.6966 109.011 26.3034 109.011 26.9021 110.854L30.1638 120.893C30.4316 121.717 31.1995 122.275 32.0659 122.275H42.621C44.5585 122.275 45.364 124.754 43.7966 125.893L35.2574 132.097C34.5564 132.606 34.2631 133.509 34.5308 134.333L37.7925 144.371C38.3912 146.214 36.2823 147.746 34.7148 146.607L26.1756 140.403C25.4746 139.894 24.5254 139.894 23.8244 140.403L15.2852 146.607C13.7177 147.746 11.6088 146.214 12.2075 144.371L15.4692 134.333C15.7369 133.509 15.4436 132.606 14.7426 132.097L6.20338 125.893C4.63595 124.754 5.44151 122.275 7.37895 122.275H17.9341C18.8005 122.275 19.5684 121.717 19.8362 120.893L23.0979 110.854Z" fill="#EDD084" fill-opacity="0.9"/>
<line x1="25.25" y1="110" x2="25.25" stroke="#EDD084" stroke-opacity="0.9" stroke-width="1.5"/>
</svg>
