<svg width="50" height="191" viewBox="0 0 50 191" fill="none" xmlns="http://www.w3.org/2000/svg">
<path d="M23.0979 146.854C23.6966 145.011 26.3034 145.011 26.9021 146.854L30.1638 156.893C30.4316 157.717 31.1995 158.275 32.0659 158.275H42.621C44.5585 158.275 45.364 160.754 43.7966 161.893L35.2574 168.097C34.5564 168.606 34.2631 169.509 34.5308 170.333L37.7925 180.371C38.3912 182.214 36.2823 183.746 34.7148 182.607L26.1756 176.403C25.4746 175.894 24.5254 175.894 23.8244 176.403L15.2852 182.607C13.7177 183.746 11.6088 182.214 12.2075 180.371L15.4692 170.333C15.7369 169.509 15.4436 168.606 14.7426 168.097L6.20338 161.893C4.63595 160.754 5.44151 158.275 7.37895 158.275H17.9341C18.8005 158.275 19.5684 157.717 19.8362 156.893L23.0979 146.854Z" fill="#EDD084" fill-opacity="0.9"/>
<line x1="25.25" y1="146.005" x2="24.25" y2="0.00514768" stroke="#EDD084" stroke-opacity="0.9" stroke-width="1.5"/>
</svg>
