<svg width="50" height="94" viewBox="0 0 50 94" fill="none" xmlns="http://www.w3.org/2000/svg">
<path d="M23.0979 49.8541C23.6966 48.0115 26.3034 48.0115 26.9021 49.8541L30.1638 59.8926C30.4316 60.7167 31.1995 61.2746 32.0659 61.2746H42.621C44.5585 61.2746 45.364 63.7538 43.7966 64.8926L35.2574 71.0967C34.5564 71.606 34.2631 72.5088 34.5308 73.3328L37.7925 83.3713C38.3912 85.2139 36.2823 86.7462 34.7148 85.6074L26.1756 79.4032C25.4746 78.894 24.5254 78.894 23.8244 79.4033L15.2852 85.6074C13.7177 86.7462 11.6088 85.2139 12.2075 83.3713L15.4692 73.3328C15.7369 72.5088 15.4436 71.606 14.7426 71.0967L6.20338 64.8926C4.63595 63.7538 5.44151 61.2746 7.37895 61.2746H17.9341C18.8005 61.2746 19.5684 60.7167 19.8362 59.8926L23.0979 49.8541Z" fill="#EDD084" fill-opacity="0.9"/>
<line x1="25.25" y1="49" x2="25.25" stroke="#EDD084" stroke-opacity="0.9" stroke-width="1.5"/>
</svg>
