<svg width="290" height="757" viewBox="0 0 290 757" fill="none" xmlns="http://www.w3.org/2000/svg">
<path d="M5.07267 92.5416L95.2883 37.8129C101.677 33.9373 109.832 38.6138 109.714 46.0851L98.7599 740.029C98.6475 747.155 91.0199 751.624 84.7484 748.239L5.48728 705.452C2.41503 703.794 0.5 700.584 0.5 697.092V100.664C0.5 97.3433 2.23371 94.2638 5.07267 92.5416Z" fill="#D9D9D9" stroke="black"/>
<path d="M112 31.5H265C277.979 31.5 288.5 42.0213 288.5 55V749.5H88.5V55C88.5 42.0213 99.0213 31.5 112 31.5Z" fill="#C2C2C2" stroke="black"/>
<rect x="103.5" y="145.5" width="185" height="604" fill="#595959" stroke="black"/>
<path d="M89 155.448L103 145V749H89V155.448Z" fill="#686868"/>
<path d="M132.33 0.5H245.67C264.316 0.5 279.784 14.9255 281.083 33.5262L286.811 115.526C288.245 136.056 271.978 153.5 251.398 153.5H126.602C106.022 153.5 89.7546 136.056 91.1887 115.526L96.9167 33.5262C98.216 14.9254 113.684 0.5 132.33 0.5Z" fill="#686868" stroke="black"/>
<path d="M133.217 5H244.783C261.589 5 275.53 17.9992 276.705 34.7632L282.311 114.763C283.608 133.272 268.943 149 250.389 149H127.611C109.057 149 94.3922 133.272 95.6891 114.763L101.295 34.7632C102.47 17.9992 116.412 5 133.217 5Z" stroke="#575757" stroke-width="8"/>
<rect x="133" y="40" width="108" height="74" rx="12" fill="#393939"/>
<g filter="url(#filter0_f_17_24)">
<path d="M187.5 59C212 59 221.333 76.1667 226.5 81C225.873 54.0557 214.184 46.4956 187.5 47.2984C158.688 48.1651 145.24 52.1391 146 81C153.167 76.1666 157 59 187.5 59Z" fill="#525252"/>
</g>
<path d="M5 128.5L82 91.5" stroke="#7F7F7F"/>
<g filter="url(#filter1_f_17_24)">
<path d="M86.5 51C87.5 47 89.5 43.6667 90.5 43C88.3333 44.3333 84.2 46.7 83 49.5C81.8 52.3 84.3333 68.1667 86.5 74C86.5 68.8333 85.4328 55.2686 86.5 51Z" fill="white"/>
</g>
<defs>
<filter id="filter0_f_17_24" x="141.969" y="43.2418" width="88.5305" height="41.7582" filterUnits="userSpaceOnUse" color-interpolation-filters="sRGB">
<feFlood flood-opacity="0" result="BackgroundImageFix"/>
<feBlend mode="normal" in="SourceGraphic" in2="BackgroundImageFix" result="shape"/>
<feGaussianBlur stdDeviation="2" result="effect1_foregroundBlur_17_24"/>
</filter>
<filter id="filter1_f_17_24" x="79.6909" y="40" width="13.8091" height="37" filterUnits="userSpaceOnUse" color-interpolation-filters="sRGB">
<feFlood flood-opacity="0" result="BackgroundImageFix"/>
<feBlend mode="normal" in="SourceGraphic" in2="BackgroundImageFix" result="shape"/>
<feGaussianBlur stdDeviation="1.5" result="effect1_foregroundBlur_17_24"/>
</filter>
</defs>
</svg>
